<svg width="32" height="33" viewBox="0 0 32 33" fill="none" xmlns="http://www.w3.org/2000/svg">
<path fill-rule="evenodd" clip-rule="evenodd" d="M16 4.375C16.2652 4.375 16.5196 4.48036 16.7071 4.66789C16.8946 4.85543 17 5.10978 17 5.375V15.375H27C27.2652 15.375 27.5196 15.4804 27.7071 15.6679C27.8946 15.8554 28 16.1098 28 16.375C28 16.6402 27.8946 16.8946 27.7071 17.0821C27.5196 17.2696 27.2652 17.375 27 17.375H17V27.375C17 27.6402 16.8946 27.8946 16.7071 28.0821C16.5196 28.2696 16.2652 28.375 16 28.375C15.7348 28.375 15.4804 28.2696 15.2929 28.0821C15.1054 27.8946 15 27.6402 15 27.375V17.375H5C4.73478 17.375 4.48043 17.2696 4.29289 17.0821C4.10536 16.8946 4 16.6402 4 16.375C4 16.1098 4.10536 15.8554 4.29289 15.6679C4.48043 15.4804 4.73478 15.375 5 15.375H15V5.375C15 5.10978 15.1054 4.85543 15.2929 4.66789C15.4804 4.48036 15.7348 4.375 16 4.375Z" fill="black"/>
</svg>
