<svg width="44" height="45" viewBox="0 0 44 45" fill="none" xmlns="http://www.w3.org/2000/svg">
<rect y="0.375" width="44" height="44" rx="22" fill="#F2F2F2"/>
<path fill-rule="evenodd" clip-rule="evenodd" d="M29.4998 15.5C29.4998 15.3342 29.434 15.1753 29.3168 15.0581C29.1995 14.9408 29.0406 14.875 28.8748 14.875H21.3748C21.2091 14.875 21.0501 14.9408 20.9329 15.0581C20.8157 15.1753 20.7498 15.3342 20.7498 15.5C20.7498 15.6658 20.8157 15.8247 20.9329 15.9419C21.0501 16.0592 21.2091 16.125 21.3748 16.125H27.3661L14.6823 28.8075C14.6242 28.8656 14.5781 28.9346 14.5467 29.0105C14.5152 29.0864 14.499 29.1678 14.499 29.25C14.499 29.3322 14.5152 29.4136 14.5467 29.4895C14.5781 29.5654 14.6242 29.6344 14.6823 29.6925C14.7404 29.7506 14.8094 29.7967 14.8853 29.8282C14.9613 29.8596 15.0426 29.8758 15.1248 29.8758C15.207 29.8758 15.2884 29.8596 15.3643 29.8282C15.4402 29.7967 15.5092 29.7506 15.5673 29.6925L28.2498 17.0087V23C28.2498 23.1658 28.3157 23.3247 28.4329 23.4419C28.5501 23.5592 28.7091 23.625 28.8748 23.625C29.0406 23.625 29.1995 23.5592 29.3168 23.4419C29.434 23.3247 29.4998 23.1658 29.4998 23V15.5Z" fill="black"/>
</svg>
