<svg width="46" height="46" viewBox="0 0 46 46" fill="none" xmlns="http://www.w3.org/2000/svg">
    <path d="M23 23C25.2875 23 27.4813 22.0913 29.0988 20.4738C30.7163 18.8563 31.625 16.6625 31.625 14.375C31.625 12.0875 30.7163 9.89371 29.0988 8.2762C27.4813 6.6587 25.2875 5.75 23 5.75C20.7125 5.75 18.5187 6.6587 16.9012 8.2762C15.2837 9.89371 14.375 12.0875 14.375 14.375C14.375 16.6625 15.2837 18.8563 16.9012 20.4738C18.5187 22.0913 20.7125 23 23 23ZM28.75 14.375C28.75 15.9 28.1442 17.3625 27.0659 18.4409C25.9875 19.5192 24.525 20.125 23 20.125C21.475 20.125 20.0125 19.5192 18.9341 18.4409C17.8558 17.3625 17.25 15.9 17.25 14.375C17.25 12.85 17.8558 11.3875 18.9341 10.3091C20.0125 9.2308 21.475 8.625 23 8.625C24.525 8.625 25.9875 9.2308 27.0659 10.3091C28.1442 11.3875 28.75 12.85 28.75 14.375ZM40.25 37.375C40.25 40.25 37.375 40.25 37.375 40.25H8.625C8.625 40.25 5.75 40.25 5.75 37.375C5.75 34.5 8.625 25.875 23 25.875C37.375 25.875 40.25 34.5 40.25 37.375ZM37.375 37.3635C37.3721 36.6562 36.9323 34.5287 34.983 32.5795C33.1085 30.705 29.5809 28.75 23 28.75C16.4163 28.75 12.8915 30.705 11.017 32.5795C9.06775 34.5287 8.63075 36.6562 8.625 37.3635H37.375Z" fill="#154BD8"/>
</svg>
