<svg width="48" height="41" viewBox="0 0 48 41" fill="none" xmlns="http://www.w3.org/2000/svg">
<rect y="0.375" width="48" height="40" rx="8" fill="white"/>
<g clip-path="url(#clip0_705_1208)">
<path d="M26.9999 17.841V16.375H20.9999C20.3192 16.3749 19.6497 16.5486 19.0548 16.8795C18.4599 17.2105 17.9594 17.6878 17.6005 18.2662C17.2416 18.8447 17.0363 19.5052 17.004 20.1852C16.9717 20.8651 17.1135 21.5421 17.4159 22.152C17.4452 22.2108 17.4626 22.2748 17.4671 22.3404C17.4717 22.4059 17.4633 22.4718 17.4424 22.5341C17.4215 22.5964 17.3885 22.654 17.3454 22.7035C17.3022 22.7531 17.2497 22.7937 17.1909 22.823C17.1321 22.8522 17.068 22.8697 17.0025 22.8742C16.9369 22.8787 16.8711 22.8703 16.8088 22.8494C16.7465 22.8285 16.6889 22.7956 16.6393 22.7524C16.5898 22.7093 16.5492 22.6568 16.5199 22.598C16.1415 21.8356 15.9639 20.9892 16.0041 20.1389C16.0443 19.2887 16.3008 18.4629 16.7495 17.7395C17.1981 17.0162 17.824 16.4194 18.5678 16.0056C19.3116 15.5918 20.1487 15.3747 20.9999 15.375H26.9999V13.909C26.9999 13.8615 27.0135 13.8149 27.039 13.7749C27.0645 13.7348 27.1008 13.7028 27.1439 13.6827C27.1869 13.6625 27.2348 13.655 27.2819 13.6611C27.329 13.6672 27.3734 13.6866 27.4099 13.717L29.7699 15.683C29.8899 15.783 29.8899 15.967 29.7699 16.067L27.4099 18.033C27.3734 18.0634 27.329 18.0827 27.2819 18.0888C27.2348 18.0949 27.1869 18.0874 27.1439 18.0673C27.1008 18.0471 27.0645 18.0151 27.039 17.9751C27.0135 17.935 26.9999 17.8885 26.9999 17.841ZM30.8099 17.927C30.9286 17.868 31.0658 17.8586 31.1915 17.9008C31.3171 17.943 31.4208 18.0333 31.4799 18.152C31.8583 18.9144 32.0358 19.7608 31.9957 20.611C31.9555 21.4612 31.6989 22.2871 31.2503 23.0104C30.8017 23.7337 30.1758 24.3306 29.432 24.7443C28.6882 25.1581 27.8511 25.3752 26.9999 25.375H20.9999V26.841C20.9999 26.8885 20.9863 26.935 20.9608 26.9751C20.9353 27.0151 20.8989 27.0471 20.8559 27.0673C20.8129 27.0874 20.765 27.0949 20.7179 27.0888C20.6708 27.0827 20.6264 27.0634 20.5899 27.033L18.2299 25.067C18.2018 25.0435 18.1791 25.0141 18.1636 24.981C18.1481 24.9478 18.14 24.9116 18.14 24.875C18.14 24.8383 18.1481 24.8021 18.1636 24.769C18.1791 24.7358 18.2018 24.7064 18.2299 24.683L20.5899 22.717C20.6264 22.6866 20.6708 22.6672 20.7179 22.6611C20.765 22.655 20.8129 22.6625 20.8559 22.6827C20.8989 22.7028 20.9353 22.7348 20.9608 22.7749C20.9863 22.8149 20.9999 22.8615 20.9999 22.909V24.375H26.9999C27.6807 24.3752 28.3503 24.2017 28.9453 23.8708C29.5403 23.5399 30.041 23.0626 30.4 22.4841C30.759 21.9056 30.9644 21.2451 30.9968 20.565C31.0291 19.885 30.8873 19.2079 30.5849 18.598C30.5259 18.4793 30.5165 18.342 30.5587 18.2164C30.6009 18.0908 30.6913 17.987 30.8099 17.928V17.927Z" fill="black"/>
</g>
<defs>
<clipPath id="clip0_705_1208">
<rect width="16" height="16" fill="white" transform="translate(16 12.375)"/>
</clipPath>
</defs>
</svg>
