<svg width="16" height="17" viewBox="0 0 16 17" fill="none" xmlns="http://www.w3.org/2000/svg">
<g id="clock" clip-path="url(#clip0_705_1218)">
<path id="Vector" d="M8 3.875C8 3.74239 7.94732 3.61521 7.85355 3.52145C7.75979 3.42768 7.63261 3.375 7.5 3.375C7.36739 3.375 7.24021 3.42768 7.14645 3.52145C7.05268 3.61521 7 3.74239 7 3.875V9.375C7.00003 9.46313 7.02335 9.54969 7.06761 9.62591C7.11186 9.70212 7.17547 9.76529 7.252 9.809L10.752 11.809C10.8669 11.8711 11.0014 11.8858 11.127 11.8499C11.2525 11.8141 11.3591 11.7306 11.4238 11.6172C11.4886 11.5038 11.5065 11.3696 11.4736 11.2433C11.4408 11.1169 11.3598 11.0084 11.248 10.941L8 9.085V3.875Z" fill="black"/>
<path id="Vector_2" d="M8 16.375C10.1217 16.375 12.1566 15.5321 13.6569 14.0319C15.1571 12.5316 16 10.4967 16 8.375C16 6.25327 15.1571 4.21844 13.6569 2.71815C12.1566 1.21785 10.1217 0.375 8 0.375C5.87827 0.375 3.84344 1.21785 2.34315 2.71815C0.842855 4.21844 0 6.25327 0 8.375C0 10.4967 0.842855 12.5316 2.34315 14.0319C3.84344 15.5321 5.87827 16.375 8 16.375ZM15 8.375C15 10.2315 14.2625 12.012 12.9497 13.3247C11.637 14.6375 9.85652 15.375 8 15.375C6.14348 15.375 4.36301 14.6375 3.05025 13.3247C1.7375 12.012 1 10.2315 1 8.375C1 6.51848 1.7375 4.73801 3.05025 3.42525C4.36301 2.1125 6.14348 1.375 8 1.375C9.85652 1.375 11.637 2.1125 12.9497 3.42525C14.2625 4.73801 15 6.51848 15 8.375Z" fill="black"/>
</g>
<defs>
<clipPath id="clip0_705_1218">
<rect width="16" height="16" fill="white" transform="translate(0 0.375)"/>
</clipPath>
</defs>
</svg>
