<svg width="106" height="106" viewBox="0 0 106 106" fill="none" xmlns="http://www.w3.org/2000/svg">
    <g clip-path="url(#clip0_1308_37339)">
        <path d="M106 53C106 67.0565 100.416 80.5372 90.4767 90.4767C80.5372 100.416 67.0565 106 53 106C38.9435 106 25.4628 100.416 15.5233 90.4767C5.58391 80.5372 0 67.0565 0 53C0 38.9435 5.58391 25.4628 15.5233 15.5233C25.4628 5.58391 38.9435 0 53 0C67.0565 0 80.5372 5.58391 90.4767 15.5233C100.416 25.4628 106 38.9435 106 53ZM79.6987 32.9263C79.2255 32.4547 78.6621 32.0834 78.042 31.8346C77.422 31.5857 76.7582 31.4645 76.0903 31.4781C75.4223 31.4917 74.764 31.6399 74.1546 31.9137C73.5453 32.1876 72.9974 32.5815 72.5437 33.072L49.5351 62.3876L35.669 48.5149C34.7271 47.6372 33.4813 47.1594 32.194 47.1821C30.9068 47.2048 29.6786 47.7263 28.7683 48.6366C27.8579 49.547 27.3364 50.7752 27.3137 52.0624C27.291 53.3497 27.7688 54.5955 28.6465 55.5374L46.1763 73.0737C46.6485 73.5451 47.2108 73.9166 47.8297 74.1659C48.4487 74.4152 49.1114 74.5374 49.7786 74.525C50.4457 74.5126 51.1035 74.366 51.7127 74.0939C52.322 73.8218 52.8702 73.4298 53.3246 72.9413L79.7716 39.8825C80.6732 38.9451 81.1713 37.6914 81.1589 36.3908C81.1466 35.0902 80.6247 33.8464 79.7054 32.9263H79.6987Z" fill="#1B9930"/>
    </g>
    <defs>
        <clipPath id="clip0_1308_37339">
            <rect width="106" height="106" fill="white"/>
        </clipPath>
    </defs>
</svg>
