<svg xmlns="http://www.w3.org/2000/svg" width="25" height="24" viewBox="0 0 25 24" fill="none">
    <g clip-path="url(#clip0_1337_7865)">
        <path d="M4.91138 4.57498C3.93625 5.55001 3.16273 6.70757 2.63498 7.98155C2.10724 9.25554 1.83562 10.621 1.83562 12C1.83562 13.3789 2.10724 14.7444 2.63498 16.0184C3.16273 17.2924 3.93625 18.4499 4.91138 19.425C5.04799 19.5664 5.12359 19.7559 5.12188 19.9525C5.12017 20.1492 5.0413 20.3373 4.90224 20.4763C4.76318 20.6154 4.57507 20.6943 4.37843 20.696C4.18178 20.6977 3.99233 20.6221 3.85087 20.4855C2.73651 19.3712 1.85254 18.0483 1.24944 16.5923C0.646347 15.1364 0.335937 13.5759 0.335938 12C0.335937 10.4241 0.646347 8.86358 1.24944 7.40763C1.85254 5.95169 2.73651 4.62879 3.85087 3.51448C3.99233 3.37786 4.18178 3.30226 4.37843 3.30397C4.57507 3.30568 4.76318 3.38456 4.90224 3.52361C5.0413 3.66267 5.12017 3.85078 5.12188 4.04743C5.12359 4.24407 5.04799 4.43352 4.91138 4.57498ZM8.09437 7.75798C6.96955 8.88314 6.33766 10.409 6.33766 12C6.33766 13.591 6.96955 15.1168 8.09437 16.242C8.16411 16.3117 8.21942 16.3945 8.25716 16.4856C8.2949 16.5767 8.31432 16.6744 8.31432 16.773C8.31432 16.8716 8.2949 16.9692 8.25716 17.0604C8.21942 17.1515 8.16411 17.2342 8.09437 17.304C8.02464 17.3737 7.94186 17.429 7.85075 17.4668C7.75964 17.5045 7.66199 17.5239 7.56337 17.5239C7.46476 17.5239 7.36711 17.5045 7.276 17.4668C7.18489 17.429 7.10211 17.3737 7.03237 17.304C6.33573 16.6075 5.7831 15.7806 5.40607 14.8706C5.02904 13.9605 4.83498 12.9851 4.83498 12C4.83498 11.0149 5.02904 10.0395 5.40607 9.12939C5.7831 8.21932 6.33573 7.39244 7.03237 6.69598C7.1732 6.55515 7.36421 6.47603 7.56337 6.47603C7.76254 6.47603 7.95354 6.55515 8.09437 6.69598C8.2352 6.83681 8.31432 7.02781 8.31432 7.22698C8.31432 7.42614 8.2352 7.61715 8.09437 7.75798ZM16.5784 6.69598C16.648 6.62613 16.7308 6.57072 16.8219 6.53291C16.913 6.4951 17.0107 6.47564 17.1094 6.47564C17.208 6.47564 17.3057 6.4951 17.3968 6.53291C17.4879 6.57072 17.5707 6.62613 17.6404 6.69598C18.337 7.39244 18.8896 8.21932 19.2667 9.12939C19.6437 10.0395 19.8378 11.0149 19.8378 12C19.8378 12.9851 19.6437 13.9605 19.2667 14.8706C18.8896 15.7806 18.337 16.6075 17.6404 17.304C17.5706 17.3737 17.4879 17.429 17.3968 17.4668C17.3056 17.5045 17.208 17.5239 17.1094 17.5239C17.0108 17.5239 16.9131 17.5045 16.822 17.4668C16.7309 17.429 16.6481 17.3737 16.5784 17.304C16.5086 17.2342 16.4533 17.1515 16.4156 17.0604C16.3779 16.9692 16.3584 16.8716 16.3584 16.773C16.3584 16.6744 16.3779 16.5767 16.4156 16.4856C16.4533 16.3945 16.5086 16.3117 16.5784 16.242C17.7032 15.1168 18.3351 13.591 18.3351 12C18.3351 10.409 17.7032 8.88314 16.5784 7.75798C16.5085 7.68831 16.4531 7.60555 16.4153 7.51443C16.3775 7.42331 16.358 7.32563 16.358 7.22698C16.358 7.12833 16.3775 7.03064 16.4153 6.93953C16.4531 6.84841 16.5085 6.76565 16.5784 6.69598ZM19.7614 3.51598C19.902 3.37537 20.0928 3.29639 20.2916 3.29639C20.4905 3.29639 20.6812 3.37537 20.8219 3.51598C23.072 5.76637 24.3361 8.81839 24.3361 12.0007C24.3361 15.1831 23.072 18.2351 20.8219 20.4855C20.6804 20.6221 20.491 20.6977 20.2943 20.696C20.0977 20.6943 19.9096 20.6154 19.7705 20.4763C19.6315 20.3373 19.5526 20.1492 19.5509 19.9525C19.5492 19.7559 19.6248 19.5664 19.7614 19.425C20.7365 18.4499 21.51 17.2924 22.0378 16.0184C22.5655 14.7444 22.8371 13.3789 22.8371 12C22.8371 10.621 22.5655 9.25554 22.0378 7.98155C21.51 6.70757 20.7365 5.55001 19.7614 4.57498C19.6208 4.43433 19.5418 4.2436 19.5418 4.04473C19.5418 3.84585 19.6208 3.65512 19.7614 3.51448V3.51598ZM15.3364 12C15.3364 12.7956 15.0203 13.5587 14.4577 14.1213C13.8951 14.6839 13.132 15 12.3364 15C11.5407 15 10.7777 14.6839 10.2151 14.1213C9.65244 13.5587 9.33637 12.7956 9.33637 12C9.33637 11.2043 9.65244 10.4413 10.2151 9.87866C10.7777 9.31605 11.5407 8.99998 12.3364 8.99998C13.132 8.99998 13.8951 9.31605 14.4577 9.87866C15.0203 10.4413 15.3364 11.2043 15.3364 12Z" fill="#676A6C"/>
    </g>
    <defs>
        <clipPath id="clip0_1337_7865">
            <rect width="24" height="24" fill="white" transform="translate(0.335938)"/>
        </clipPath>
    </defs>
</svg>
