<svg width="62" height="53" viewBox="0 0 62 53" fill="none" xmlns="http://www.w3.org/2000/svg">
<g id="img">
<g id="Union" filter="url(#filter0_d_391_23825)">
<mask id="path-1-inside-1_391_23825" fill="white">
<path fill-rule="evenodd" clip-rule="evenodd" d="M29.9991 0C30.2725 0 30.5425 0.0580664 30.7904 0.170132L58.9162 12.9204C59.2474 13.0706 59.5262 13.3115 59.7183 13.6136C59.9104 13.9156 60.0075 14.2656 59.9975 14.6206C59.9876 14.9755 59.871 15.3199 59.6623 15.6113C59.4535 15.9027 59.1616 16.1286 58.8225 16.261L56.2499 17.2628V40.0712C57.2445 40.0712 58.1983 40.455 58.9016 41.1382C59.6049 41.8214 60 42.748 60 43.7141V51H48.7497V43.7141C48.7497 42.748 49.1448 41.8214 49.848 41.1382C50.5513 40.455 51.5052 40.0712 52.4998 40.0712V18.7236L30.6966 27.1898C30.2489 27.3641 29.7493 27.3641 29.3016 27.1898L1.17574 16.261C0.836613 16.1286 0.544715 15.9027 0.33595 15.6113C0.127186 15.3199 0.0106576 14.9755 0.000696668 14.6206C-0.00926428 14.2656 0.0877764 13.9156 0.279884 13.6136C0.471992 13.3115 0.750791 13.0706 1.08199 12.9204L29.2078 0.170132C29.4557 0.0580664 29.7257 0 29.9991 0ZM14.9043 25.5019C15.1619 25.4891 15.4196 25.5281 15.661 25.6165L30.0014 30.8405L44.3419 25.6165C44.5833 25.5281 44.8409 25.4891 45.0986 25.5019C45.3563 25.5147 45.6085 25.579 45.8394 25.6909C46.0703 25.8027 46.275 25.9596 46.4406 26.1518C46.6062 26.3439 46.7292 26.5672 46.8019 26.8077L48.677 33.0007C48.8083 33.4355 48.7681 33.9022 48.5643 34.3097C48.3604 34.7173 48.0075 35.0363 47.5745 35.2047L30.6989 41.762C30.2512 41.9363 29.7516 41.9363 29.3039 41.762L12.4284 35.2047C11.9954 35.0363 11.6425 34.7173 11.4386 34.3097C11.2347 33.9022 11.1945 33.4355 11.3259 33.0007L13.2009 26.8077C13.2736 26.5672 13.3967 26.3439 13.5623 26.1518C13.7279 25.9596 13.9326 25.8027 14.1635 25.6909C14.3944 25.579 14.6466 25.5147 14.9043 25.5019Z"/>
</mask>
<path fill-rule="evenodd" clip-rule="evenodd" d="M29.9991 0C30.2725 0 30.5425 0.0580664 30.7904 0.170132L58.9162 12.9204C59.2474 13.0706 59.5262 13.3115 59.7183 13.6136C59.9104 13.9156 60.0075 14.2656 59.9975 14.6206C59.9876 14.9755 59.871 15.3199 59.6623 15.6113C59.4535 15.9027 59.1616 16.1286 58.8225 16.261L56.2499 17.2628V40.0712C57.2445 40.0712 58.1983 40.455 58.9016 41.1382C59.6049 41.8214 60 42.748 60 43.7141V51H48.7497V43.7141C48.7497 42.748 49.1448 41.8214 49.848 41.1382C50.5513 40.455 51.5052 40.0712 52.4998 40.0712V18.7236L30.6966 27.1898C30.2489 27.3641 29.7493 27.3641 29.3016 27.1898L1.17574 16.261C0.836613 16.1286 0.544715 15.9027 0.33595 15.6113C0.127186 15.3199 0.0106576 14.9755 0.000696668 14.6206C-0.00926428 14.2656 0.0877764 13.9156 0.279884 13.6136C0.471992 13.3115 0.750791 13.0706 1.08199 12.9204L29.2078 0.170132C29.4557 0.0580664 29.7257 0 29.9991 0ZM14.9043 25.5019C15.1619 25.4891 15.4196 25.5281 15.661 25.6165L30.0014 30.8405L44.3419 25.6165C44.5833 25.5281 44.8409 25.4891 45.0986 25.5019C45.3563 25.5147 45.6085 25.579 45.8394 25.6909C46.0703 25.8027 46.275 25.9596 46.4406 26.1518C46.6062 26.3439 46.7292 26.5672 46.8019 26.8077L48.677 33.0007C48.8083 33.4355 48.7681 33.9022 48.5643 34.3097C48.3604 34.7173 48.0075 35.0363 47.5745 35.2047L30.6989 41.762C30.2512 41.9363 29.7516 41.9363 29.3039 41.762L12.4284 35.2047C11.9954 35.0363 11.6425 34.7173 11.4386 34.3097C11.2347 33.9022 11.1945 33.4355 11.3259 33.0007L13.2009 26.8077C13.2736 26.5672 13.3967 26.3439 13.5623 26.1518C13.7279 25.9596 13.9326 25.8027 14.1635 25.6909C14.3944 25.579 14.6466 25.5147 14.9043 25.5019Z" fill="#9BB8ED"/>
<path d="M30.7904 0.170132L31.6161 -1.65144L31.6144 -1.65223L30.7904 0.170132ZM58.9162 12.9204L59.7421 11.0989L59.742 11.0988L58.9162 12.9204ZM59.9975 14.6206L61.9967 14.6767L59.9975 14.6206ZM59.6623 15.6113L58.0364 14.4466V14.4466L59.6623 15.6113ZM58.8225 16.261L59.5482 18.1247L59.5499 18.124L58.8225 16.261ZM56.2499 17.2628L55.5241 15.3991L54.2499 15.8953V17.2628H56.2499ZM56.2499 40.0712H54.2499V42.0712H56.2499V40.0712ZM58.9016 41.1382L60.2952 39.7036L60.2952 39.7036L58.9016 41.1382ZM60 51V53H62V51H60ZM48.7497 51H46.7497V53H48.7497V51ZM49.848 41.1382L51.2416 42.5728L51.2416 42.5728L49.848 41.1382ZM52.4998 40.0712V42.0712H54.4998V40.0712H52.4998ZM52.4998 18.7236H54.4998V15.8015L51.7758 16.8592L52.4998 18.7236ZM30.6966 27.1898L29.9727 25.3254L29.9711 25.326L30.6966 27.1898ZM29.3016 27.1898L30.0272 25.326L30.026 25.3256L29.3016 27.1898ZM1.17574 16.261L0.448299 18.124L0.451372 18.1252L1.17574 16.261ZM0.33595 15.6113L1.96186 14.4466L1.96185 14.4466L0.33595 15.6113ZM0.000696668 14.6206L-1.99852 14.6767L0.000696668 14.6206ZM0.279884 13.6136L1.96749 14.6869L0.279884 13.6136ZM1.08199 12.9204L0.256222 11.0988L0.256081 11.0989L1.08199 12.9204ZM29.2078 0.170132L28.3838 -1.65223L28.3821 -1.65143L29.2078 0.170132ZM15.661 25.6165L14.9737 27.4947L14.9764 27.4957L15.661 25.6165ZM30.0014 30.8405L29.3169 32.7196L30.0014 32.969L30.686 32.7196L30.0014 30.8405ZM44.3419 25.6165L45.0264 27.4957L45.0292 27.4947L44.3419 25.6165ZM45.8394 25.6909L44.9677 27.4909L44.9677 27.4909L45.8394 25.6909ZM46.8019 26.8077L44.8875 27.3865L44.8877 27.3873L46.8019 26.8077ZM48.677 33.0007L50.5915 32.4223L50.5912 32.4212L48.677 33.0007ZM48.5643 34.3097L46.7756 33.4149L46.7756 33.4149L48.5643 34.3097ZM47.5745 35.2047L48.2988 37.0689L48.2991 37.0688L47.5745 35.2047ZM30.6989 41.762L29.9746 39.8978L29.9734 39.8982L30.6989 41.762ZM29.3039 41.762L30.0295 39.8982L30.0283 39.8978L29.3039 41.762ZM12.4284 35.2047L11.7037 37.0688L11.704 37.0689L12.4284 35.2047ZM11.4386 34.3097L13.2273 33.4149L13.2273 33.4149L11.4386 34.3097ZM11.3259 33.0007L9.41168 32.4212L9.41132 32.4223L11.3259 33.0007ZM13.2009 26.8077L15.1151 27.3873L15.1153 27.3865L13.2009 26.8077ZM31.6144 -1.65223C31.1063 -1.88199 30.5552 -2 29.9991 -2V2C29.9898 2 29.9788 1.99812 29.9664 1.99249L31.6144 -1.65223ZM59.742 11.0988L31.6161 -1.65143L29.9646 1.9917L58.0905 14.742L59.742 11.0988ZM61.4059 12.5403C61.0019 11.9049 60.4212 11.4068 59.7421 11.0989L58.0903 14.7419C58.0737 14.7344 58.0506 14.7181 58.0307 14.6869L61.4059 12.5403ZM61.9967 14.6767C62.018 13.9191 61.8104 13.1763 61.4059 12.5403L58.0307 14.6869C58.0104 14.655 57.997 14.6122 57.9983 14.5645L61.9967 14.6767ZM61.2882 16.7759C61.7267 16.1638 61.9755 15.4342 61.9967 14.6767L57.9983 14.5645C57.9996 14.5168 58.0154 14.4759 58.0364 14.4466L61.2882 16.7759ZM59.5499 18.124C60.2439 17.853 60.8502 17.3874 61.2882 16.7759L58.0364 14.4466C58.0568 14.4181 58.0793 14.4041 58.095 14.398L59.5499 18.124ZM56.9756 19.1265L59.5482 18.1247L58.0967 14.3973L55.5241 15.3991L56.9756 19.1265ZM58.2499 40.0712V17.2628H54.2499V40.0712H58.2499ZM60.2952 39.7036C59.2127 38.652 57.7565 38.0712 56.2499 38.0712V42.0712C56.7325 42.0712 57.184 42.258 57.5081 42.5728L60.2952 39.7036ZM62 43.7141C62 42.1985 61.3797 40.7571 60.2952 39.7036L57.5081 42.5728C57.8301 42.8856 58 43.2974 58 43.7141H62ZM62 51V43.7141H58V51H62ZM48.7497 53H60V49H48.7497V53ZM46.7497 43.7141V51H50.7497V43.7141H46.7497ZM48.4545 39.7036C47.37 40.7571 46.7497 42.1985 46.7497 43.7141H50.7497C50.7497 43.2974 50.9195 42.8856 51.2416 42.5728L48.4545 39.7036ZM52.4998 38.0712C50.9932 38.0712 49.537 38.652 48.4545 39.7036L51.2416 42.5728C51.5657 42.258 52.0172 42.0712 52.4998 42.0712V38.0712ZM50.4998 18.7236V40.0712H54.4998V18.7236H50.4998ZM31.4206 29.0542L53.2237 20.588L51.7758 16.8592L29.9727 25.3254L31.4206 29.0542ZM28.576 29.0535C29.4904 29.4095 30.5078 29.4095 31.4222 29.0535L29.9711 25.326C29.9815 25.3219 29.991 25.3205 29.9991 25.3205C30.0072 25.3205 30.0167 25.3219 30.0272 25.326L28.576 29.0535ZM0.451372 18.1252L28.5772 29.054L30.026 25.3256L1.90012 14.3968L0.451372 18.1252ZM-1.28996 16.776C-0.851956 17.3874 -0.245678 17.853 0.4483 18.124L1.90319 14.398C1.9189 14.4041 1.94139 14.4181 1.96186 14.4466L-1.28996 16.776ZM-1.99852 14.6767C-1.97726 15.4342 -1.72845 16.1638 -1.28995 16.776L1.96185 14.4466C1.98282 14.4759 1.99857 14.5168 1.99991 14.5645L-1.99852 14.6767ZM-1.40772 12.5403C-1.81224 13.1763 -2.01978 13.9191 -1.99852 14.6767L1.99991 14.5645C2.00125 14.6121 1.98779 14.655 1.96749 14.6869L-1.40772 12.5403ZM0.256081 11.0989C-0.422951 11.4068 -1.00365 11.9049 -1.40772 12.5403L1.96749 14.6869C1.94764 14.7181 1.92453 14.7344 1.9079 14.7419L0.256081 11.0989ZM28.3821 -1.65143L0.256222 11.0988L1.90776 14.742L30.0336 1.9917L28.3821 -1.65143ZM29.9991 -2C29.443 -2 28.8919 -1.88199 28.3838 -1.65223L30.0319 1.99249C30.0194 1.99812 30.0084 2 29.9991 2V-2ZM16.3483 23.7383C15.8544 23.5576 15.3293 23.4784 14.8051 23.5044L15.0035 27.4995C14.9946 27.4999 14.9847 27.4987 14.9737 27.4947L16.3483 23.7383ZM30.686 28.9613L16.3456 23.7373L14.9764 27.4957L29.3169 32.7196L30.686 28.9613ZM43.6573 23.7373L29.3169 28.9613L30.686 32.7196L45.0264 27.4957L43.6573 23.7373ZM45.1978 23.5044C44.6736 23.4784 44.1484 23.5576 43.6545 23.7383L45.0292 27.4947C45.0182 27.4987 45.0083 27.4999 44.9994 27.4995L45.1978 23.5044ZM46.711 23.8908C46.2371 23.6613 45.7221 23.5304 45.1978 23.5044L44.9994 27.4995C44.9905 27.499 44.9798 27.4968 44.9677 27.4909L46.711 23.8908ZM47.9556 24.8461C47.6095 24.4445 47.1851 24.1203 46.711 23.8908L44.9677 27.4909C44.9555 27.485 44.9404 27.4747 44.9256 27.4574L47.9556 24.8461ZM48.7163 26.2289C48.5619 25.7182 48.3018 25.2478 47.9556 24.8461L44.9256 27.4574C44.9106 27.44 44.8965 27.4163 44.8875 27.3865L48.7163 26.2289ZM50.5912 32.4212L48.7161 26.2282L44.8877 27.3873L46.7628 33.5803L50.5912 32.4212ZM50.3529 35.2045C50.7846 34.3417 50.8712 33.348 50.5915 32.4223L46.7624 33.5791C46.7455 33.5229 46.7517 33.4627 46.7756 33.4149L50.3529 35.2045ZM48.2991 37.0688C49.1848 36.7245 49.9222 36.0655 50.353 35.2045L46.7756 33.4149C46.7986 33.369 46.8302 33.3482 46.8498 33.3406L48.2991 37.0688ZM31.4233 43.6262L48.2988 37.0689L46.8501 33.3405L29.9746 39.8978L31.4233 43.6262ZM28.5783 43.6257C29.4927 43.9817 30.5102 43.9817 31.4245 43.6257L29.9734 39.8982C29.9839 39.8941 29.9933 39.8927 30.0014 39.8927C30.0095 39.8927 30.019 39.8941 30.0295 39.8982L28.5783 43.6257ZM11.704 37.0689L28.5795 43.6262L30.0283 39.8978L13.1528 33.3405L11.704 37.0689ZM9.64991 35.2045C10.0806 36.0655 10.8181 36.7245 11.7037 37.0688L13.1531 33.3406C13.1727 33.3482 13.2043 33.369 13.2273 33.4149L9.64991 35.2045ZM9.41132 32.4223C9.13169 33.348 9.2183 34.3417 9.64991 35.2045L13.2273 33.4149C13.2511 33.4627 13.2574 33.5229 13.2404 33.5791L9.41132 32.4223ZM11.2867 26.2282L9.41168 32.4212L13.2401 33.5803L15.1151 27.3873L11.2867 26.2282ZM12.0473 24.8461C11.701 25.2478 11.4409 25.7182 11.2865 26.2289L15.1153 27.3865C15.1063 27.4163 15.0923 27.44 15.0773 27.4574L12.0473 24.8461ZM13.2918 23.8908C12.8178 24.1203 12.3934 24.4445 12.0473 24.8461L15.0773 27.4574C15.0624 27.4747 15.0473 27.485 15.0351 27.4909L13.2918 23.8908ZM14.8051 23.5044C14.2808 23.5304 13.7658 23.6613 13.2918 23.8908L15.0351 27.4909C15.023 27.4968 15.0124 27.499 15.0035 27.4995L14.8051 23.5044Z" fill="black" mask="url(#path-1-inside-1_391_23825)"/>
</g>
</g>
<defs>
<filter id="filter0_d_391_23825" x="0" y="0" width="62" height="53" filterUnits="userSpaceOnUse" color-interpolation-filters="sRGB">
<feFlood flood-opacity="0" result="BackgroundImageFix"/>
<feColorMatrix in="SourceAlpha" type="matrix" values="0 0 0 0 0 0 0 0 0 0 0 0 0 0 0 0 0 0 127 0" result="hardAlpha"/>
<feOffset dx="2" dy="2"/>
<feComposite in2="hardAlpha" operator="out"/>
<feColorMatrix type="matrix" values="0 0 0 0 0 0 0 0 0 0 0 0 0 0 0 0 0 0 1 0"/>
<feBlend mode="normal" in2="BackgroundImageFix" result="effect1_dropShadow_391_23825"/>
<feBlend mode="normal" in="SourceGraphic" in2="effect1_dropShadow_391_23825" result="shape"/>
</filter>
</defs>
</svg>
