<svg width="622" height="43" viewBox="0 0 622 43" fill="none" xmlns="http://www.w3.org/2000/svg">
<path d="M2 11L2 32" stroke="white" stroke-opacity="0.4" stroke-width="4" stroke-linecap="round"/>
<path d="M14 8.5L14 34.5" stroke="white" stroke-opacity="0.4" stroke-width="4" stroke-linecap="round"/>
<path d="M26 8.5L26 34.5" stroke="white" stroke-opacity="0.4" stroke-width="4" stroke-linecap="round"/>
<path d="M38 8.5L38 34.5" stroke="white" stroke-opacity="0.4" stroke-width="4" stroke-linecap="round"/>
<path d="M50 6L50 37" stroke="white" stroke-opacity="0.4" stroke-width="4" stroke-linecap="round"/>
<path d="M62 6L62 37" stroke="white" stroke-opacity="0.4" stroke-width="4" stroke-linecap="round"/>
<path d="M74 11L74 32" stroke="white" stroke-opacity="0.4" stroke-width="4" stroke-linecap="round"/>
<path d="M86 6L86 37" stroke="white" stroke-opacity="0.4" stroke-width="4" stroke-linecap="round"/>
<path d="M98 11L98 32" stroke="white" stroke-opacity="0.4" stroke-width="4" stroke-linecap="round"/>
<path d="M110 4L110 39" stroke="white" stroke-opacity="0.4" stroke-width="4" stroke-linecap="round"/>
<path d="M122 4L122 39" stroke="white" stroke-opacity="0.4" stroke-width="4" stroke-linecap="round"/>
<path d="M134 2L134 41" stroke="white" stroke-opacity="0.4" stroke-width="4" stroke-linecap="round"/>
<path d="M146 2L146 41" stroke="white" stroke-opacity="0.4" stroke-width="4" stroke-linecap="round"/>
<path d="M158 11L158 32" stroke="white" stroke-opacity="0.4" stroke-width="4" stroke-linecap="round"/>
<path d="M170 11L170 32" stroke="white" stroke-opacity="0.4" stroke-width="4" stroke-linecap="round"/>
<path d="M182 8.5L182 34.5" stroke="white" stroke-opacity="0.4" stroke-width="4" stroke-linecap="round"/>
<path d="M194 8.5L194 34.5" stroke="white" stroke-opacity="0.4" stroke-width="4" stroke-linecap="round"/>
<path d="M206 8.5L206 34.5" stroke="white" stroke-opacity="0.4" stroke-width="4" stroke-linecap="round"/>
<path d="M218 6L218 37" stroke="white" stroke-opacity="0.4" stroke-width="4" stroke-linecap="round"/>
<path d="M230 6L230 37" stroke="white" stroke-opacity="0.4" stroke-width="4" stroke-linecap="round"/>
<path d="M242 11L242 32" stroke="white" stroke-opacity="0.4" stroke-width="4" stroke-linecap="round"/>
<path d="M254 6L254 37" stroke="white" stroke-opacity="0.4" stroke-width="4" stroke-linecap="round"/>
<path d="M266 11L266 32" stroke="white" stroke-opacity="0.4" stroke-width="4" stroke-linecap="round"/>
<path d="M278 4L278 39" stroke="white" stroke-opacity="0.4" stroke-width="4" stroke-linecap="round"/>
<path d="M290 11L290 32" stroke="white" stroke-opacity="0.4" stroke-width="4" stroke-linecap="round"/>
<path d="M302 8.5L302 34.5" stroke="white" stroke-opacity="0.4" stroke-width="4" stroke-linecap="round"/>
<path d="M314 8.5L314 34.5" stroke="white" stroke-opacity="0.4" stroke-width="4" stroke-linecap="round"/>
<path d="M326 8.5L326 34.5" stroke="white" stroke-opacity="0.4" stroke-width="4" stroke-linecap="round"/>
<path d="M338 6L338 37" stroke="white" stroke-opacity="0.4" stroke-width="4" stroke-linecap="round"/>
<path d="M350 6L350 37" stroke="white" stroke-opacity="0.4" stroke-width="4" stroke-linecap="round"/>
<path d="M362 11L362 32" stroke="white" stroke-opacity="0.4" stroke-width="4" stroke-linecap="round"/>
<path d="M374 6L374 37" stroke="white" stroke-opacity="0.4" stroke-width="4" stroke-linecap="round"/>
<path d="M386 11L386 32" stroke="white" stroke-opacity="0.4" stroke-width="4" stroke-linecap="round"/>
<path d="M398 4L398 39" stroke="white" stroke-opacity="0.4" stroke-width="4" stroke-linecap="round"/>
<path d="M410 4L410 39" stroke="white" stroke-opacity="0.4" stroke-width="4" stroke-linecap="round"/>
<path d="M422 2L422 41" stroke="white" stroke-opacity="0.4" stroke-width="4" stroke-linecap="round"/>
<path d="M434 8.5L434 34.5" stroke="white" stroke-opacity="0.4" stroke-width="4" stroke-linecap="round"/>
<path d="M446 8.5L446 34.5" stroke="white" stroke-opacity="0.4" stroke-width="4" stroke-linecap="round"/>
<path d="M458 8.5L458 34.5" stroke="white" stroke-opacity="0.4" stroke-width="4" stroke-linecap="round"/>
<path d="M470 6L470 37" stroke="white" stroke-opacity="0.4" stroke-width="4" stroke-linecap="round"/>
<path d="M482 6L482 37" stroke="white" stroke-opacity="0.4" stroke-width="4" stroke-linecap="round"/>
<path d="M494 11L494 32" stroke="white" stroke-opacity="0.4" stroke-width="4" stroke-linecap="round"/>
<path d="M506 6L506 37" stroke="white" stroke-opacity="0.4" stroke-width="4" stroke-linecap="round"/>
<path d="M518 11L518 32" stroke="white" stroke-opacity="0.4" stroke-width="4" stroke-linecap="round"/>
<path d="M530 4L530 39" stroke="white" stroke-opacity="0.4" stroke-width="4" stroke-linecap="round"/>
<path d="M542 4L542 39" stroke="white" stroke-opacity="0.4" stroke-width="4" stroke-linecap="round"/>
<path d="M554 6L554 37" stroke="white" stroke-opacity="0.4" stroke-width="4" stroke-linecap="round"/>
<path d="M566 11L566 32" stroke="white" stroke-opacity="0.4" stroke-width="4" stroke-linecap="round"/>
<path d="M578 6L578 37" stroke="white" stroke-opacity="0.4" stroke-width="4" stroke-linecap="round"/>
<path d="M590 13L590 30" stroke="white" stroke-opacity="0.4" stroke-width="4" stroke-linecap="round"/>
<path d="M602 11L602 32" stroke="white" stroke-opacity="0.4" stroke-width="4" stroke-linecap="round"/>
<path d="M614 11L614 32" stroke="white" stroke-opacity="0.4" stroke-width="4" stroke-linecap="round"/>
</svg>
