<svg width="1244" height="178" viewBox="0 0 1244 178" fill="none" xmlns="http://www.w3.org/2000/svg">
<path d="M1085.3 122.493L1087.45 129.702C1087.81 130.902 1088.87 131.754 1090.12 131.839L1097.63 132.345C1098.74 132.42 1098.91 133.983 1097.84 134.301L1090.63 136.447C1089.43 136.805 1088.58 137.871 1088.5 139.121L1087.99 146.625C1087.92 147.737 1086.35 147.911 1086.04 146.843L1083.89 139.634C1083.53 138.434 1082.47 137.581 1081.22 137.497L1073.71 136.991C1072.6 136.916 1072.42 135.353 1073.49 135.035L1080.7 132.889C1081.9 132.531 1082.75 131.465 1082.84 130.215L1083.35 122.711C1083.42 121.599 1084.98 121.425 1085.3 122.493Z" fill="#FFF3C8" stroke="black" stroke-width="2"/>
<path d="M153.301 130.493L155.448 137.702C155.805 138.902 156.871 139.754 158.121 139.839L165.625 140.345C166.737 140.42 166.912 141.983 165.843 142.301L158.635 144.447C157.434 144.805 156.582 145.871 156.498 147.121L155.991 154.625C155.916 155.737 154.353 155.911 154.035 154.843L151.889 147.634C151.532 146.434 150.466 145.581 149.216 145.497L141.711 144.991C140.599 144.916 140.425 143.353 141.493 143.035L148.702 140.889C149.903 140.531 150.755 139.465 150.839 138.215L151.345 130.711C151.42 129.599 152.983 129.425 153.301 130.493Z" fill="#DEB3E0" stroke="black" stroke-width="2"/>
<g filter="url(#filter0_d_59_415)">
<path d="M128.234 19.4338C128.694 17.098 132.119 17.3767 132.196 19.7561L132.751 37.0829C132.777 37.8922 133.288 38.6061 134.046 38.891L148.368 44.2748C150.251 44.9825 150.028 47.7141 148.056 48.1082L133.052 51.1059C132.258 51.2646 131.638 51.8863 131.482 52.6808L128.133 69.69C127.673 72.0258 124.248 71.7471 124.171 69.3677L123.616 52.0408C123.59 51.2315 123.079 50.5177 122.321 50.2328L107.999 44.849C106.116 44.1412 106.339 41.4097 108.311 41.0156L123.315 38.0179C124.109 37.8592 124.729 37.2375 124.885 36.443L128.234 19.4338Z" fill="#9BB8ED"/>
<path d="M131.196 19.7881L131.751 37.115C131.79 38.3289 132.557 39.3996 133.694 39.827L148.016 45.2109C148.957 45.5647 148.846 46.9305 147.86 47.1275L132.856 50.1253C131.665 50.3633 130.735 51.2959 130.5 52.4876L127.152 69.4968C126.922 70.6647 125.209 70.5253 125.171 69.3356L124.616 52.0088C124.577 50.7948 123.81 49.7241 122.673 49.2967L108.351 43.9129C107.409 43.559 107.521 42.1933 108.507 41.9962L123.511 38.9985C124.702 38.7605 125.632 37.8279 125.867 36.6362L129.215 19.627C129.445 18.4591 131.158 18.5984 131.196 19.7881Z" stroke="black" stroke-width="2"/>
</g>
<path d="M1189.32 123.583L1193.88 136.922C1194.09 137.552 1194.51 138.092 1195.07 138.457L1206.52 146.004C1207.18 146.439 1207.1 147.431 1206.38 147.753L1193.85 153.348C1193.25 153.619 1192.75 154.084 1192.43 154.671L1185.78 167.097C1185.36 167.868 1184.23 167.776 1183.95 166.949L1179.39 153.61C1179.18 152.98 1178.76 152.44 1178.2 152.074L1166.74 144.527C1166.08 144.093 1166.16 143.101 1166.89 142.779L1179.41 137.184C1180.02 136.913 1180.52 136.447 1180.84 135.861L1187.49 123.434C1187.9 122.664 1189.04 122.756 1189.32 123.583Z" fill="#DEB3E0" stroke="black" stroke-width="2"/>
<g filter="url(#filter1_d_59_415)">
<path d="M1162.18 83.2669L1162.29 83.2444C1172.58 81.2025 1178.87 78.5081 1181.8 77.0288C1186.1 78.1773 1190.54 78.756 1195 78.75C1219.85 78.75 1240 61.1213 1240 39.375C1240 17.6288 1219.85 0 1195 0C1170.15 0 1150 17.6288 1150 39.375C1150 49.275 1154.18 58.3313 1161.08 65.25C1160.6 69.6943 1159.61 74.0689 1158.13 78.2888L1158.12 78.3506C1157.7 79.5593 1157.24 80.7542 1156.74 81.9338C1156.3 82.98 1157.16 84.15 1158.28 83.97C1159.58 83.7568 1160.88 83.5224 1162.18 83.2669Z" fill="#9BB8ED"/>
<path d="M1178.12 39.375C1178.12 40.8668 1177.53 42.2976 1176.48 43.3525C1175.42 44.4074 1173.99 45 1172.5 45C1171.01 45 1169.58 44.4074 1168.52 43.3525C1167.47 42.2976 1166.88 40.8668 1166.88 39.375C1166.88 37.8832 1167.47 36.4524 1168.52 35.3975C1169.58 34.3426 1171.01 33.75 1172.5 33.75C1173.99 33.75 1175.42 34.3426 1176.48 35.3975C1177.53 36.4524 1178.12 37.8832 1178.12 39.375V39.375ZM1200.62 39.375C1200.62 40.8668 1200.03 42.2976 1198.98 43.3525C1197.92 44.4074 1196.49 45 1195 45C1193.51 45 1192.08 44.4074 1191.02 43.3525C1189.97 42.2976 1189.38 40.8668 1189.38 39.375C1189.38 37.8832 1189.97 36.4524 1191.02 35.3975C1192.08 34.3426 1193.51 33.75 1195 33.75C1196.49 33.75 1197.92 34.3426 1198.98 35.3975C1200.03 36.4524 1200.62 37.8832 1200.62 39.375ZM1217.5 45C1218.99 45 1220.42 44.4074 1221.48 43.3525C1222.53 42.2976 1223.12 40.8668 1223.12 39.375C1223.12 37.8832 1222.53 36.4524 1221.48 35.3975C1220.42 34.3426 1218.99 33.75 1217.5 33.75C1216.01 33.75 1214.58 34.3426 1213.52 35.3975C1212.47 36.4524 1211.88 37.8832 1211.88 39.375C1211.88 40.8668 1212.47 42.2976 1213.52 43.3525C1214.58 44.4074 1216.01 45 1217.5 45V45Z" fill="black"/>
<path d="M1162.18 83.2669L1162.29 83.2444C1172.58 81.2025 1178.87 78.5081 1181.8 77.0288C1186.1 78.1773 1190.54 78.756 1195 78.75C1219.85 78.75 1240 61.1213 1240 39.375C1240 17.6288 1219.85 0 1195 0C1170.15 0 1150 17.6288 1150 39.375C1150 49.275 1154.18 58.3313 1161.08 65.25C1160.6 69.6943 1159.61 74.0689 1158.13 78.2888L1158.12 78.3506C1157.7 79.5593 1157.24 80.7542 1156.74 81.9338C1156.3 82.98 1157.16 84.15 1158.28 83.97C1159.58 83.7568 1160.88 83.5224 1162.18 83.2669V83.2669ZM1166.68 65.7844C1166.76 64.9609 1166.65 64.1301 1166.37 63.3513C1166.1 62.5725 1165.65 61.8648 1165.06 61.2788C1159.1 55.2938 1155.62 47.6325 1155.62 39.375C1155.62 21.42 1172.52 5.625 1195 5.625C1217.48 5.625 1234.38 21.42 1234.38 39.375C1234.38 57.3356 1217.48 73.125 1195 73.125C1191.03 73.1308 1187.09 72.6164 1183.26 71.595C1181.92 71.2363 1180.49 71.3845 1179.26 72.0113C1177.08 73.1138 1172.28 75.2175 1164.44 77.0344C1165.53 73.362 1166.28 69.5958 1166.68 65.7844V65.7844Z" fill="black"/>
</g>
<path d="M38 178C48.0782 178 57.7437 173.996 64.8701 166.87C71.9964 159.744 76 150.078 76 140C76 129.922 71.9964 120.256 64.8701 113.13C57.7437 106.004 48.0782 102 38 102C27.9218 102 18.2563 106.004 11.1299 113.13C4.00356 120.256 0 129.922 0 140C0 150.078 4.00356 159.744 11.1299 166.87C18.2563 173.996 27.9218 178 38 178Z" fill="#FFF3C8"/>
<path d="M38 173.25C29.1816 173.25 20.7243 169.747 14.4887 163.511C8.25311 157.276 4.75 148.818 4.75 140C4.75 131.182 8.25311 122.724 14.4887 116.489C20.7243 110.253 29.1816 106.75 38 106.75C46.8184 106.75 55.2757 110.253 61.5113 116.489C67.7469 122.724 71.25 131.182 71.25 140C71.25 148.818 67.7469 157.276 61.5113 163.511C55.2757 169.747 46.8184 173.25 38 173.25ZM38 178C48.0782 178 57.7437 173.996 64.8701 166.87C71.9964 159.744 76 150.078 76 140C76 129.922 71.9964 120.256 64.8701 113.13C57.7437 106.004 48.0782 102 38 102C27.9218 102 18.2563 106.004 11.1299 113.13C4.00356 120.256 0 129.922 0 140C0 150.078 4.00356 159.744 11.1299 166.87C18.2563 173.996 27.9218 178 38 178V178Z" fill="#212529"/>
<path d="M20.3544 147.443C20.8999 147.128 21.5482 147.043 22.1566 147.206C22.765 147.369 23.2837 147.767 23.5987 148.312C25.0575 150.841 27.1567 152.941 29.685 154.4C32.2133 155.859 35.0815 156.627 38.0007 156.625C40.9199 156.627 43.7881 155.859 46.3164 154.4C48.8447 152.941 50.9439 150.841 52.4027 148.312C52.5575 148.04 52.7646 147.801 53.0122 147.609C53.2597 147.417 53.5428 147.276 53.845 147.194C54.1473 147.112 54.4628 147.091 54.7734 147.131C55.084 147.172 55.3836 147.273 55.6548 147.43C55.9261 147.586 56.1637 147.795 56.3539 148.044C56.5442 148.293 56.6834 148.576 56.7634 148.879C56.8435 149.182 56.8628 149.498 56.8204 149.808C56.778 150.118 56.6746 150.417 56.5162 150.688C54.6405 153.938 51.9417 156.637 48.6913 158.514C45.4409 160.39 41.7537 161.377 38.0007 161.375C34.2477 161.377 30.5604 160.39 27.3101 158.514C24.0597 156.637 21.3608 153.938 19.4852 150.688C19.1702 150.142 19.0849 149.494 19.2479 148.885C19.4109 148.277 19.809 147.758 20.3544 147.443ZM33.2507 132.875C33.2507 136.808 31.1227 140 28.5007 140C25.8787 140 23.7507 136.808 23.7507 132.875C23.7507 128.942 25.8787 125.75 28.5007 125.75C31.1227 125.75 33.2507 128.942 33.2507 132.875ZM41.5964 130.799C41.869 130.648 42.1688 130.551 42.4786 130.516C42.7885 130.48 43.1023 130.505 43.4023 130.591C43.7022 130.677 43.9824 130.82 44.2267 131.014C44.4711 131.208 44.6749 131.448 44.8264 131.721C45.2015 132.421 45.7577 133.008 46.437 133.42C47.1163 133.832 47.8938 134.054 48.6882 134.062C50.2984 134.062 51.7519 133.16 52.5499 131.721C52.8561 131.17 53.3683 130.764 53.9741 130.591C54.5798 130.418 55.2294 130.493 55.7799 130.799C56.3305 131.105 56.7368 131.618 56.9096 132.223C57.0824 132.829 57.0076 133.479 56.7014 134.029C55.9148 135.47 54.7567 136.673 53.3474 137.514C51.9382 138.355 50.3294 138.804 48.6882 138.812C45.2207 138.812 42.2472 136.856 40.6749 134.029C40.5233 133.757 40.4269 133.457 40.3912 133.147C40.3555 132.837 40.3811 132.523 40.4667 132.223C40.5523 131.923 40.6961 131.643 40.8899 131.399C41.0838 131.155 41.3238 130.951 41.5964 130.799V130.799Z" fill="#212529"/>
<defs>
<filter id="filter0_d_59_415" x="106.702" y="17.8196" width="44.9622" height="55.4846" filterUnits="userSpaceOnUse" color-interpolation-filters="sRGB">
<feFlood flood-opacity="0" result="BackgroundImageFix"/>
<feColorMatrix in="SourceAlpha" type="matrix" values="0 0 0 0 0 0 0 0 0 0 0 0 0 0 0 0 0 0 127 0" result="hardAlpha"/>
<feOffset dx="2" dy="2"/>
<feComposite in2="hardAlpha" operator="out"/>
<feColorMatrix type="matrix" values="0 0 0 0 0 0 0 0 0 0 0 0 0 0 0 0 0 0 1 0"/>
<feBlend mode="normal" in2="BackgroundImageFix" result="effect1_dropShadow_59_415"/>
<feBlend mode="normal" in="SourceGraphic" in2="effect1_dropShadow_59_415" result="shape"/>
</filter>
<filter id="filter1_d_59_415" x="1150" y="0" width="94" height="87.9885" filterUnits="userSpaceOnUse" color-interpolation-filters="sRGB">
<feFlood flood-opacity="0" result="BackgroundImageFix"/>
<feColorMatrix in="SourceAlpha" type="matrix" values="0 0 0 0 0 0 0 0 0 0 0 0 0 0 0 0 0 0 127 0" result="hardAlpha"/>
<feOffset dx="4" dy="4"/>
<feComposite in2="hardAlpha" operator="out"/>
<feColorMatrix type="matrix" values="0 0 0 0 0 0 0 0 0 0 0 0 0 0 0 0 0 0 1 0"/>
<feBlend mode="normal" in2="BackgroundImageFix" result="effect1_dropShadow_59_415"/>
<feBlend mode="normal" in="SourceGraphic" in2="effect1_dropShadow_59_415" result="shape"/>
</filter>
</defs>
</svg>
