<svg width="102" height="42" viewBox="0 0 102 42" fill="none" xmlns="http://www.w3.org/2000/svg">
<path d="M24.12 19.514C23.9707 18.8047 23.6393 18.2727 23.126 17.918C22.622 17.5633 22.02 17.386 21.32 17.386C20.7227 17.386 20.2093 17.498 19.78 17.722C19.36 17.946 19.01 18.2493 18.73 18.632C18.4593 19.0053 18.2587 19.4347 18.128 19.92C17.9973 20.4053 17.932 20.9093 17.932 21.432C17.932 22.0013 17.9973 22.5427 18.128 23.056C18.2587 23.56 18.4593 24.0033 18.73 24.386C19.01 24.7593 19.3647 25.058 19.794 25.282C20.2233 25.506 20.7367 25.618 21.334 25.618C21.7727 25.618 22.16 25.548 22.496 25.408C22.8413 25.2587 23.1353 25.058 23.378 24.806C23.63 24.5447 23.826 24.2367 23.966 23.882C24.106 23.5273 24.19 23.1447 24.218 22.734H25.548C25.4173 23.994 24.9833 24.974 24.246 25.674C23.5087 26.374 22.5007 26.724 21.222 26.724C20.4473 26.724 19.7707 26.5933 19.192 26.332C18.6133 26.0613 18.1327 25.6927 17.75 25.226C17.3673 24.7593 17.078 24.2087 16.882 23.574C16.6953 22.9393 16.602 22.258 16.602 21.53C16.602 20.802 16.7047 20.1207 16.91 19.486C17.1153 18.842 17.414 18.282 17.806 17.806C18.2073 17.33 18.702 16.9567 19.29 16.686C19.8873 16.406 20.5687 16.266 21.334 16.266C21.8567 16.266 22.3513 16.336 22.818 16.476C23.2847 16.616 23.7 16.8213 24.064 17.092C24.428 17.3627 24.7313 17.7033 24.974 18.114C25.2167 18.5153 25.3753 18.982 25.45 19.514H24.12ZM33.4115 26.472C33.2062 26.5933 32.9215 26.654 32.5575 26.654C32.2495 26.654 32.0022 26.57 31.8155 26.402C31.6382 26.2247 31.5495 25.94 31.5495 25.548C31.2228 25.94 30.8402 26.2247 30.4015 26.402C29.9722 26.57 29.5055 26.654 29.0015 26.654C28.6748 26.654 28.3622 26.6167 28.0635 26.542C27.7742 26.4673 27.5222 26.3507 27.3075 26.192C27.0928 26.0333 26.9202 25.828 26.7895 25.576C26.6682 25.3147 26.6075 25.002 26.6075 24.638C26.6075 24.2273 26.6775 23.8913 26.8175 23.63C26.9575 23.3687 27.1395 23.1587 27.3635 23C27.5968 22.832 27.8582 22.706 28.1475 22.622C28.4462 22.538 28.7495 22.468 29.0575 22.412C29.3842 22.3467 29.6922 22.3 29.9815 22.272C30.2802 22.2347 30.5415 22.188 30.7655 22.132C30.9895 22.0667 31.1668 21.978 31.2975 21.866C31.4282 21.7447 31.4935 21.572 31.4935 21.348C31.4935 21.0867 31.4422 20.8767 31.3395 20.718C31.2462 20.5593 31.1202 20.438 30.9615 20.354C30.8122 20.27 30.6395 20.214 30.4435 20.186C30.2568 20.158 30.0702 20.144 29.8835 20.144C29.3795 20.144 28.9595 20.242 28.6235 20.438C28.2875 20.6247 28.1055 20.984 28.0775 21.516H26.8875C26.9062 21.068 26.9995 20.69 27.1675 20.382C27.3355 20.074 27.5595 19.8267 27.8395 19.64C28.1195 19.444 28.4368 19.304 28.7915 19.22C29.1555 19.136 29.5428 19.094 29.9535 19.094C30.2802 19.094 30.6022 19.1173 30.9195 19.164C31.2462 19.2107 31.5402 19.3087 31.8015 19.458C32.0628 19.598 32.2728 19.7987 32.4315 20.06C32.5902 20.3213 32.6695 20.662 32.6695 21.082V24.806C32.6695 25.086 32.6835 25.2913 32.7115 25.422C32.7488 25.5527 32.8608 25.618 33.0475 25.618C33.1502 25.618 33.2715 25.5947 33.4115 25.548V26.472ZM31.4795 22.762C31.3302 22.874 31.1342 22.958 30.8915 23.014C30.6488 23.0607 30.3922 23.1027 30.1215 23.14C29.8602 23.168 29.5942 23.2053 29.3235 23.252C29.0528 23.2893 28.8102 23.3547 28.5955 23.448C28.3808 23.5413 28.2035 23.6767 28.0635 23.854C27.9328 24.022 27.8675 24.2553 27.8675 24.554C27.8675 24.75 27.9048 24.918 27.9795 25.058C28.0635 25.1887 28.1662 25.296 28.2875 25.38C28.4182 25.464 28.5675 25.5247 28.7355 25.562C28.9035 25.5993 29.0808 25.618 29.2675 25.618C29.6595 25.618 29.9955 25.5667 30.2755 25.464C30.5555 25.352 30.7842 25.2167 30.9615 25.058C31.1388 24.89 31.2695 24.7127 31.3535 24.526C31.4375 24.33 31.4795 24.148 31.4795 23.98V22.762ZM34.519 19.262H35.639V20.41H35.667C36.1617 19.5327 36.9457 19.094 38.019 19.094C38.495 19.094 38.8917 19.1593 39.209 19.29C39.5264 19.4207 39.783 19.6027 39.979 19.836C40.175 20.0693 40.3104 20.3493 40.385 20.676C40.469 20.9933 40.511 21.348 40.511 21.74V26.5H39.321V21.6C39.321 21.152 39.1904 20.7973 38.929 20.536C38.6677 20.2747 38.3084 20.144 37.851 20.144C37.487 20.144 37.1697 20.2 36.899 20.312C36.6377 20.424 36.4184 20.5827 36.241 20.788C36.0637 20.9933 35.9284 21.236 35.835 21.516C35.751 21.7867 35.709 22.0853 35.709 22.412V26.5H34.519V19.262ZM47.2123 21.586C47.119 21.1287 46.923 20.774 46.6243 20.522C46.3257 20.27 45.9243 20.144 45.4203 20.144C44.991 20.144 44.6317 20.2233 44.3423 20.382C44.053 20.5407 43.8197 20.7507 43.6423 21.012C43.4743 21.2733 43.353 21.5767 43.2783 21.922C43.2037 22.258 43.1663 22.608 43.1663 22.972C43.1663 23.308 43.2037 23.6347 43.2783 23.952C43.3623 24.2693 43.4883 24.554 43.6563 24.806C43.8243 25.0487 44.0437 25.2447 44.3143 25.394C44.585 25.5433 44.907 25.618 45.2803 25.618C45.8683 25.618 46.3257 25.464 46.6523 25.156C46.9883 24.848 47.1937 24.414 47.2683 23.854H48.4863C48.3557 24.75 48.0197 25.4407 47.4783 25.926C46.9463 26.4113 46.2183 26.654 45.2943 26.654C44.7437 26.654 44.2537 26.5653 43.8243 26.388C43.4043 26.2107 43.0497 25.9587 42.7603 25.632C42.4803 25.3053 42.2657 24.918 42.1163 24.47C41.9763 24.0127 41.9063 23.5133 41.9063 22.972C41.9063 22.4307 41.9763 21.9267 42.1163 21.46C42.2563 20.984 42.4663 20.5733 42.7463 20.228C43.0357 19.8733 43.395 19.598 43.8243 19.402C44.2537 19.1967 44.753 19.094 45.3223 19.094C45.733 19.094 46.1157 19.1453 46.4703 19.248C46.8343 19.3413 47.1517 19.4907 47.4223 19.696C47.7023 19.9013 47.931 20.1627 48.1083 20.48C48.2857 20.788 48.3977 21.1567 48.4443 21.586H47.2123ZM54.8439 22.188C54.8252 21.908 54.7599 21.642 54.6479 21.39C54.5452 21.138 54.4005 20.9233 54.2139 20.746C54.0365 20.5593 53.8219 20.4147 53.5699 20.312C53.3272 20.2 53.0565 20.144 52.7579 20.144C52.4499 20.144 52.1699 20.2 51.9179 20.312C51.6752 20.4147 51.4652 20.5593 51.2879 20.746C51.1105 20.9327 50.9705 21.152 50.8679 21.404C50.7652 21.6467 50.7045 21.908 50.6859 22.188H54.8439ZM55.9919 24.204C55.8332 25.016 55.4832 25.6273 54.9419 26.038C54.4005 26.4487 53.7192 26.654 52.8979 26.654C52.3192 26.654 51.8152 26.5607 51.3859 26.374C50.9659 26.1873 50.6112 25.926 50.3219 25.59C50.0325 25.254 49.8132 24.8527 49.6639 24.386C49.5239 23.9193 49.4445 23.4107 49.4259 22.86C49.4259 22.3093 49.5099 21.8053 49.6779 21.348C49.8459 20.8907 50.0792 20.494 50.3779 20.158C50.6859 19.822 51.0452 19.5607 51.4559 19.374C51.8759 19.1873 52.3332 19.094 52.8279 19.094C53.4719 19.094 54.0039 19.2293 54.4239 19.5C54.8532 19.7613 55.1939 20.0973 55.4459 20.508C55.7072 20.9187 55.8845 21.3667 55.9779 21.852C56.0805 22.3373 56.1225 22.7993 56.1039 23.238H50.6859C50.6765 23.5553 50.7139 23.8587 50.7979 24.148C50.8819 24.428 51.0172 24.68 51.2039 24.904C51.3905 25.1187 51.6285 25.2913 51.9179 25.422C52.2072 25.5527 52.5479 25.618 52.9399 25.618C53.4439 25.618 53.8545 25.5013 54.1719 25.268C54.4985 25.0347 54.7132 24.68 54.8159 24.204H55.9919ZM57.4074 16.504H58.5974V26.5H57.4074V16.504Z" fill="#154BD8"/>
<g clip-path="url(#clip0_361_13149)">
<path d="M78 28C76.1435 28 74.363 27.2625 73.0503 25.9497C71.7375 24.637 71 22.8565 71 21C71 19.1435 71.7375 17.363 73.0503 16.0503C74.363 14.7375 76.1435 14 78 14C79.8565 14 81.637 14.7375 82.9497 16.0503C84.2625 17.363 85 19.1435 85 21C85 22.8565 84.2625 24.637 82.9497 25.9497C81.637 27.2625 79.8565 28 78 28ZM78 29C80.1217 29 82.1566 28.1571 83.6569 26.6569C85.1571 25.1566 86 23.1217 86 21C86 18.8783 85.1571 16.8434 83.6569 15.3431C82.1566 13.8429 80.1217 13 78 13C75.8783 13 73.8434 13.8429 72.3431 15.3431C70.8429 16.8434 70 18.8783 70 21C70 23.1217 70.8429 25.1566 72.3431 26.6569C73.8434 28.1571 75.8783 29 78 29Z" fill="#154BD8"/>
<path d="M74.6469 17.6469C74.6933 17.6003 74.7485 17.5634 74.8093 17.5382C74.87 17.513 74.9351 17.5 75.0009 17.5C75.0667 17.5 75.1318 17.513 75.1925 17.5382C75.2533 17.5634 75.3084 17.6003 75.3549 17.6469L78.0009 20.2939L80.6469 17.6469C80.6934 17.6004 80.7486 17.5635 80.8093 17.5384C80.87 17.5132 80.9351 17.5003 81.0009 17.5003C81.0666 17.5003 81.1317 17.5132 81.1925 17.5384C81.2532 17.5635 81.3084 17.6004 81.3549 17.6469C81.4014 17.6934 81.4383 17.7486 81.4634 17.8093C81.4886 17.87 81.5015 17.9351 81.5015 18.0009C81.5015 18.0666 81.4886 18.1317 81.4634 18.1925C81.4383 18.2532 81.4014 18.3084 81.3549 18.3549L78.7079 21.0009L81.3549 23.6469C81.4014 23.6934 81.4383 23.7486 81.4634 23.8093C81.4886 23.87 81.5015 23.9351 81.5015 24.0009C81.5015 24.0666 81.4886 24.1317 81.4634 24.1925C81.4383 24.2532 81.4014 24.3084 81.3549 24.3549C81.3084 24.4014 81.2532 24.4383 81.1925 24.4634C81.1317 24.4886 81.0666 24.5015 81.0009 24.5015C80.9351 24.5015 80.87 24.4886 80.8093 24.4634C80.7486 24.4383 80.6934 24.4014 80.6469 24.3549L78.0009 21.7079L75.3549 24.3549C75.3084 24.4014 75.2532 24.4383 75.1925 24.4634C75.1317 24.4886 75.0666 24.5015 75.0009 24.5015C74.9351 24.5015 74.87 24.4886 74.8093 24.4634C74.7486 24.4383 74.6934 24.4014 74.6469 24.3549C74.6004 24.3084 74.5635 24.2532 74.5384 24.1925C74.5132 24.1317 74.5003 24.0666 74.5003 24.0009C74.5003 23.9351 74.5132 23.87 74.5384 23.8093C74.5635 23.7486 74.6004 23.6934 74.6469 23.6469L77.2939 21.0009L74.6469 18.3549C74.6003 18.3084 74.5634 18.2533 74.5382 18.1925C74.513 18.1318 74.5 18.0667 74.5 18.0009C74.5 17.9351 74.513 17.87 74.5382 17.8093C74.5634 17.7485 74.6003 17.6933 74.6469 17.6469Z" fill="#154BD8"/>
</g>
<defs>
<clipPath id="clip0_361_13149">
<rect width="16" height="16" fill="white" transform="translate(70 13)"/>
</clipPath>
</defs>
</svg>
