<svg width="16" height="16" viewBox="0 0 16 16" fill="none" xmlns="http://www.w3.org/2000/svg">
<g clip-path="url(#clip0_1294_8327)">
<path d="M8 15C6.14348 15 4.36301 14.2625 3.05025 12.9497C1.7375 11.637 1 9.85652 1 8C1 6.14348 1.7375 4.36301 3.05025 3.05025C4.36301 1.7375 6.14348 1 8 1C9.85652 1 11.637 1.7375 12.9497 3.05025C14.2625 4.36301 15 6.14348 15 8C15 9.85652 14.2625 11.637 12.9497 12.9497C11.637 14.2625 9.85652 15 8 15ZM8 16C10.1217 16 12.1566 15.1571 13.6569 13.6569C15.1571 12.1566 16 10.1217 16 8C16 5.87827 15.1571 3.84344 13.6569 2.34315C12.1566 0.842855 10.1217 0 8 0C5.87827 0 3.84344 0.842855 2.34315 2.34315C0.842855 3.84344 0 5.87827 0 8C0 10.1217 0.842855 12.1566 2.34315 13.6569C3.84344 15.1571 5.87827 16 8 16Z" fill="#154BD8"/>
<path d="M10.9703 4.9693C10.9632 4.97621 10.9565 4.98356 10.9503 4.9913L7.47734 9.4163L5.38434 7.3223C5.24216 7.18982 5.05412 7.1177 4.85982 7.12113C4.66551 7.12456 4.48013 7.20327 4.34272 7.34068C4.2053 7.4781 4.12659 7.66348 4.12316 7.85778C4.11974 8.05208 4.19186 8.24013 4.32434 8.3823L6.97034 11.0293C7.04162 11.1005 7.1265 11.1565 7.21992 11.1942C7.31334 11.2318 7.41339 11.2502 7.51408 11.2484C7.61478 11.2465 7.71407 11.2244 7.80604 11.1833C7.898 11.1422 7.98074 11.083 8.04934 11.0093L12.0413 6.0193C12.1773 5.87663 12.2516 5.6862 12.2482 5.48917C12.2449 5.29214 12.1641 5.10435 12.0234 4.9664C11.8827 4.82844 11.6933 4.75141 11.4963 4.75196C11.2992 4.7525 11.1103 4.83058 10.9703 4.9693Z" fill="#154BD8"/>
</g>
<defs>
<clipPath id="clip0_1294_8327">
<rect width="16" height="16" fill="white"/>
</clipPath>
</defs>
</svg>
