<svg width="16" height="17" viewBox="0 0 16 17" fill="none" xmlns="http://www.w3.org/2000/svg">
<g clip-path="url(#clip0_1294_8428)">
<path d="M8.515 1.519C8.34363 1.50635 8.17184 1.50001 8 1.5V0.5C8.19654 0.500096 8.393 0.507434 8.589 0.522L8.515 1.519ZM10.519 1.969C10.1984 1.8453 9.86922 1.74537 9.534 1.67L9.753 0.694C10.136 0.78 10.513 0.894 10.879 1.036L10.519 1.969ZM11.889 2.679C11.746 2.58365 11.5996 2.49359 11.45 2.409L11.943 1.539C12.2849 1.73274 12.6121 1.95132 12.922 2.193L12.307 2.982C12.1714 2.87623 12.032 2.7755 11.889 2.68V2.679ZM13.723 4.469C13.5252 4.18798 13.3069 3.92192 13.07 3.673L13.794 2.983C14.064 3.268 14.314 3.573 14.541 3.893L13.723 4.469ZM14.467 5.821C14.4014 5.66246 14.33 5.50636 14.253 5.353L15.146 4.903C15.3226 5.25409 15.473 5.61774 15.596 5.991L14.646 6.304C14.5923 6.14087 14.5326 5.97976 14.467 5.821ZM14.997 8.328C14.9889 7.98434 14.9555 7.64174 14.897 7.303L15.882 7.133C15.949 7.519 15.988 7.911 15.998 8.303L14.998 8.328H14.997ZM14.866 9.866C14.899 9.696 14.926 9.527 14.947 9.356L15.94 9.479C15.892 9.86915 15.8151 10.2552 15.71 10.634L14.746 10.367C14.792 10.202 14.832 10.035 14.866 9.866ZM13.914 12.245C14.098 11.955 14.26 11.651 14.4 11.337L15.314 11.742C15.154 12.102 14.969 12.448 14.759 12.78L13.914 12.245ZM12.95 13.45C13.072 13.328 13.189 13.202 13.3 13.072L14.058 13.725C13.9296 13.8738 13.7959 14.0179 13.657 14.157L12.95 13.45Z" fill="#D88A15"/>
<path d="M7.99922 1.5C6.8481 1.50008 5.71476 1.78405 4.6996 2.32674C3.68443 2.86943 2.81876 3.6541 2.17927 4.61125C1.53979 5.5684 1.14621 6.66848 1.03341 7.81406C0.920612 8.95964 1.09207 10.1154 1.53259 11.1789C1.97312 12.2423 2.66912 13.1808 3.55894 13.9111C4.44877 14.6413 5.50495 15.1409 6.63395 15.3655C7.76295 15.5901 8.92991 15.5328 10.0315 15.1987C11.133 14.8645 12.1352 14.2639 12.9492 13.45L13.6562 14.157C12.726 15.0878 11.5805 15.7747 10.3213 16.157C9.06205 16.5393 7.72799 16.605 6.43728 16.3485C5.14658 16.0919 3.93907 15.521 2.92177 14.6862C1.90446 13.8515 1.10875 12.7787 0.605152 11.5629C0.101551 10.3471 -0.0943961 9.02588 0.0346716 7.71627C0.163739 6.40666 0.613837 5.1491 1.34509 4.05502C2.07633 2.96094 3.06615 2.06411 4.22684 1.444C5.38754 0.823895 6.68326 0.499651 7.99922 0.5V1.5Z" fill="#D88A15"/>
<path d="M7.5 3.5C7.63261 3.5 7.75979 3.55268 7.85355 3.64645C7.94732 3.74021 8 3.86739 8 4V9.21L11.248 11.066C11.3598 11.1334 11.4408 11.2419 11.4736 11.3683C11.5065 11.4946 11.4886 11.6288 11.4238 11.7422C11.3591 11.8556 11.2525 11.9391 11.127 11.9749C11.0014 12.0108 10.8669 11.9961 10.752 11.934L7.252 9.934C7.17547 9.89029 7.11186 9.82712 7.06761 9.75091C7.02335 9.67469 7.00003 9.58813 7 9.5V4C7 3.86739 7.05268 3.74021 7.14645 3.64645C7.24021 3.55268 7.36739 3.5 7.5 3.5Z" fill="#D88A15"/>
</g>
<defs>
<clipPath id="clip0_1294_8428">
<rect width="16" height="16" fill="white" transform="translate(0 0.5)"/>
</clipPath>
</defs>
</svg>
