<svg width="20" height="21" viewBox="0 0 20 21" fill="none" xmlns="http://www.w3.org/2000/svg">
<g clip-path="url(#clip0_253_5996)">
<path d="M7.50195 7.375C7.50195 7.87228 7.30441 8.34919 6.95278 8.70083C6.60115 9.05246 6.12423 9.25 5.62695 9.25C5.12967 9.25 4.65276 9.05246 4.30113 8.70083C3.9495 8.34919 3.75195 7.87228 3.75195 7.375C3.75195 6.87772 3.9495 6.40081 4.30113 6.04917C4.65276 5.69754 5.12967 5.5 5.62695 5.5C6.12423 5.5 6.60115 5.69754 6.95278 6.04917C7.30441 6.40081 7.50195 6.87772 7.50195 7.375Z" fill="#676A6C"/>
<path d="M2.50195 1.75C1.83891 1.75 1.20303 2.01339 0.734186 2.48223C0.265345 2.95107 0.00195313 3.58696 0.00195312 4.25V16.75C0.00195313 17.413 0.265345 18.0489 0.734186 18.5178C1.20303 18.9866 1.83891 19.25 2.50195 19.25H17.502C18.165 19.25 18.8009 18.9866 19.2697 18.5178C19.7386 18.0489 20.002 17.413 20.002 16.75V4.25C20.002 3.58696 19.7386 2.95107 19.2697 2.48223C18.8009 2.01339 18.165 1.75 17.502 1.75H2.50195ZM17.502 3C17.8335 3 18.1514 3.1317 18.3858 3.36612C18.6203 3.60054 18.752 3.91848 18.752 4.25V12.375L14.0307 9.94125C13.9135 9.88253 13.7808 9.86216 13.6513 9.88302C13.5219 9.90388 13.4023 9.96492 13.3095 10.0575L8.67195 14.695L5.34695 12.48C5.2269 12.4001 5.08291 12.3641 4.93938 12.3783C4.79585 12.3924 4.66162 12.4557 4.55945 12.5575L1.25195 15.5V4.25C1.25195 3.91848 1.38365 3.60054 1.61807 3.36612C1.85249 3.1317 2.17043 3 2.50195 3H17.502Z" fill="#676A6C"/>
</g>
<defs>
<clipPath id="clip0_253_5996">
<rect width="20" height="20" fill="white" transform="translate(0 0.5)"/>
</clipPath>
</defs>
</svg>
