<svg width="16" height="17" viewBox="0 0 16 17" fill="none" xmlns="http://www.w3.org/2000/svg">
<path d="M4.7156 7.042L3.3436 8.414C2.78094 8.97666 2.46484 9.73978 2.46484 10.5355C2.46484 11.3312 2.78094 12.0943 3.3436 12.657C3.90625 13.2197 4.66938 13.5358 5.4651 13.5358C6.26081 13.5358 7.02394 13.2197 7.5866 12.657L9.4146 10.828C9.75389 10.4887 10.0068 10.0729 10.1522 9.61555C10.2975 9.15822 10.3311 8.6727 10.25 8.19974C10.1688 7.72677 9.97546 7.28016 9.68603 6.8974C9.3966 6.51464 9.01957 6.2069 8.5866 6L8.0006 6.586C7.94111 6.6456 7.88936 6.71246 7.8466 6.785C8.18112 6.88117 8.48476 7.06298 8.72749 7.31246C8.97022 7.56194 9.14364 7.87044 9.2306 8.20748C9.31756 8.54452 9.31505 8.89842 9.22333 9.23419C9.1316 9.56996 8.95384 9.87598 8.7076 10.122L6.8806 11.95C6.50532 12.3253 5.99633 12.5361 5.4656 12.5361C4.93487 12.5361 4.42588 12.3253 4.0506 11.95C3.67532 11.5747 3.46449 11.0657 3.46449 10.535C3.46449 10.0043 3.67532 9.49528 4.0506 9.12L4.8436 8.328C4.73171 7.90873 4.68849 7.4741 4.7156 7.041V7.042Z" fill="#154BD8"/>
<path d="M6.58556 5.17209C6.24627 5.51143 5.99333 5.92721 5.84797 6.38454C5.70261 6.84186 5.66909 7.32739 5.7502 7.80035C5.83131 8.27332 6.0247 8.71992 6.31413 9.10268C6.60356 9.48544 6.98059 9.79319 7.41356 10.0001L8.18856 9.22409C7.84951 9.13314 7.54036 8.95456 7.2922 8.70629C7.04403 8.45802 6.86557 8.1488 6.77477 7.80971C6.68397 7.47062 6.68402 7.1136 6.77491 6.77453C6.8658 6.43547 7.04433 6.12629 7.29256 5.87809L9.11956 4.05009C9.49484 3.6748 10.0038 3.46397 10.5346 3.46397C11.0653 3.46397 11.5743 3.6748 11.9496 4.05009C12.3248 4.42537 12.5357 4.93436 12.5357 5.46509C12.5357 5.99581 12.3248 6.5048 11.9496 6.88009L11.1566 7.67209C11.2686 8.09209 11.3116 8.52709 11.2846 8.95909L12.6566 7.58709C13.2192 7.02443 13.5353 6.2613 13.5353 5.46559C13.5353 4.66987 13.2192 3.90674 12.6566 3.34409C12.0939 2.78143 11.3308 2.46533 10.5351 2.46533C9.73934 2.46533 8.97622 2.78143 8.41356 3.34409L6.58556 5.17209Z" fill="#154BD8"/>
</svg>
