<svg width="16" height="16" viewBox="0 0 16 16" fill="none" xmlns="http://www.w3.org/2000/svg">
<g clip-path="url(#clip0_971_9991)">
<path d="M8.21052 2.04695C8.14443 2.01618 8.07242 2.00024 7.99952 2.00024C7.92663 2.00024 7.85461 2.01618 7.78852 2.04695L0.288523 5.54695C0.200205 5.58817 0.125861 5.65431 0.0746336 5.73722C0.0234063 5.82014 -0.0024704 5.91622 0.000185773 6.01365C0.00284195 6.11108 0.0339152 6.2056 0.0895841 6.28561C0.145253 6.36561 0.22309 6.4276 0.313523 6.46395L7.81352 9.46395C7.93291 9.51179 8.06614 9.51179 8.18552 9.46395L13.9995 7.13995V12.9999C13.7343 12.9999 13.48 13.1053 13.2924 13.2928C13.1049 13.4804 12.9995 13.7347 12.9995 13.9999V15.9999H15.9995V13.9999C15.9995 13.7347 15.8942 13.4804 15.7066 13.2928C15.5191 13.1053 15.2647 12.9999 14.9995 12.9999V6.73895L15.6855 6.46395C15.776 6.4276 15.8538 6.36561 15.9095 6.28561C15.9651 6.2056 15.9962 6.11108 15.9989 6.01365C16.0015 5.91622 15.9756 5.82014 15.9244 5.73722C15.8732 5.65431 15.7988 5.58817 15.7105 5.54695L8.21052 2.04695ZM7.99952 8.45995L1.75752 5.96495L7.99952 3.05195L14.2415 5.96495L7.99952 8.45995Z" fill="black"/>
<path d="M4.17623 9.0321C4.11185 9.00784 4.04315 8.99714 3.97444 9.00065C3.90573 9.00416 3.83848 9.02182 3.77691 9.05251C3.71533 9.08321 3.66075 9.12628 3.61659 9.17903C3.57242 9.23179 3.53962 9.29309 3.52023 9.3591L3.02023 11.0591C2.98521 11.1784 2.99593 11.3066 3.05029 11.4184C3.10465 11.5303 3.19876 11.6179 3.31423 11.6641L7.81423 13.4641C7.93362 13.5119 8.06685 13.5119 8.18623 13.4641L12.6862 11.6641C12.8017 11.6179 12.8958 11.5303 12.9502 11.4184C13.0045 11.3066 13.0153 11.1784 12.9802 11.0591L12.4802 9.3591C12.4608 9.29309 12.428 9.23179 12.3839 9.17903C12.3397 9.12628 12.2851 9.08321 12.2236 9.05251C12.162 9.02182 12.0947 9.00416 12.026 9.00065C11.9573 8.99714 11.8886 9.00784 11.8242 9.0321L8.00023 10.4661L4.17623 9.0321ZM4.10823 10.9051L4.32823 10.1571L7.82423 11.4681C7.93769 11.5108 8.06278 11.5108 8.17623 11.4681L11.6722 10.1571L11.8922 10.9051L8.00023 12.4601L4.10823 10.9041V10.9051Z" fill="#212529"/>
</g>
<defs>
<clipPath id="clip0_971_9991">
<rect width="16" height="16" fill="white"/>
</clipPath>
</defs>
</svg>
