<svg width="20" height="21" viewBox="0 0 20 21" fill="none" xmlns="http://www.w3.org/2000/svg">
<path d="M5.625 4.25C5.625 3.4212 5.95424 2.62634 6.54029 2.04029C7.12634 1.45424 7.9212 1.125 8.75 1.125C9.5788 1.125 10.3737 1.45424 10.9597 2.04029C11.5458 2.62634 11.875 3.4212 11.875 4.25V15.5C11.875 15.9973 11.6775 16.4742 11.3258 16.8258C10.9742 17.1775 10.4973 17.375 10 17.375C9.50272 17.375 9.02581 17.1775 8.67417 16.8258C8.32254 16.4742 8.125 15.9973 8.125 15.5V6.75C8.125 6.58424 8.19085 6.42527 8.30806 6.30806C8.42527 6.19085 8.58424 6.125 8.75 6.125C8.91576 6.125 9.07473 6.19085 9.19194 6.30806C9.30915 6.42527 9.375 6.58424 9.375 6.75V15.5C9.375 15.6658 9.44085 15.8247 9.55806 15.9419C9.67527 16.0592 9.83424 16.125 10 16.125C10.1658 16.125 10.3247 16.0592 10.4419 15.9419C10.5592 15.8247 10.625 15.6658 10.625 15.5V4.25C10.625 4.00377 10.5765 3.75995 10.4823 3.53247C10.388 3.30498 10.2499 3.09828 10.0758 2.92417C9.90172 2.75006 9.69502 2.61195 9.46753 2.51773C9.24005 2.4235 8.99623 2.375 8.75 2.375C8.50377 2.375 8.25995 2.4235 8.03247 2.51773C7.80498 2.61195 7.59828 2.75006 7.42417 2.92417C7.25006 3.09828 7.11195 3.30498 7.01773 3.53247C6.9235 3.75995 6.875 4.00377 6.875 4.25V15.5C6.875 16.3288 7.20424 17.1237 7.79029 17.7097C8.37634 18.2958 9.1712 18.625 10 18.625C10.8288 18.625 11.6237 18.2958 12.2097 17.7097C12.7958 17.1237 13.125 16.3288 13.125 15.5V6.75C13.125 6.58424 13.1908 6.42527 13.3081 6.30806C13.4253 6.19085 13.5842 6.125 13.75 6.125C13.9158 6.125 14.0747 6.19085 14.1919 6.30806C14.3092 6.42527 14.375 6.58424 14.375 6.75V15.5C14.375 16.6603 13.9141 17.7731 13.0936 18.5936C12.2731 19.4141 11.1603 19.875 10 19.875C8.83968 19.875 7.72688 19.4141 6.90641 18.5936C6.08594 17.7731 5.625 16.6603 5.625 15.5V4.25Z" fill="#676A6C"/>
</svg>
