<svg width="16" height="16" viewBox="0 0 16 16" fill="none" xmlns="http://www.w3.org/2000/svg">
<g clip-path="url(#clip0_197_4613)">
<path d="M15.9647 0.68605C16.0011 0.595186 16.01 0.495646 15.9904 0.39977C15.9707 0.303893 15.9233 0.215897 15.8541 0.146691C15.7849 0.0774845 15.6969 0.030111 15.601 0.0104435C15.5052 -0.00922396 15.4056 -0.000320453 15.3147 0.0360502L0.76775 5.85505H0.76675L0.31475 6.03505C0.22914 6.0692 0.154635 6.12635 0.0994654 6.20018C0.0442956 6.27401 0.0106078 6.36166 0.00212322 6.45344C-0.00636132 6.54522 0.0106876 6.63755 0.0513867 6.72025C0.0920859 6.80295 0.154851 6.87279 0.23275 6.92205L0.64275 7.18205L0.64375 7.18405L5.63875 10.3621L8.81675 15.3571L8.81875 15.3591L9.07875 15.7691C9.12817 15.8466 9.19805 15.9091 9.28068 15.9495C9.36332 15.99 9.45551 16.0068 9.54711 15.9983C9.63871 15.9897 9.72617 15.956 9.79985 15.9009C9.87354 15.8458 9.9306 15.7715 9.96475 15.6861L15.9647 0.68605ZM14.1317 2.57605L6.63775 10.0701L6.42275 9.73205C6.38336 9.67003 6.33078 9.61744 6.26875 9.57805L5.93075 9.36305L13.4247 1.86905L14.6027 1.39805L14.1327 2.57605H14.1317Z" fill="#676A6C"/>
</g>
<defs>
<clipPath id="clip0_197_4613">
<rect width="16" height="16" fill="white"/>
</clipPath>
</defs>
</svg>
