<svg width="17" height="16" viewBox="0 0 17 16" fill="none" xmlns="http://www.w3.org/2000/svg">
<path fill-rule="evenodd" clip-rule="evenodd" d="M14.4999 2.5C14.4999 2.36739 14.4472 2.24021 14.3535 2.14645C14.2597 2.05268 14.1325 2 13.9999 2H7.9999C7.86729 2 7.74011 2.05268 7.64635 2.14645C7.55258 2.24021 7.4999 2.36739 7.4999 2.5C7.4999 2.63261 7.55258 2.75979 7.64635 2.85355C7.74011 2.94732 7.86729 3 7.9999 3H12.7929L2.6459 13.146C2.59941 13.1925 2.56254 13.2477 2.53738 13.3084C2.51222 13.3692 2.49927 13.4343 2.49927 13.5C2.49927 13.5657 2.51222 13.6308 2.53738 13.6916C2.56254 13.7523 2.59941 13.8075 2.6459 13.854C2.69239 13.9005 2.74758 13.9374 2.80832 13.9625C2.86906 13.9877 2.93416 14.0006 2.9999 14.0006C3.06564 14.0006 3.13074 13.9877 3.19148 13.9625C3.25222 13.9374 3.30741 13.9005 3.3539 13.854L13.4999 3.707V8.5C13.4999 8.63261 13.5526 8.75979 13.6463 8.85355C13.7401 8.94732 13.8673 9 13.9999 9C14.1325 9 14.2597 8.94732 14.3535 8.85355C14.4472 8.75979 14.4999 8.63261 14.4999 8.5V2.5Z" fill="black"/>
</svg>
