<svg width="16" height="17" viewBox="0 0 16 17" fill="none" xmlns="http://www.w3.org/2000/svg">
<path d="M4.64592 5.14604C4.69236 5.09948 4.74754 5.06253 4.80828 5.03733C4.86903 5.01212 4.93415 4.99915 4.99992 4.99915C5.06568 4.99915 5.13081 5.01212 5.19155 5.03733C5.2523 5.06253 5.30747 5.09948 5.35392 5.14604L7.99992 7.79304L10.6459 5.14604C10.6924 5.09955 10.7476 5.06267 10.8083 5.03752C10.8691 5.01236 10.9342 4.99941 10.9999 4.99941C11.0657 4.99941 11.1308 5.01236 11.1915 5.03752C11.2522 5.06267 11.3074 5.09955 11.3539 5.14604C11.4004 5.19253 11.4373 5.24772 11.4624 5.30846C11.4876 5.36919 11.5005 5.4343 11.5005 5.50004C11.5005 5.56578 11.4876 5.63088 11.4624 5.69162C11.4373 5.75236 11.4004 5.80755 11.3539 5.85404L8.70692 8.50004L11.3539 11.146C11.4004 11.1925 11.4373 11.2477 11.4624 11.3085C11.4876 11.3692 11.5005 11.4343 11.5005 11.5C11.5005 11.5658 11.4876 11.6309 11.4624 11.6916C11.4373 11.7524 11.4004 11.8076 11.3539 11.854C11.3074 11.9005 11.2522 11.9374 11.1915 11.9626C11.1308 11.9877 11.0657 12.0007 10.9999 12.0007C10.9342 12.0007 10.8691 11.9877 10.8083 11.9626C10.7476 11.9374 10.6924 11.9005 10.6459 11.854L7.99992 9.20704L5.35392 11.854C5.30743 11.9005 5.25224 11.9374 5.1915 11.9626C5.13076 11.9877 5.06566 12.0007 4.99992 12.0007C4.93417 12.0007 4.86907 11.9877 4.80833 11.9626C4.74759 11.9374 4.6924 11.9005 4.64592 11.854C4.59943 11.8076 4.56255 11.7524 4.53739 11.6916C4.51223 11.6309 4.49929 11.5658 4.49929 11.5C4.49929 11.4343 4.51223 11.3692 4.53739 11.3085C4.56255 11.2477 4.59943 11.1925 4.64592 11.146L7.29292 8.50004L4.64592 5.85404C4.59935 5.80759 4.56241 5.75242 4.5372 5.69167C4.512 5.63093 4.49902 5.56581 4.49902 5.50004C4.49902 5.43427 4.512 5.36915 4.5372 5.30841C4.56241 5.24766 4.59935 5.19248 4.64592 5.14604Z" fill="black"/>
</svg>
