<svg width="24" height="25" viewBox="0 0 24 25" fill="none" xmlns="http://www.w3.org/2000/svg">
<path d="M0 6.375C0 5.57935 0.316071 4.81629 0.87868 4.25368C1.44129 3.69107 2.20435 3.375 3 3.375H21C21.7956 3.375 22.5587 3.69107 23.1213 4.25368C23.6839 4.81629 24 5.57935 24 6.375V18.375C24 19.1706 23.6839 19.9337 23.1213 20.4963C22.5587 21.0589 21.7956 21.375 21 21.375H3C2.20435 21.375 1.44129 21.0589 0.87868 20.4963C0.316071 19.9337 0 19.1706 0 18.375V6.375ZM3 4.875C2.60218 4.875 2.22064 5.03304 1.93934 5.31434C1.65804 5.59564 1.5 5.97718 1.5 6.375V6.7005L12 13.0005L22.5 6.7005V6.375C22.5 5.97718 22.342 5.59564 22.0607 5.31434C21.7794 5.03304 21.3978 4.875 21 4.875H3ZM22.5 8.4495L15.438 12.687L22.5 17.0325V8.4495ZM22.449 18.7635L13.989 13.557L12 14.7495L10.011 13.557L1.551 18.762C1.63624 19.0812 1.82447 19.3633 2.08648 19.5646C2.34849 19.7658 2.66962 19.875 3 19.875H21C21.3302 19.875 21.6512 19.7661 21.9131 19.5652C22.1751 19.3642 22.3635 19.0824 22.449 18.7635ZM1.5 17.0325L8.562 12.687L1.5 8.4495V17.0325Z" fill="black"/>
</svg>
