<svg width="102" height="40" viewBox="0 0 102 40" fill="none" xmlns="http://www.w3.org/2000/svg">
<g clip-path="url(#clip0_79_4533)">
<path d="M1.26074 27.3065H5.6255V11.8152H1.26074V27.3065Z" fill="black"/>
<path d="M24.765 19.5146L12.8378 4.43945H9.2666V27.3065H13.7481V12.6244L25.5119 27.3065H29.2465V4.4857H24.765V19.5146Z" fill="black"/>
<path d="M66.8486 22.4974V10.5898H62.4839V20.9713C62.1571 21.6342 61.7603 22.1891 61.2935 22.6361C60.8266 23.0831 60.3209 23.4145 59.7763 23.6303C59.2161 23.8461 58.6559 23.954 58.0958 23.954C57.1621 23.954 56.4541 23.6303 55.9717 22.9829C55.5049 22.3355 55.2715 21.3798 55.2715 20.1159V10.5898H50.9067V21.0638C50.9067 23.2064 51.3658 24.8403 52.2839 25.9656C53.1864 27.0754 54.5168 27.6303 56.2752 27.6303C57.7067 27.6303 59.0216 27.3374 60.2198 26.7517C61.4024 26.166 62.3749 25.3105 63.1374 24.1852L63.2308 25.5263C63.3241 26.1428 63.612 26.6284 64.0944 26.9829C64.5768 27.322 65.207 27.4916 65.985 27.4916C66.234 27.4916 66.5063 27.4762 66.8019 27.4453C67.082 27.4145 67.4399 27.3683 67.8756 27.3066V23.7922C67.5022 23.7459 67.2376 23.6303 67.082 23.4453C66.9264 23.2604 66.8486 22.9444 66.8486 22.4974Z" fill="black"/>
<path fill-rule="evenodd" clip-rule="evenodd" d="M101.137 23.7921V27.3065C100.748 27.3682 100.398 27.4222 100.087 27.4684C99.7598 27.5146 99.4875 27.5378 99.2697 27.5378C98.4138 27.5378 97.7603 27.3451 97.309 26.9597C96.8578 26.5744 96.5777 26.0965 96.4687 25.5262L96.3754 24.6707C95.644 25.611 94.7259 26.3432 93.6211 26.8672C92.5163 27.3759 91.3882 27.6302 90.2367 27.6302C89.1008 27.6302 88.0893 27.399 87.2024 26.9366C86.2999 26.4896 85.5919 25.8653 85.0784 25.0638C84.5649 24.2776 84.3081 23.3836 84.3081 22.3817C84.3081 21.3027 84.6193 20.3547 85.2417 19.5378C85.8642 18.7208 86.7278 18.0888 87.8326 17.6418C88.9374 17.1948 90.2056 16.9713 91.6372 16.9713C92.3529 16.9713 93.0765 17.0252 93.8079 17.1331C94.5392 17.241 95.1772 17.4106 95.7218 17.6418V16.7401C95.7218 15.6919 95.4028 14.8827 94.7649 14.3123C94.1269 13.742 93.1777 13.4568 91.9173 13.4568C90.9836 13.4568 90.0967 13.6187 89.2564 13.9424C88.4161 14.2661 87.5292 14.7362 86.5955 15.3528L85.1951 12.532C86.3154 11.7921 87.4669 11.2449 88.6495 10.8904C89.8321 10.5204 91.077 10.3354 92.3841 10.3354C94.8115 10.3354 96.7021 10.9289 98.0559 12.1158C99.4097 13.3027 100.087 14.9983 100.087 17.2025V22.4973C100.087 22.9443 100.172 23.2603 100.343 23.4453C100.499 23.6302 100.763 23.7459 101.137 23.7921ZM95.7218 20.1158C95.2083 19.9 94.6482 19.7381 94.0413 19.6302C93.4344 19.5069 92.8587 19.4453 92.3141 19.4453C91.1937 19.4453 90.2678 19.6842 89.5365 20.162C88.8051 20.6245 88.4395 21.2487 88.4395 22.0349C88.4395 22.4511 88.5639 22.8441 88.8129 23.2141C89.0463 23.5994 89.3887 23.9077 89.8399 24.1389C90.2912 24.3547 90.8358 24.4626 91.4738 24.4626C92.1273 24.4626 92.7653 24.347 93.3877 24.1158C94.0102 23.8692 94.5159 23.5686 94.9049 23.2141C95.1539 22.9674 95.3562 22.7208 95.5118 22.4742C95.6518 22.2121 95.7218 21.9809 95.7218 21.7805V20.1158Z" fill="black"/>
<path d="M9.21994 1.68798C9.21994 0.832486 8.51971 0.115723 7.63275 0.115723C6.74579 0.115723 6.04556 0.832486 6.04556 1.68798C6.04556 1.84983 6.0689 2.01167 6.11559 2.17352C6.13893 2.3585 6.25563 3.97699 3.8982 4.0926C3.85151 4.0926 3.80483 4.06948 3.73481 4.06948C2.10094 4.06948 0.770508 5.3874 0.770508 7.02902C0.770508 8.64751 2.10094 9.96543 3.73481 9.96543C5.39202 9.96543 6.72245 8.64751 6.72245 7.02902C6.72245 6.56659 6.60575 6.1504 6.41902 5.75734L6.44236 5.78046C6.44236 5.78046 5.97554 3.88451 7.91284 3.23711C8.65975 3.1215 9.21994 2.4741 9.21994 1.68798Z" fill="#DEB3E0"/>
<path d="M21.614 37.7574C21.365 37.9578 21.0927 38.1042 20.797 38.1967C20.5014 38.2892 20.2135 38.3354 19.9334 38.3354C19.5288 38.3354 19.1554 38.2506 18.8131 38.0811C18.4863 37.9269 18.2062 37.7034 17.9728 37.4105C17.7238 37.1177 17.5371 36.7863 17.4126 36.4163C17.2881 36.0464 17.2259 35.661 17.2259 35.2603C17.2259 34.8903 17.2803 34.5281 17.3893 34.1736C17.4982 33.8036 17.6616 33.4722 17.8794 33.1793C18.1128 32.9019 18.3929 32.6707 18.7197 32.4857C19.0465 32.3007 19.4355 32.2082 19.8867 32.2082C20.1668 32.2082 20.4547 32.2468 20.7504 32.3238C21.0304 32.4163 21.295 32.5628 21.5439 32.7632C21.7929 32.9635 21.9952 33.2333 22.1508 33.5724L23.5279 32.6475C23.2323 32.0464 22.7732 31.5608 22.1508 31.1909C21.5284 30.821 20.797 30.636 19.9568 30.636C19.2254 30.636 18.5796 30.767 18.0195 31.0291C17.4593 31.2911 16.9847 31.6456 16.5957 32.0926C16.2066 32.5396 15.911 33.0252 15.7087 33.5493C15.5064 34.0888 15.4053 34.636 15.4053 35.1909C15.4053 35.7766 15.5142 36.347 15.732 36.9019C15.9499 37.4722 16.2533 37.9809 16.6423 38.4279C17.0469 38.8749 17.5215 39.2371 18.0661 39.5146C18.6108 39.7766 19.2099 39.9077 19.8634 39.9077C20.3769 39.9077 20.8904 39.8306 21.4039 39.6764C21.9018 39.5069 22.3609 39.2603 22.781 38.9366C23.1856 38.6283 23.4812 38.2429 23.668 37.7805L22.1975 36.9481C22.0574 37.2718 21.8629 37.5416 21.614 37.7574Z" fill="black"/>
<path fill-rule="evenodd" clip-rule="evenodd" d="M53.8947 32.9712C54.237 33.6649 54.4082 34.4279 54.4082 35.2602C54.4082 36.1851 54.2215 36.9943 53.848 37.688C53.4746 38.3662 52.9455 38.898 52.2608 39.2834C51.5762 39.6533 50.7748 39.8383 49.8567 39.8383H46.4956V30.7053H49.8567C50.8526 30.7053 51.6929 30.9057 52.3775 31.3065C53.0466 31.7227 53.5524 32.2776 53.8947 32.9712ZM52.5876 35.2602C52.5876 34.6745 52.4787 34.1581 52.2608 33.7111C52.043 33.2487 51.7318 32.8942 51.3272 32.6475C50.9226 32.3855 50.4324 32.2545 49.8567 32.2545H48.2929V38.2891H49.8567C50.4324 38.2891 50.9304 38.1581 51.3505 37.8961C51.7551 37.634 52.0663 37.2718 52.2842 36.8094C52.4864 36.3469 52.5876 35.8306 52.5876 35.2602Z" fill="black"/>
<path d="M64.0946 35.9076H67.9926V34.4741H64.0946V32.2545H68.5994V30.7053H62.2974V39.8383H68.7161V38.2891H64.0946V35.9076Z" fill="black"/>
<path d="M81.2733 35.9076L78.5424 30.7053H76.6284V39.8383H78.4257V33.8498L80.7831 38.3123H81.7868L84.1442 33.8498V39.8383H85.9415V30.7053H84.0275L81.2733 35.9076Z" fill="black"/>
<path d="M100.016 30.7053L97.6822 35.0059L95.4182 30.7053H93.4575L96.8186 36.6244V39.8383H98.5925V36.6475L101.954 30.7053H100.016Z" fill="black"/>
<path fill-rule="evenodd" clip-rule="evenodd" d="M5.39195 30.7053L8.79973 39.8383H6.9558L6.18554 37.5724H2.77776L2.00751 39.8383H0.163574L3.57136 30.7053H5.39195ZM5.76541 36.3238L4.48165 32.555L3.1979 36.3238H5.76541Z" fill="black"/>
<path fill-rule="evenodd" clip-rule="evenodd" d="M35.5018 30.7053L38.8863 39.8383H37.0423L36.2721 37.5724H32.8876L32.1174 39.8383H30.2734L33.6812 30.7053H35.5018ZM35.8519 36.3238L34.5915 32.555L33.3078 36.3238H35.8519Z" fill="black"/>
<path fill-rule="evenodd" clip-rule="evenodd" d="M49.2964 16.7399L49.2264 18.8671C49.2264 18.9827 49.1564 19.0752 49.063 19.0752L47.2424 19.4682C47.0323 20.2775 46.6822 21.0405 46.2154 21.7341L47.1724 23.3295C47.2191 23.3989 47.1957 23.5145 47.1257 23.5838L45.5619 25.0636C45.4918 25.133 45.3751 25.1561 45.2818 25.0867L43.7179 24.0694C42.9944 24.5087 42.2241 24.8093 41.3838 24.9711L40.917 26.7515C40.8937 26.844 40.8003 26.9133 40.7069 26.9133C40.7069 26.9133 40.6992 26.9133 40.6836 26.9133L38.5362 26.8671C38.4429 26.8671 38.3495 26.7977 38.3262 26.6821L37.9527 24.8786C37.1124 24.6705 36.3655 24.3237 35.6653 23.8844L34.0548 24.8093C33.9614 24.8555 33.8447 24.8324 33.7747 24.763L32.2809 23.2139C32.2108 23.1445 32.2108 23.0289 32.2575 22.9364L33.2845 21.4104C32.8644 20.6937 32.5609 19.9075 32.3976 19.0983L30.577 18.6127C30.4836 18.5896 30.4136 18.4971 30.4136 18.4046L30.4836 16.2544C30.4836 16.1619 30.5536 16.0694 30.647 16.0463L32.4676 15.6763C32.6777 14.8671 33.0278 14.1041 33.4946 13.4104L32.5376 11.8151C32.4909 11.7226 32.5143 11.6301 32.5843 11.5607L34.1481 10.0809C34.2182 10.0116 34.3349 9.98846 34.4282 10.0578L35.9921 11.052C36.6923 10.6359 37.4859 10.3353 38.3262 10.1734L38.793 8.39309C38.8163 8.27748 38.9097 8.20812 39.0031 8.23124L41.1738 8.27748C41.2671 8.27748 41.3605 8.34684 41.3838 8.46245L41.7573 10.2659C42.5976 10.474 43.3445 10.7977 44.0447 11.2601L45.6552 10.3353C45.7486 10.289 45.8653 10.289 45.9353 10.3815L47.4291 11.9307C47.4992 12 47.4992 12.1156 47.4525 12.185L46.4255 13.7341C46.8456 14.4509 47.149 15.2139 47.3124 16.0463L49.133 16.5087C49.2264 16.5549 49.2964 16.6243 49.2964 16.7399ZM42.901 14.6821C42.1074 13.8497 41.0104 13.3873 39.8433 13.3873C38.7696 13.3873 37.7426 13.8035 36.949 14.5434C35.2685 16.1387 35.1985 18.7746 36.7857 20.4393C37.6026 21.2948 38.6763 21.7572 39.8433 21.7572C40.9404 21.7572 41.9674 21.3411 42.7609 20.6012C44.4415 19.0058 44.5115 16.37 42.901 14.6821Z" fill="#9BB8ED"/>
<path d="M81.6233 10.2661C81.4988 10.2661 81.3199 10.2661 81.0865 10.2661C80.075 10.3278 79.1103 10.6823 78.1922 11.3297C77.2741 11.9925 76.5194 12.8865 75.9281 14.0118V10.6361H72.0068V25.7343L73.5707 26.8904V22.1505H74.7144V26.9135L76.2782 25.7343V17.0176C76.7295 16.0927 77.4608 15.3836 78.4723 14.8904C79.4993 14.3971 80.6585 14.1505 81.9501 14.1505V10.2892C81.8723 10.2738 81.7634 10.2661 81.6233 10.2661Z" fill="#E8CB66"/>
</g>
<defs>
<clipPath id="clip0_79_4533">
<rect width="102" height="40" fill="white"/>
</clipPath>
</defs>
</svg>
