<svg width="24" height="25" viewBox="0 0 24 25" fill="none" xmlns="http://www.w3.org/2000/svg">
<g id="search" clip-path="url(#clip0_56_3473)">
<path id="Vector" d="M17.6129 16.2034C19.0653 14.2214 19.7159 11.7641 19.4343 9.32313C19.1528 6.88212 17.96 4.63741 16.0945 3.0381C14.2291 1.43879 11.8285 0.602812 9.37314 0.697422C6.91777 0.792031 4.58866 1.81025 2.85178 3.54837C1.11491 5.28649 0.0983577 7.61632 0.00550496 10.0718C-0.0873478 12.5272 0.750346 14.9271 2.35099 16.7915C3.95164 18.6558 6.1972 19.847 8.63841 20.1268C11.0796 20.4066 13.5365 19.7543 15.5174 18.3004H15.5159C15.5609 18.3604 15.6089 18.4174 15.6629 18.4729L21.4379 24.2479C21.7191 24.5294 22.1007 24.6876 22.4986 24.6877C22.8965 24.6878 23.2782 24.5299 23.5596 24.2487C23.8411 23.9674 23.9993 23.5858 23.9994 23.1879C23.9996 22.79 23.8416 22.4084 23.5604 22.1269L17.7854 16.3519C17.7318 16.2976 17.6741 16.2475 17.6129 16.2019V16.2034ZM17.9999 10.4374C17.9999 11.5208 17.7865 12.5936 17.3719 13.5945C16.9573 14.5955 16.3496 15.505 15.5835 16.271C14.8174 17.0371 13.908 17.6448 12.907 18.0594C11.9061 18.474 10.8333 18.6874 9.74988 18.6874C8.66648 18.6874 7.59368 18.474 6.59274 18.0594C5.59181 17.6448 4.68233 17.0371 3.91625 16.271C3.15017 15.505 2.54248 14.5955 2.12788 13.5945C1.71327 12.5936 1.49988 11.5208 1.49988 10.4374C1.49988 8.24937 2.36908 6.15095 3.91625 4.60378C5.46343 3.0566 7.56185 2.18741 9.74988 2.18741C11.9379 2.18741 14.0363 3.0566 15.5835 4.60378C17.1307 6.15095 17.9999 8.24937 17.9999 10.4374Z" fill="black"/>
</g>
<defs>
<clipPath id="clip0_56_3473">
<rect width="24" height="24" fill="white" transform="translate(0 0.6875)"/>
</clipPath>
</defs>
</svg>
