<svg width="16" height="17" viewBox="0 0 16 17" fill="none" xmlns="http://www.w3.org/2000/svg">
<g clip-path="url(#clip0_1025_7142)">
<path fill-rule="evenodd" clip-rule="evenodd" d="M10 13C10 13.1326 9.94732 13.2598 9.85355 13.3536C9.75979 13.4473 9.63261 13.5 9.5 13.5H1.5C1.36739 13.5 1.24021 13.4473 1.14645 13.3536C1.05268 13.2598 1 13.1326 1 13V4C1 3.86739 1.05268 3.74021 1.14645 3.64645C1.24021 3.55268 1.36739 3.5 1.5 3.5H9.5C9.63261 3.5 9.75979 3.55268 9.85355 3.64645C9.94732 3.74021 10 3.86739 10 4V6C10 6.13261 10.0527 6.25979 10.1464 6.35355C10.2402 6.44732 10.3674 6.5 10.5 6.5C10.6326 6.5 10.7598 6.44732 10.8536 6.35355C10.9473 6.25979 11 6.13261 11 6V4C11 3.60218 10.842 3.22064 10.5607 2.93934C10.2794 2.65804 9.89782 2.5 9.5 2.5H1.5C1.10218 2.5 0.720644 2.65804 0.43934 2.93934C0.158035 3.22064 0 3.60218 0 4L0 13C0 13.3978 0.158035 13.7794 0.43934 14.0607C0.720644 14.342 1.10218 14.5 1.5 14.5H9.5C9.89782 14.5 10.2794 14.342 10.5607 14.0607C10.842 13.7794 11 13.3978 11 13V11C11 10.8674 10.9473 10.7402 10.8536 10.6464C10.7598 10.5527 10.6326 10.5 10.5 10.5C10.3674 10.5 10.2402 10.5527 10.1464 10.6464C10.0527 10.7402 10 10.8674 10 11V13Z" fill="#154BD8"/>
<path fill-rule="evenodd" clip-rule="evenodd" d="M15.854 8.85401C15.9006 8.80756 15.9375 8.75238 15.9627 8.69164C15.9879 8.63089 16.0009 8.56577 16.0009 8.50001C16.0009 8.43424 15.9879 8.36912 15.9627 8.30837C15.9375 8.24763 15.9006 8.19245 15.854 8.14601L12.854 5.14601C12.7601 5.05212 12.6328 4.99937 12.5 4.99937C12.3672 4.99937 12.2399 5.05212 12.146 5.14601C12.0521 5.23989 11.9994 5.36723 11.9994 5.50001C11.9994 5.63278 12.0521 5.76012 12.146 5.85401L14.293 8.00001H5.5C5.36739 8.00001 5.24021 8.05268 5.14645 8.14645C5.05268 8.24022 5 8.3674 5 8.50001C5 8.63261 5.05268 8.75979 5.14645 8.85356C5.24021 8.94733 5.36739 9.00001 5.5 9.00001H14.293L12.146 11.146C12.0521 11.2399 11.9994 11.3672 11.9994 11.5C11.9994 11.6328 12.0521 11.7601 12.146 11.854C12.2399 11.9479 12.3672 12.0006 12.5 12.0006C12.6328 12.0006 12.7601 11.9479 12.854 11.854L15.854 8.85401Z" fill="#154BD8"/>
</g>
<defs>
<clipPath id="clip0_1025_7142">
<rect width="16" height="16" fill="white" transform="translate(0 0.5)"/>
</clipPath>
</defs>
</svg>
