<svg width="81" height="80" viewBox="0 0 81 80" fill="none" xmlns="http://www.w3.org/2000/svg">
<rect x="0.5" width="80" height="80" rx="40" fill="#9BB8ED"/>
<g style="mix-blend-mode:overlay" clip-path="url(#clip0_786_3918)">
<path d="M24.25 22.5C23.9185 22.5 23.6005 22.6317 23.3661 22.8661C23.1317 23.1005 23 23.4185 23 23.75V31.25C23 31.5815 22.8683 31.8995 22.6339 32.1339C22.3995 32.3683 22.0815 32.5 21.75 32.5C21.4185 32.5 21.1005 32.3683 20.8661 32.1339C20.6317 31.8995 20.5 31.5815 20.5 31.25V23.75C20.5 22.7554 20.8951 21.8016 21.5983 21.0983C22.3016 20.3951 23.2554 20 24.25 20H31.75C32.0815 20 32.3995 20.1317 32.6339 20.3661C32.8683 20.6005 33 20.9185 33 21.25C33 21.5815 32.8683 21.8995 32.6339 22.1339C32.3995 22.3683 32.0815 22.5 31.75 22.5H24.25ZM48 21.25C48 20.9185 48.1317 20.6005 48.3661 20.3661C48.6005 20.1317 48.9185 20 49.25 20H56.75C57.7446 20 58.6984 20.3951 59.4016 21.0983C60.1049 21.8016 60.5 22.7554 60.5 23.75V31.25C60.5 31.5815 60.3683 31.8995 60.1339 32.1339C59.8995 32.3683 59.5815 32.5 59.25 32.5C58.9185 32.5 58.6005 32.3683 58.3661 32.1339C58.1317 31.8995 58 31.5815 58 31.25V23.75C58 23.4185 57.8683 23.1005 57.6339 22.8661C57.3995 22.6317 57.0815 22.5 56.75 22.5H49.25C48.9185 22.5 48.6005 22.3683 48.3661 22.1339C48.1317 21.8995 48 21.5815 48 21.25ZM21.75 47.5C22.0815 47.5 22.3995 47.6317 22.6339 47.8661C22.8683 48.1005 23 48.4185 23 48.75V56.25C23 56.5815 23.1317 56.8995 23.3661 57.1339C23.6005 57.3683 23.9185 57.5 24.25 57.5H31.75C32.0815 57.5 32.3995 57.6317 32.6339 57.8661C32.8683 58.1005 33 58.4185 33 58.75C33 59.0815 32.8683 59.3995 32.6339 59.6339C32.3995 59.8683 32.0815 60 31.75 60H24.25C23.2554 60 22.3016 59.6049 21.5983 58.9016C20.8951 58.1984 20.5 57.2446 20.5 56.25V48.75C20.5 48.4185 20.6317 48.1005 20.8661 47.8661C21.1005 47.6317 21.4185 47.5 21.75 47.5ZM59.25 47.5C59.5815 47.5 59.8995 47.6317 60.1339 47.8661C60.3683 48.1005 60.5 48.4185 60.5 48.75V56.25C60.5 57.2446 60.1049 58.1984 59.4016 58.9016C58.6984 59.6049 57.7446 60 56.75 60H49.25C48.9185 60 48.6005 59.8683 48.3661 59.6339C48.1317 59.3995 48 59.0815 48 58.75C48 58.4185 48.1317 58.1005 48.3661 57.8661C48.6005 57.6317 48.9185 57.5 49.25 57.5H56.75C57.0815 57.5 57.3995 57.3683 57.6339 57.1339C57.8683 56.8995 58 56.5815 58 56.25V48.75C58 48.4185 58.1317 48.1005 58.3661 47.8661C58.6005 47.6317 58.9185 47.5 59.25 47.5Z" fill="black"/>
<path d="M28 55C28 55 25.5 55 25.5 52.5C25.5 50 28 42.5 40.5 42.5C53 42.5 55.5 50 55.5 52.5C55.5 55 53 55 53 55H28ZM48 32.5C48 34.4891 47.2098 36.3968 45.8033 37.8033C44.3968 39.2098 42.4891 40 40.5 40C38.5109 40 36.6032 39.2098 35.1967 37.8033C33.7902 36.3968 33 34.4891 33 32.5C33 30.5109 33.7902 28.6032 35.1967 27.1967C36.6032 25.7902 38.5109 25 40.5 25C42.4891 25 44.3968 25.7902 45.8033 27.1967C47.2098 28.6032 48 30.5109 48 32.5Z" fill="black"/>
</g>
<defs>
<clipPath id="clip0_786_3918">
<rect width="40" height="40" fill="white" transform="translate(20.5 20)"/>
</clipPath>
</defs>
</svg>
