<svg width="81" height="80" viewBox="0 0 81 80" fill="none" xmlns="http://www.w3.org/2000/svg">
<rect x="0.5" width="80" height="80" rx="40" fill="#DEB3E0"/>
<g style="mix-blend-mode:overlay">
<path d="M33.845 23.975C31.464 24.6312 29.0991 25.3447 26.7525 26.115C26.5382 26.1844 26.3478 26.3126 26.2028 26.485C26.0578 26.6574 25.9642 26.867 25.9325 27.09C24.5475 37.4825 27.7475 45.065 31.565 50.06C33.1813 52.196 35.1085 54.0777 37.2825 55.6425C38.1475 56.2525 38.9125 56.6925 39.515 56.975C39.815 57.1175 40.06 57.2125 40.2475 57.27C40.3295 57.2988 40.4141 57.3197 40.5 57.3325C40.5849 57.3187 40.6686 57.2978 40.75 57.27C40.94 57.2125 41.185 57.1175 41.485 56.975C42.085 56.6925 42.8525 56.25 43.7175 55.6425C45.8915 54.0777 47.8187 52.196 49.435 50.06C53.2525 45.0675 56.4525 37.4825 55.0675 27.09C55.0361 26.8669 54.9426 26.6571 54.7976 26.4847C54.6526 26.3123 54.4619 26.1842 54.2475 26.115C52.62 25.5825 49.8725 24.715 47.155 23.9775C44.38 23.225 41.8275 22.6675 40.5 22.6675C39.175 22.6675 36.62 23.225 33.845 23.9775V23.975ZM33.18 21.4C35.8925 20.6625 38.775 20 40.5 20C42.225 20 45.1075 20.6625 47.82 21.4C50.595 22.15 53.3925 23.0375 55.0375 23.575C55.7253 23.8021 56.335 24.2187 56.7967 24.7768C57.2584 25.3348 57.5533 26.0118 57.6475 26.73C59.1375 37.9225 55.68 46.2175 51.485 51.705C49.7061 54.0525 47.585 56.1196 45.1925 57.8375C44.3652 58.4319 43.4887 58.9547 42.5725 59.4C41.8725 59.73 41.12 60 40.5 60C39.88 60 39.13 59.73 38.4275 59.4C37.5113 58.9547 36.6348 58.432 35.8075 57.8375C33.4151 56.1196 31.294 54.0524 29.515 51.705C25.32 46.2175 21.8625 37.9225 23.3525 26.73C23.4467 26.0118 23.7416 25.3348 24.2033 24.7768C24.665 24.2187 25.2747 23.8021 25.9625 23.575C28.3505 22.792 30.757 22.0668 33.18 21.4Z" fill="black"/>
<path d="M44.25 36.25C44.2504 37.0258 44.0102 37.7826 43.5624 38.4162C43.1147 39.0498 42.4814 39.5289 41.75 39.7875L42.7125 44.7625C42.7475 44.9434 42.7421 45.1299 42.6966 45.3085C42.6511 45.4871 42.5667 45.6534 42.4494 45.7956C42.3321 45.9377 42.1848 46.0522 42.0181 46.1308C41.8513 46.2093 41.6693 46.25 41.485 46.25H39.515C39.3309 46.2497 39.1492 46.2087 38.9827 46.13C38.8163 46.0512 38.6693 45.9367 38.5523 45.7946C38.4353 45.6525 38.3511 45.4863 38.3057 45.3079C38.2604 45.1295 38.255 44.9432 38.29 44.7625L39.25 39.7875C38.6019 39.5584 38.0293 39.1555 37.5946 38.6229C37.16 38.0903 36.8802 37.4485 36.7856 36.7676C36.6911 36.0868 36.7855 35.393 37.0586 34.7622C37.3317 34.1313 37.773 33.5877 38.3341 33.1907C38.8953 32.7936 39.5548 32.5585 40.2406 32.5109C40.9263 32.4634 41.612 32.6052 42.2226 32.921C42.8332 33.2368 43.3452 33.7143 43.7028 34.3014C44.0603 34.8885 44.2496 35.5626 44.25 36.25Z" fill="black"/>
</g>
</svg>
