<svg width="23" height="20" viewBox="0 0 23 20" fill="none" xmlns="http://www.w3.org/2000/svg">
<g filter="url(#filter0_d_58_4941)">
<path d="M6.22445 3.0263C5.75176 0.693057 9.02118 -0.36542 10.0056 1.80214L10.8828 3.73348C11.2176 4.47073 11.9639 4.93334 12.7732 4.90524L18.1538 4.71837C20.1639 4.64856 21.008 7.2559 19.3384 8.37739L14.8692 11.3794C14.197 11.8309 13.8634 12.6432 14.0242 13.4368L14.4454 15.5157C14.9181 17.849 11.6487 18.9074 10.6642 16.7399L9.78707 14.8085C9.45223 14.0713 8.70589 13.6087 7.89666 13.6368L2.51601 13.8236C0.505935 13.8935 -0.338191 11.2861 1.33141 10.1646L5.80064 7.16259C6.47281 6.7111 6.80641 5.89886 6.64563 5.10525L6.22445 3.0263Z" fill="#9BB8ED"/>
<path d="M7.20454 2.82775C6.9682 1.66111 8.60291 1.13189 9.09513 2.21566L9.97228 4.147C10.4745 5.25287 11.594 5.94679 12.8079 5.90463L18.1885 5.71776C19.1936 5.68286 19.6156 6.98653 18.7808 7.54728L14.3116 10.5493C13.3034 11.2266 12.803 12.4449 13.0441 13.6353L13.4653 15.7143C13.7016 16.8809 12.0669 17.4101 11.5747 16.3263L10.6976 14.395C10.1953 13.2891 9.0758 12.5952 7.86195 12.6374L2.48131 12.8242C1.47627 12.8592 1.0542 11.5555 1.889 10.9947L6.35824 7.99271C7.36648 7.31546 7.86689 6.0971 7.62572 4.9067L7.20454 2.82775Z" stroke="black" stroke-width="2"/>
</g>
<defs>
<filter id="filter0_d_58_4941" x="0.442383" y="0.621582" width="21.7852" height="19.2988" filterUnits="userSpaceOnUse" color-interpolation-filters="sRGB">
<feFlood flood-opacity="0" result="BackgroundImageFix"/>
<feColorMatrix in="SourceAlpha" type="matrix" values="0 0 0 0 0 0 0 0 0 0 0 0 0 0 0 0 0 0 127 0" result="hardAlpha"/>
<feOffset dx="2" dy="2"/>
<feComposite in2="hardAlpha" operator="out"/>
<feColorMatrix type="matrix" values="0 0 0 0 0 0 0 0 0 0 0 0 0 0 0 0 0 0 1 0"/>
<feBlend mode="normal" in2="BackgroundImageFix" result="effect1_dropShadow_58_4941"/>
<feBlend mode="normal" in="SourceGraphic" in2="effect1_dropShadow_58_4941" result="shape"/>
</filter>
</defs>
</svg>
