<svg width="16" height="16" viewBox="0 0 16 16" fill="none" xmlns="http://www.w3.org/2000/svg">
<g clip-path="url(#clip0_1941_4157)">
<path d="M12.3546 4.3539C12.4011 4.30741 12.438 4.25222 12.4632 4.19148C12.4883 4.13074 12.5013 4.06564 12.5013 3.9999C12.5013 3.93416 12.4883 3.86906 12.4632 3.80832C12.438 3.74758 12.4011 3.69239 12.3546 3.6459C12.3081 3.59941 12.253 3.56254 12.1922 3.53738C12.1315 3.51222 12.0664 3.49927 12.0006 3.49927C11.9349 3.49927 11.8698 3.51222 11.809 3.53738C11.7483 3.56254 11.6931 3.59941 11.6466 3.6459L5.00063 10.2929L1.85463 7.1459C1.80814 7.09941 1.75295 7.06253 1.69222 7.03738C1.63148 7.01222 1.56638 6.99927 1.50063 6.99927C1.36786 6.99927 1.24052 7.05201 1.14663 7.1459C1.05275 7.23979 1 7.36712 1 7.4999C1 7.63267 1.05275 7.76001 1.14663 7.8539L4.64663 11.3539C4.69308 11.4005 4.74825 11.4374 4.809 11.4626C4.86974 11.4878 4.93486 11.5008 5.00063 11.5008C5.0664 11.5008 5.13152 11.4878 5.19227 11.4626C5.25301 11.4374 5.30819 11.4005 5.35463 11.3539L12.3546 4.3539ZM8.14663 11.3539L7.25063 10.4569L7.95763 9.7499L8.50063 10.2929L15.1466 3.6459C15.2405 3.55201 15.3679 3.49927 15.5006 3.49927C15.6334 3.49927 15.7607 3.55201 15.8546 3.6459C15.9485 3.73979 16.0013 3.86712 16.0013 3.9999C16.0013 4.13267 15.9485 4.26001 15.8546 4.3539L8.85463 11.3539C8.80819 11.4005 8.75301 11.4374 8.69227 11.4626C8.63152 11.4878 8.5664 11.5008 8.50063 11.5008C8.43486 11.5008 8.36974 11.4878 8.309 11.4626C8.24825 11.4374 8.19308 11.4005 8.14663 11.3539Z" fill="black"/>
<path d="M5.35463 7.1459L6.25063 8.0429L5.54363 8.7499L4.64663 7.8539C4.55275 7.76001 4.5 7.63268 4.5 7.4999C4.5 7.36712 4.55275 7.23979 4.64663 7.1459C4.74052 7.05201 4.86786 6.99927 5.00063 6.99927C5.13341 6.99927 5.26075 7.05201 5.35463 7.1459Z" fill="#212529"/>
</g>
<defs>
<clipPath id="clip0_1941_4157">
<rect width="16" height="16" fill="white"/>
</clipPath>
</defs>
</svg>
