<svg width="93" height="89" viewBox="0 0 93 89" fill="none" xmlns="http://www.w3.org/2000/svg">
<g filter="url(#filter0_d_63_860)">
<path d="M12.1413 83.6419L12.2516 83.6194C22.3421 81.5775 28.5067 78.8831 31.374 77.4038C35.5954 78.5523 39.9463 79.131 44.3153 79.125C68.6759 79.125 88.4269 61.4963 88.4269 39.75C88.4269 18.0038 68.6759 0.375 44.3153 0.375C19.9546 0.375 0.203613 18.0038 0.203613 39.75C0.203613 49.65 4.30048 58.7063 11.0661 65.625C10.5928 70.0693 9.62339 74.4439 8.17679 78.6638L8.16025 78.7256C7.74915 79.9343 7.30045 81.1292 6.81485 82.3088C6.37924 83.355 7.22288 84.525 8.32016 84.345C9.59753 84.1318 10.8714 83.8974 12.1413 83.6419Z" fill="#9BB8ED"/>
<path d="M27.7735 39.75C27.7735 41.2418 27.1926 42.6726 26.1585 43.7275C25.1244 44.7824 23.722 45.375 22.2596 45.375C20.7972 45.375 19.3947 44.7824 18.3606 43.7275C17.3265 42.6726 16.7456 41.2418 16.7456 39.75C16.7456 38.2582 17.3265 36.8274 18.3606 35.7725C19.3947 34.7176 20.7972 34.125 22.2596 34.125C23.722 34.125 25.1244 34.7176 26.1585 35.7725C27.1926 36.8274 27.7735 38.2582 27.7735 39.75ZM49.8293 39.75C49.8293 41.2418 49.2484 42.6726 48.2143 43.7275C47.1803 44.7824 45.7778 45.375 44.3154 45.375C42.853 45.375 41.4505 44.7824 40.4164 43.7275C39.3824 42.6726 38.8014 41.2418 38.8014 39.75C38.8014 38.2582 39.3824 36.8274 40.4164 35.7725C41.4505 34.7176 42.853 34.125 44.3154 34.125C45.7778 34.125 47.1803 34.7176 48.2143 35.7725C49.2484 36.8274 49.8293 38.2582 49.8293 39.75ZM66.3712 45.375C67.8336 45.375 69.2361 44.7824 70.2702 43.7275C71.3042 42.6726 71.8852 41.2418 71.8852 39.75C71.8852 38.2582 71.3042 36.8274 70.2702 35.7725C69.2361 34.7176 67.8336 34.125 66.3712 34.125C64.9088 34.125 63.5063 34.7176 62.4722 35.7725C61.4382 36.8274 60.8572 38.2582 60.8572 39.75C60.8572 41.2418 61.4382 42.6726 62.4722 43.7275C63.5063 44.7824 64.9088 45.375 66.3712 45.375Z" fill="black"/>
<path d="M12.1413 83.6419L12.2516 83.6194C22.3421 81.5775 28.5067 78.8831 31.374 77.4038C35.5954 78.5523 39.9463 79.131 44.3153 79.125C68.6759 79.125 88.4269 61.4963 88.4269 39.75C88.4269 18.0038 68.6759 0.375 44.3153 0.375C19.9546 0.375 0.203613 18.0038 0.203613 39.75C0.203613 49.65 4.30048 58.7063 11.0661 65.625C10.5928 70.0693 9.62339 74.4439 8.17679 78.6638L8.16025 78.7256C7.74915 79.9343 7.30045 81.1292 6.81485 82.3088C6.37924 83.355 7.22288 84.525 8.32016 84.345C9.59753 84.1318 10.8714 83.8974 12.1413 83.6419ZM16.5525 66.1594C16.6297 65.3359 16.528 64.5051 16.2544 63.7263C15.9809 62.9475 15.5423 62.2398 14.97 61.6538C9.12519 55.6688 5.71757 48.0075 5.71757 39.75C5.71757 21.795 22.2815 6 44.3153 6C66.349 6 82.9129 21.795 82.9129 39.75C82.9129 57.7106 66.349 73.5 44.3153 73.5C40.4285 73.5058 36.5577 72.9914 32.8021 71.97C31.4897 71.6113 30.0936 71.7595 28.8817 72.3863C26.7478 73.4888 22.0444 75.5925 14.3579 77.4094C15.4303 73.737 16.165 69.9708 16.5525 66.1594Z" fill="black"/>
</g>
<defs>
<filter id="filter0_d_63_860" x="0.203613" y="0.375" width="92.2231" height="87.9885" filterUnits="userSpaceOnUse" color-interpolation-filters="sRGB">
<feFlood flood-opacity="0" result="BackgroundImageFix"/>
<feColorMatrix in="SourceAlpha" type="matrix" values="0 0 0 0 0 0 0 0 0 0 0 0 0 0 0 0 0 0 127 0" result="hardAlpha"/>
<feOffset dx="4" dy="4"/>
<feComposite in2="hardAlpha" operator="out"/>
<feColorMatrix type="matrix" values="0 0 0 0 0 0 0 0 0 0 0 0 0 0 0 0 0 0 1 0"/>
<feBlend mode="normal" in2="BackgroundImageFix" result="effect1_dropShadow_63_860"/>
<feBlend mode="normal" in="SourceGraphic" in2="effect1_dropShadow_63_860" result="shape"/>
</filter>
</defs>
</svg>
