<svg width="16" height="16" viewBox="0 0 16 16" fill="none" xmlns="http://www.w3.org/2000/svg">
<path d="M15.5017 1.93991C15.5951 2.03363 15.6476 2.16057 15.6476 2.2929C15.6476 2.42524 15.5951 2.55218 15.5017 2.6459L14.4587 3.6899L12.4587 1.68991L13.5017 0.645905C13.5955 0.552169 13.7226 0.499512 13.8552 0.499512C13.9878 0.499512 14.115 0.552169 14.2087 0.645905L15.5017 1.93891V1.93991ZM13.7517 4.3959L11.7517 2.3959L4.93872 9.2099C4.88368 9.26493 4.84225 9.33204 4.81772 9.4059L4.01272 11.8199C3.99812 11.8639 3.99604 11.9111 4.00673 11.9562C4.01741 12.0014 4.04044 12.0426 4.07322 12.0754C4.10601 12.1082 4.14727 12.1312 4.19239 12.1419C4.23751 12.1526 4.28471 12.1505 4.32872 12.1359L6.74272 11.3309C6.81648 11.3067 6.88359 11.2656 6.93872 11.2109L13.7517 4.3969V4.3959Z" fill="#154BD8"/>
<path fill-rule="evenodd" clip-rule="evenodd" d="M1 13.5C1 13.8978 1.15804 14.2794 1.43934 14.5607C1.72064 14.842 2.10218 15 2.5 15H13.5C13.8978 15 14.2794 14.842 14.5607 14.5607C14.842 14.2794 15 13.8978 15 13.5V7.5C15 7.36739 14.9473 7.24021 14.8536 7.14645C14.7598 7.05268 14.6326 7 14.5 7C14.3674 7 14.2402 7.05268 14.1464 7.14645C14.0527 7.24021 14 7.36739 14 7.5V13.5C14 13.6326 13.9473 13.7598 13.8536 13.8536C13.7598 13.9473 13.6326 14 13.5 14H2.5C2.36739 14 2.24021 13.9473 2.14645 13.8536C2.05268 13.7598 2 13.6326 2 13.5V2.5C2 2.36739 2.05268 2.24021 2.14645 2.14645C2.24021 2.05268 2.36739 2 2.5 2H9C9.13261 2 9.25979 1.94732 9.35355 1.85355C9.44732 1.75979 9.5 1.63261 9.5 1.5C9.5 1.36739 9.44732 1.24021 9.35355 1.14645C9.25979 1.05268 9.13261 1 9 1H2.5C2.10218 1 1.72064 1.15804 1.43934 1.43934C1.15804 1.72064 1 2.10218 1 2.5V13.5Z" fill="#154BD8"/>
</svg>
