<svg width="44" height="54" viewBox="0 0 44 54" fill="none" xmlns="http://www.w3.org/2000/svg">
<g filter="url(#filter0_d_58_4232)">
<path d="M21.2296 2.56853C21.6894 0.232724 25.1146 0.511397 25.1909 2.89082L25.71 19.0919C25.7359 19.9012 26.2473 20.615 27.0052 20.8999L40.6401 26.0255C42.5228 26.7332 42.3005 29.4647 40.3282 29.8588L26.0441 32.7127C25.25 32.8714 24.63 33.4931 24.4736 34.2876L21.3423 50.1917C20.8824 52.5275 17.4572 52.2488 17.381 49.8694L16.8619 33.6683C16.8359 32.859 16.3246 32.1452 15.5666 31.8602L1.93174 26.7347C0.0490741 26.027 0.271332 23.2954 2.24364 22.9014L16.5278 20.0475C17.3218 19.8888 17.9418 19.2671 18.0983 18.4726L21.2296 2.56853Z" fill="#DEB3E0"/>
<path d="M22.2107 2.7617C22.4407 1.59376 24.1532 1.73317 24.1914 2.92285L24.7105 19.1239C24.7494 20.3379 25.5164 21.4086 26.6533 21.836L40.2882 26.9615C41.2296 27.3154 41.1184 28.6811 40.1323 28.8782L25.8481 31.7321C24.6571 31.9701 23.7271 32.9027 23.4924 34.0944L20.3611 49.9985C20.1312 51.1664 18.4186 51.027 18.3805 49.8373L17.8614 33.6363C17.8225 32.4223 17.0554 31.3516 15.9185 30.9242L2.28361 25.7987C1.34229 25.4448 1.4534 24.079 2.43957 23.882L16.7237 21.0281C17.9147 20.7901 18.8448 19.8575 19.0794 18.6658L22.2107 2.7617Z" stroke="black" stroke-width="2"/>
</g>
<defs>
<filter id="filter0_d_58_4232" x="0.635254" y="0.954346" width="43.3013" height="52.8516" filterUnits="userSpaceOnUse" color-interpolation-filters="sRGB">
<feFlood flood-opacity="0" result="BackgroundImageFix"/>
<feColorMatrix in="SourceAlpha" type="matrix" values="0 0 0 0 0 0 0 0 0 0 0 0 0 0 0 0 0 0 127 0" result="hardAlpha"/>
<feOffset dx="2" dy="2"/>
<feComposite in2="hardAlpha" operator="out"/>
<feColorMatrix type="matrix" values="0 0 0 0 0 0 0 0 0 0 0 0 0 0 0 0 0 0 1 0"/>
<feBlend mode="normal" in2="BackgroundImageFix" result="effect1_dropShadow_58_4232"/>
<feBlend mode="normal" in="SourceGraphic" in2="effect1_dropShadow_58_4232" result="shape"/>
</filter>
</defs>
</svg>
