<svg width="30" height="30" viewBox="0 0 30 30" fill="none" xmlns="http://www.w3.org/2000/svg">
<g filter="url(#filter0_d_56_3637)">
<path d="M12.9626 2.13579C13.4225 -0.200007 16.8477 0.0786786 16.9239 2.4581L17.1198 8.57088C17.1457 9.38019 17.6571 10.094 18.415 10.3789L25.8918 13.1895C27.7745 13.8973 27.5522 16.6288 25.5799 17.0229L17.7471 18.5878C16.9531 18.7465 16.333 19.3683 16.1766 20.1627L14.9952 26.1634C14.5353 28.4993 11.1101 28.2206 11.0339 25.8411L10.838 19.7284C10.8121 18.919 10.3007 18.2052 9.54276 17.9203L2.06597 15.1097C0.183303 14.402 0.405553 11.6704 2.37786 11.2764L10.2107 9.71139C11.0047 9.55275 11.6247 8.93098 11.7811 8.13651L12.9626 2.13579Z" fill="#DEB3E0"/>
<path d="M13.9438 2.32897C14.1737 1.16108 15.8863 1.30041 15.9244 2.49013L16.1203 8.60291C16.1592 9.81687 16.9262 10.8876 18.0631 11.315L25.5399 14.1256C26.4813 14.4794 26.3701 15.8452 25.384 16.0423L17.5512 17.6072C16.3601 17.8452 15.4301 18.7778 15.1955 19.9695L14.014 25.9703C13.7841 27.1382 12.0715 26.9988 12.0333 25.8091L11.8375 19.6963C11.7986 18.4824 11.0315 17.4116 9.89464 16.9843L2.41784 14.1736C1.47651 13.8198 1.58763 12.454 2.57379 12.257L10.4066 10.692C11.5976 10.454 12.5277 9.5214 12.7623 8.32969L13.9438 2.32897Z" stroke="black" stroke-width="2"/>
</g>
<defs>
<filter id="filter0_d_56_3637" x="0.769531" y="0.521484" width="28.4189" height="29.2561" filterUnits="userSpaceOnUse" color-interpolation-filters="sRGB">
<feFlood flood-opacity="0" result="BackgroundImageFix"/>
<feColorMatrix in="SourceAlpha" type="matrix" values="0 0 0 0 0 0 0 0 0 0 0 0 0 0 0 0 0 0 127 0" result="hardAlpha"/>
<feOffset dx="2" dy="2"/>
<feComposite in2="hardAlpha" operator="out"/>
<feColorMatrix type="matrix" values="0 0 0 0 0 0 0 0 0 0 0 0 0 0 0 0 0 0 1 0"/>
<feBlend mode="normal" in2="BackgroundImageFix" result="effect1_dropShadow_56_3637"/>
<feBlend mode="normal" in="SourceGraphic" in2="effect1_dropShadow_56_3637" result="shape"/>
</filter>
</defs>
</svg>
