<svg width="16" height="17" viewBox="0 0 16 17" fill="none" xmlns="http://www.w3.org/2000/svg">
<path d="M15.8542 0.646028C15.9234 0.71536 15.9707 0.803502 15.9903 0.899505C16.0098 0.995508 16.0008 1.09514 15.9642 1.18603L10.1452 15.733C10.0939 15.8611 10.0083 15.9726 9.89771 16.0552C9.78715 16.1378 9.65596 16.1883 9.51856 16.2011C9.38116 16.2139 9.2429 16.1886 9.11897 16.1279C8.99505 16.0672 8.89027 15.9734 8.81618 15.857L5.63818 10.862L0.643176 7.68403C0.526494 7.61001 0.432527 7.5052 0.371646 7.38116C0.310764 7.25711 0.285334 7.11866 0.298161 6.98108C0.310988 6.8435 0.361574 6.71214 0.444337 6.60148C0.5271 6.49083 0.638822 6.4052 0.767176 6.35403L15.3142 0.537028C15.4051 0.50044 15.5047 0.49136 15.6007 0.510916C15.6967 0.530473 15.7848 0.577803 15.8542 0.647028V0.646028ZM6.63618 10.57L9.39718 14.908L14.1302 3.07603L6.63618 10.57ZM13.4232 2.36903L1.59118 7.10203L5.93018 9.86203L13.4242 2.36903H13.4232Z" fill="#154BD8"/>
</svg>
