<svg width="46" height="56" viewBox="0 0 46 56" fill="none" xmlns="http://www.w3.org/2000/svg">
<g filter="url(#filter0_d_56_3636)">
<path d="M22.2342 1.80881C22.6941 -0.526994 26.1193 -0.24831 26.1955 2.13111L26.7507 19.4579C26.7766 20.2672 27.288 20.9811 28.0459 21.266L42.368 26.6498C44.2507 27.3575 44.0284 30.0891 42.0561 30.4832L27.0521 33.4809C26.2581 33.6396 25.638 34.2613 25.4816 35.0558L22.1327 52.065C21.6729 54.4008 18.2477 54.1221 18.1714 51.7427L17.6163 34.4158C17.5903 33.6065 17.079 32.8927 16.321 32.6078L1.99896 27.224C0.116294 26.5162 0.338534 23.7847 2.31084 23.3906L17.3149 20.3929C18.1089 20.2342 18.7289 19.6125 18.8854 18.818L22.2342 1.80881Z" fill="#FFF3C8"/>
<path d="M23.2154 2.00199C23.4453 0.834085 25.1579 0.973427 25.1961 2.16314L25.7512 19.49C25.7901 20.7039 26.5572 21.7746 27.6941 22.202L42.0161 27.5859C42.9575 27.9397 42.8463 29.3055 41.8602 29.5025L26.8562 32.5003C25.6651 32.7383 24.7351 33.6709 24.5005 34.8626L21.1516 51.8718C20.9216 53.0397 19.209 52.9003 19.1709 51.7106L18.6157 34.3838C18.5768 33.1698 17.8098 32.0991 16.6729 31.6717L2.35083 26.2879C1.40948 25.934 1.52063 24.5683 2.50677 24.3712L17.5108 21.3735C18.7018 21.1355 19.6319 20.2029 19.8665 19.0112L23.2154 2.00199Z" stroke="black" stroke-width="2"/>
</g>
<defs>
<filter id="filter0_d_56_3636" x="0.702148" y="0.19458" width="44.9624" height="55.4846" filterUnits="userSpaceOnUse" color-interpolation-filters="sRGB">
<feFlood flood-opacity="0" result="BackgroundImageFix"/>
<feColorMatrix in="SourceAlpha" type="matrix" values="0 0 0 0 0 0 0 0 0 0 0 0 0 0 0 0 0 0 127 0" result="hardAlpha"/>
<feOffset dx="2" dy="2"/>
<feComposite in2="hardAlpha" operator="out"/>
<feColorMatrix type="matrix" values="0 0 0 0 0 0 0 0 0 0 0 0 0 0 0 0 0 0 1 0"/>
<feBlend mode="normal" in2="BackgroundImageFix" result="effect1_dropShadow_56_3636"/>
<feBlend mode="normal" in="SourceGraphic" in2="effect1_dropShadow_56_3636" result="shape"/>
</filter>
</defs>
</svg>
