<svg width="28" height="27" viewBox="0 0 28 27" fill="none" xmlns="http://www.w3.org/2000/svg">
<g filter="url(#filter0_d_58_4233)">
<path d="M11.8552 1.488C12.49 -0.549981 15.4483 -0.309272 15.7453 1.80452L16.6821 8.47318C16.7975 9.29456 17.4079 9.95948 18.2165 10.1445L23.7776 11.4173C26.0278 11.9323 25.7604 15.2185 23.4566 15.363L17.7629 15.72C16.935 15.7719 16.2252 16.3294 15.9785 17.1213L13.9759 23.5508C13.3411 25.5888 10.3828 25.3481 10.0858 23.2343L9.14896 16.5656C9.03357 15.7442 8.42315 15.0793 7.61461 14.8943L2.05345 13.6215C-0.196709 13.1065 0.0706707 9.82029 2.37448 9.67584L8.06824 9.31883C8.89607 9.26692 9.60595 8.70943 9.85261 7.9175L11.8552 1.488Z" fill="#FFF3C8"/>
<path d="M12.81 1.78538C13.1273 0.766399 14.6065 0.886731 14.755 1.94364L15.6919 8.6123C15.865 9.84438 16.7806 10.8418 17.9934 11.1193L23.5546 12.3921C24.6796 12.6496 24.5459 14.2927 23.394 14.3649L17.7003 14.7219C16.4585 14.7998 15.3937 15.636 15.0237 16.8239L13.0211 23.2534C12.7038 24.2724 11.2246 24.1521 11.0761 23.0952L10.1392 16.4265C9.96614 15.1944 9.05052 14.197 7.8377 13.9195L2.27654 12.6467C1.15146 12.3892 1.28516 10.7461 2.43706 10.6739L8.13082 10.3169C9.37256 10.239 10.4374 9.40277 10.8074 8.21488L12.81 1.78538Z" stroke="black" stroke-width="2"/>
</g>
<defs>
<filter id="filter0_d_58_4233" x="0.499023" y="0.0823975" width="26.833" height="26.874" filterUnits="userSpaceOnUse" color-interpolation-filters="sRGB">
<feFlood flood-opacity="0" result="BackgroundImageFix"/>
<feColorMatrix in="SourceAlpha" type="matrix" values="0 0 0 0 0 0 0 0 0 0 0 0 0 0 0 0 0 0 127 0" result="hardAlpha"/>
<feOffset dx="2" dy="2"/>
<feComposite in2="hardAlpha" operator="out"/>
<feColorMatrix type="matrix" values="0 0 0 0 0 0 0 0 0 0 0 0 0 0 0 0 0 0 1 0"/>
<feBlend mode="normal" in2="BackgroundImageFix" result="effect1_dropShadow_58_4233"/>
<feBlend mode="normal" in="SourceGraphic" in2="effect1_dropShadow_58_4233" result="shape"/>
</filter>
</defs>
</svg>
