<svg width="1920" height="767" viewBox="0 0 1920 767" fill="none" xmlns="http://www.w3.org/2000/svg">
<path d="M0 67.5827C0 57.6898 7.23283 49.2833 17.0149 47.8067L265 10.375L716.667 0.375L1900.83 49.5785C1911.54 50.0236 1920 58.8385 1920 69.5612V746.166C1920 757.293 1910.92 766.28 1899.79 766.164L19.7916 746.581C8.82781 746.467 0 737.547 0 726.582V67.5827Z" fill="#9BB8ED"/>
<path d="M821.333 595.375C891.333 612.375 943.333 603.575 967.333 588.375C977.383 582.01 981.447 579.124 981.432 577.875M948 575.375C965.29 579.365 981.402 575.395 981.432 577.875M981.432 577.875C979.687 581.042 977.244 588.575 981.432 593.375" stroke="black" stroke-width="4" stroke-linecap="round"/>
<g filter="url(#filter0_d_70_25)">
<path d="M706.79 50.4501C707.377 48.2157 710.641 48.4149 710.738 50.691L711.666 72.4246C711.702 73.2495 712.249 73.943 713.042 74.1664L732.367 79.6149C734.42 80.1937 734.096 83.1803 731.945 83.5026L711.7 86.5363C710.869 86.6607 710.18 87.2787 709.967 88.0885L704.366 109.424C703.78 111.658 700.516 111.459 700.418 109.183L699.49 87.4491C699.455 86.6242 698.907 85.9308 698.115 85.7074L678.789 80.2588C676.736 79.6801 677.06 76.6934 679.211 76.3712L699.457 73.3374C700.287 73.213 700.977 72.595 701.189 71.7853L706.79 50.4501Z" fill="#FFF3C8"/>
<path d="M709.735 50.7792L710.663 72.5128C710.716 73.7502 711.537 74.7904 712.726 75.1255L732.052 80.574C733.078 80.8634 732.916 82.3567 731.841 82.5178L711.595 85.5516C710.35 85.7382 709.315 86.6652 708.996 87.8798L703.395 109.215C703.102 110.332 701.47 110.233 701.421 109.095L700.493 87.3609C700.44 86.1236 699.619 85.0834 698.43 84.7483L679.105 79.2997C678.078 79.0104 678.24 77.517 679.315 77.3559L699.561 74.3221C700.806 74.1355 701.841 73.2086 702.16 71.9939L707.761 50.6588C708.054 49.5416 709.686 49.6412 709.735 50.7792Z" stroke="black" stroke-width="2"/>
</g>
<g filter="url(#filter1_d_70_25)">
<path d="M250.428 600.777C251.014 598.543 254.278 598.742 254.375 601.018L254.825 611.538C254.86 612.362 255.408 613.056 256.2 613.279L266.399 616.155C268.451 616.733 268.127 619.72 265.977 620.042L255.293 621.643C254.463 621.768 253.773 622.386 253.56 623.195L250.849 633.522C250.263 635.757 246.999 635.557 246.901 633.281L246.452 622.762C246.417 621.937 245.869 621.243 245.077 621.02L234.878 618.145C232.825 617.566 233.149 614.579 235.3 614.257L245.984 612.656C246.814 612.532 247.504 611.914 247.717 611.104L250.428 600.777Z" fill="#DEB3E0"/>
<path d="M253.372 601.106L253.822 611.626C253.875 612.863 254.696 613.903 255.885 614.238L266.083 617.114C267.11 617.403 266.948 618.896 265.872 619.058L255.188 620.659C253.943 620.845 252.908 621.772 252.589 622.987L249.878 633.313C249.585 634.431 247.953 634.331 247.904 633.193L247.455 622.673C247.402 621.436 246.581 620.396 245.392 620.061L235.194 617.185C234.167 616.896 234.329 615.403 235.405 615.242L246.089 613.641C247.334 613.454 248.369 612.527 248.688 611.312L251.398 600.986C251.692 599.869 253.324 599.968 253.372 601.106Z" stroke="black" stroke-width="2"/>
</g>
<defs>
<filter id="filter0_d_70_25" x="677.411" y="48.875" width="58.3334" height="64.1238" filterUnits="userSpaceOnUse" color-interpolation-filters="sRGB">
<feFlood flood-opacity="0" result="BackgroundImageFix"/>
<feColorMatrix in="SourceAlpha" type="matrix" values="0 0 0 0 0 0 0 0 0 0 0 0 0 0 0 0 0 0 127 0" result="hardAlpha"/>
<feOffset dx="2" dy="2"/>
<feComposite in2="hardAlpha" operator="out"/>
<feColorMatrix type="matrix" values="0 0 0 0 0 0 0 0 0 0 0 0 0 0 0 0 0 0 1 0"/>
<feBlend mode="normal" in2="BackgroundImageFix" result="effect1_dropShadow_70_25"/>
<feBlend mode="normal" in="SourceGraphic" in2="effect1_dropShadow_70_25" result="shape"/>
</filter>
<filter id="filter1_d_70_25" x="233.5" y="599.202" width="36.2759" height="37.895" filterUnits="userSpaceOnUse" color-interpolation-filters="sRGB">
<feFlood flood-opacity="0" result="BackgroundImageFix"/>
<feColorMatrix in="SourceAlpha" type="matrix" values="0 0 0 0 0 0 0 0 0 0 0 0 0 0 0 0 0 0 127 0" result="hardAlpha"/>
<feOffset dx="2" dy="2"/>
<feComposite in2="hardAlpha" operator="out"/>
<feColorMatrix type="matrix" values="0 0 0 0 0 0 0 0 0 0 0 0 0 0 0 0 0 0 1 0"/>
<feBlend mode="normal" in2="BackgroundImageFix" result="effect1_dropShadow_70_25"/>
<feBlend mode="normal" in="SourceGraphic" in2="effect1_dropShadow_70_25" result="shape"/>
</filter>
</defs>
</svg>
