<svg width="304" height="296" viewBox="0 0 304 296" fill="none" xmlns="http://www.w3.org/2000/svg">
<mask id="mask0_1602_1619" style="mask-type:alpha" maskUnits="userSpaceOnUse" x="4" y="0" width="296" height="296">
<path d="M191.685 21.2571L211.185 47.853C217.242 56.1126 225.53 62.3368 235.009 65.7382L265.512 76.6845C296.674 87.8673 308.91 126.73 290.042 154.732L271.591 182.115C265.861 190.619 262.697 200.684 262.495 211.041L261.847 244.402C261.184 278.522 229.188 302.51 197.632 292.634L166.728 282.962C157.125 279.956 146.875 279.956 137.272 282.962L106.368 292.634C74.8124 302.51 42.8161 278.522 42.153 244.402L41.5047 211.041C41.3034 200.684 38.1392 190.619 32.4093 182.115L13.958 154.732C-4.91014 126.73 7.32597 87.8673 38.4882 76.6845L68.9914 65.7382C78.4696 62.3368 86.7585 56.1126 92.8145 47.853L112.315 21.2571C132.241 -5.91906 171.759 -5.91903 191.685 21.2571Z" fill="#DEB3E0" stroke="black"/>
</mask>
<g mask="url(#mask0_1602_1619)">
<path d="M395.5 261.765C395.5 285.237 362.424 261.765 284 261.765C205.576 261.765 111.5 285.237 111.5 261.765C111.5 238.292 152.288 238.335 191.5 225.265C286 193.764 395.5 238.292 395.5 261.765Z" fill="#F3D1F4"/>
<path d="M246.5 243.765C246.5 267.237 213.424 243.765 135 243.765C56.5756 243.765 -37.5 267.237 -37.5 243.765C-37.5 220.292 3.28774 220.335 42.5 207.265C137 175.764 246.5 220.292 246.5 243.765Z" fill="#F3D1F4"/>
</g>
</svg>
