<svg width="296" height="296" viewBox="0 0 296 296" fill="none" xmlns="http://www.w3.org/2000/svg">
<mask id="mask0_1602_1619" style="mask-type:alpha" maskUnits="userSpaceOnUse" x="0" y="0" width="296" height="296">
<path d="M187.685 21.2571L207.185 47.853C213.242 56.1126 221.53 62.3368 231.009 65.7382L261.512 76.6845C292.674 87.8673 304.91 126.73 286.042 154.732L267.591 182.115C261.861 190.619 258.697 200.684 258.495 211.041L257.847 244.402C257.184 278.522 225.188 302.51 193.632 292.634L162.728 282.962C153.125 279.956 142.875 279.956 133.272 282.962L102.368 292.634C70.8124 302.51 38.8161 278.522 38.153 244.402L37.5047 211.041C37.3034 200.684 34.1392 190.619 28.4093 182.115L9.95798 154.732C-8.91014 126.73 3.32597 87.8673 34.4882 76.6845L64.9914 65.7382C74.4696 62.3368 82.7585 56.1126 88.8145 47.853L108.315 21.2571C128.241 -5.91906 167.759 -5.91903 187.685 21.2571Z" fill="#DEB3E0" stroke="black"/>
</mask>
<g mask="url(#mask0_1602_1619)">
<path d="M107.912 20.9615C128.037 -6.48718 167.963 -6.48714 188.088 20.9615L207.589 47.5573C213.587 55.7381 221.795 61.9005 231.177 65.2676L261.681 76.2139C293.162 87.5112 305.5 126.75 286.457 155.011L268.005 182.395C262.33 190.818 259.195 200.789 258.995 211.051L258.347 244.412C257.678 278.842 225.377 303.093 193.483 293.111L162.579 283.439C153.073 280.464 142.927 280.464 133.421 283.439L102.517 293.111C70.6226 303.093 38.3223 278.842 37.6531 244.412L37.0048 211.05C36.8053 200.789 33.6702 190.818 27.9947 182.395L9.54333 155.011C-9.49963 126.75 2.83803 87.5112 34.3193 76.2139L64.8225 65.2676C74.2052 61.9005 82.4131 55.7381 88.4113 47.5573L107.912 20.9615Z" fill="#DEB3E0"/>
</g>
</svg>
