<svg width="16" height="17" viewBox="0 0 16 17" fill="none" xmlns="http://www.w3.org/2000/svg">
<g clip-path="url(#clip0_93_6685)">
<path d="M14 0.5H2C1.46957 0.5 0.960859 0.710714 0.585786 1.08579C0.210714 1.46086 0 1.96957 0 2.5L0 14.5C0 15.0304 0.210714 15.5391 0.585786 15.9142C0.960859 16.2893 1.46957 16.5 2 16.5H14C14.5304 16.5 15.0391 16.2893 15.4142 15.9142C15.7893 15.5391 16 15.0304 16 14.5V2.5C16 1.96957 15.7893 1.46086 15.4142 1.08579C15.0391 0.710714 14.5304 0.5 14 0.5V0.5ZM1 4.357C1 3.884 1.448 3.5 2 3.5H14C14.552 3.5 15 3.884 15 4.357V14.643C15 15.116 14.552 15.5 14 15.5H2C1.448 15.5 1 15.116 1 14.643V4.357Z" fill="#676A6C"/>
<path d="M12 7.5C12.2652 7.5 12.5196 7.39464 12.7071 7.20711C12.8946 7.01957 13 6.76522 13 6.5C13 6.23478 12.8946 5.98043 12.7071 5.79289C12.5196 5.60536 12.2652 5.5 12 5.5C11.7348 5.5 11.4804 5.60536 11.2929 5.79289C11.1054 5.98043 11 6.23478 11 6.5C11 6.76522 11.1054 7.01957 11.2929 7.20711C11.4804 7.39464 11.7348 7.5 12 7.5Z" fill="#676A6C"/>
</g>
<defs>
<clipPath id="clip0_93_6685">
<rect width="16" height="16" fill="white" transform="translate(0 0.5)"/>
</clipPath>
</defs>
</svg>
