<svg width="16" height="17" viewBox="0 0 16 17" fill="none" xmlns="http://www.w3.org/2000/svg">
<g clip-path="url(#clip0_147_6061)">
<path d="M7.646 16.354C7.69245 16.4006 7.74762 16.4375 7.80837 16.4627C7.86911 16.4879 7.93423 16.5009 8 16.5009C8.06577 16.5009 8.13089 16.4879 8.19163 16.4627C8.25238 16.4375 8.30755 16.4006 8.354 16.354L10.207 14.5H14C14.5304 14.5 15.0391 14.2893 15.4142 13.9142C15.7893 13.5391 16 13.0304 16 12.5V3.5C16 2.96957 15.7893 2.46086 15.4142 2.08579C15.0391 1.71071 14.5304 1.5 14 1.5H2C1.46957 1.5 0.960859 1.71071 0.585786 2.08579C0.210714 2.46086 0 2.96957 0 3.5L0 12.5C0 13.0304 0.210714 13.5391 0.585786 13.9142C0.960859 14.2893 1.46957 14.5 2 14.5H5.793L7.646 16.354ZM1 9.5V6.5H15V9.5H1ZM15 10.5V12.5C15 12.7652 14.8946 13.0196 14.7071 13.2071C14.5196 13.3946 14.2652 13.5 14 13.5H10.207C9.9418 13.5001 9.68749 13.6055 9.5 13.793L8 15.293L6.5 13.793C6.31251 13.6055 6.0582 13.5001 5.793 13.5H2C1.73478 13.5 1.48043 13.3946 1.29289 13.2071C1.10536 13.0196 1 12.7652 1 12.5V10.5H15ZM15 5.5H1V3.5C1 3.23478 1.10536 2.98043 1.29289 2.79289C1.48043 2.60536 1.73478 2.5 2 2.5H14C14.2652 2.5 14.5196 2.60536 14.7071 2.79289C14.8946 2.98043 15 3.23478 15 3.5V5.5ZM2 12C2 12.1326 2.05268 12.2598 2.14645 12.3536C2.24021 12.4473 2.36739 12.5 2.5 12.5H10.5C10.6326 12.5 10.7598 12.4473 10.8536 12.3536C10.9473 12.2598 11 12.1326 11 12C11 11.8674 10.9473 11.7402 10.8536 11.6464C10.7598 11.5527 10.6326 11.5 10.5 11.5H2.5C2.36739 11.5 2.24021 11.5527 2.14645 11.6464C2.05268 11.7402 2 11.8674 2 12ZM2 8C2 8.13261 2.05268 8.25979 2.14645 8.35355C2.24021 8.44732 2.36739 8.5 2.5 8.5H13.5C13.6326 8.5 13.7598 8.44732 13.8536 8.35355C13.9473 8.25979 14 8.13261 14 8C14 7.86739 13.9473 7.74021 13.8536 7.64645C13.7598 7.55268 13.6326 7.5 13.5 7.5H2.5C2.36739 7.5 2.24021 7.55268 2.14645 7.64645C2.05268 7.74021 2 7.86739 2 8ZM2 4C2 4.13261 2.05268 4.25979 2.14645 4.35355C2.24021 4.44732 2.36739 4.5 2.5 4.5H8.5C8.63261 4.5 8.75979 4.44732 8.85355 4.35355C8.94732 4.25979 9 4.13261 9 4C9 3.86739 8.94732 3.74021 8.85355 3.64645C8.75979 3.55268 8.63261 3.5 8.5 3.5H2.5C2.36739 3.5 2.24021 3.55268 2.14645 3.64645C2.05268 3.74021 2 3.86739 2 4Z" fill="#676A6C"/>
</g>
<defs>
<clipPath id="clip0_147_6061">
<rect width="16" height="16" fill="white" transform="translate(0 0.5)"/>
</clipPath>
</defs>
</svg>
