<svg width="16" height="16" viewBox="0 0 16 16" fill="none" xmlns="http://www.w3.org/2000/svg">
<g clip-path="url(#clip0_1209_10335)">
<path fill-rule="evenodd" clip-rule="evenodd" d="M5.82839 10.1724C5.73463 10.0787 5.60747 10.026 5.47489 10.026C5.34231 10.026 5.21515 10.0787 5.12139 10.1724L1.02539 14.2684V11.5004C1.02539 11.3678 0.972712 11.2406 0.878944 11.1468C0.785176 11.0531 0.657999 11.0004 0.525391 11.0004C0.392782 11.0004 0.265605 11.0531 0.171837 11.1468C0.078069 11.2406 0.0253906 11.3678 0.0253906 11.5004V15.4754C0.0253906 15.608 0.078069 15.7352 0.171837 15.8289C0.265605 15.9227 0.392782 15.9754 0.525391 15.9754H4.50039C4.633 15.9754 4.76018 15.9227 4.85394 15.8289C4.94771 15.7352 5.00039 15.608 5.00039 15.4754C5.00039 15.3428 4.94771 15.2156 4.85394 15.1218C4.76018 15.0281 4.633 14.9754 4.50039 14.9754H1.73239L5.82839 10.8794C5.92213 10.7856 5.97478 10.6585 5.97478 10.5259C5.97478 10.3933 5.92213 10.2662 5.82839 10.1724ZM10.1724 5.82839C10.2662 5.92213 10.3933 5.97478 10.5259 5.97478C10.6585 5.97478 10.7856 5.92213 10.8794 5.82839L14.9754 1.73239V4.50039C14.9754 4.633 15.0281 4.76018 15.1218 4.85394C15.2156 4.94771 15.3428 5.00039 15.4754 5.00039C15.608 5.00039 15.7352 4.94771 15.8289 4.85394C15.9227 4.76018 15.9754 4.633 15.9754 4.50039V0.525391C15.9754 0.392782 15.9227 0.265605 15.8289 0.171837C15.7352 0.078069 15.608 0.0253906 15.4754 0.0253906H11.5004C11.3678 0.0253906 11.2406 0.078069 11.1468 0.171837C11.0531 0.265605 11.0004 0.392782 11.0004 0.525391C11.0004 0.657999 11.0531 0.785176 11.1468 0.878944C11.2406 0.972712 11.3678 1.02539 11.5004 1.02539H14.2684L10.1724 5.12139C10.0787 5.21515 10.026 5.34231 10.026 5.47489C10.026 5.60747 10.0787 5.73463 10.1724 5.82839Z" fill="#154BD8"/>
</g>
<defs>
<clipPath id="clip0_1209_10335">
<rect width="16" height="16" fill="white"/>
</clipPath>
</defs>
</svg>
