<svg width="16" height="17" viewBox="0 0 16 17" fill="none" xmlns="http://www.w3.org/2000/svg">
<g clip-path="url(#clip0_1193_4121)">
<path d="M3.05029 3.54966C2.40021 4.19968 1.88453 4.97138 1.5327 5.82071C1.18087 6.67004 0.999786 7.58035 0.999786 8.49966C0.999786 9.41897 1.18087 10.3293 1.5327 11.1786C1.88453 12.0279 2.40021 12.7996 3.05029 13.4497C3.14137 13.544 3.19177 13.6703 3.19063 13.8014C3.18949 13.9325 3.1369 14.0579 3.0442 14.1506C2.9515 14.2433 2.82609 14.2959 2.69499 14.297C2.56389 14.2981 2.43759 14.2477 2.34329 14.1567C1.60038 13.4138 1.01107 12.5319 0.609003 11.5612C0.20694 10.5906 0 9.55027 0 8.49966C0 7.44905 0.20694 6.40873 0.609003 5.4381C1.01107 4.46746 1.60038 3.58553 2.34329 2.84266C2.43759 2.75158 2.56389 2.70118 2.69499 2.70232C2.82609 2.70346 2.9515 2.75605 3.0442 2.84875C3.1369 2.94145 3.18949 3.06686 3.19063 3.19796C3.19177 3.32906 3.14137 3.45536 3.05029 3.54966ZM5.17229 5.67166C4.42241 6.42177 4.00115 7.439 4.00115 8.49966C4.00115 9.56032 4.42241 10.5775 5.17229 11.3277C5.21878 11.3741 5.25566 11.4293 5.28081 11.4901C5.30597 11.5508 5.31892 11.6159 5.31892 11.6817C5.31892 11.7474 5.30597 11.8125 5.28081 11.8732C5.25566 11.934 5.21878 11.9892 5.17229 12.0357C5.1258 12.0821 5.07061 12.119 5.00987 12.1442C4.94914 12.1693 4.88404 12.1823 4.81829 12.1823C4.75255 12.1823 4.68745 12.1693 4.62671 12.1442C4.56597 12.119 4.51078 12.0821 4.46429 12.0357C3.99986 11.5713 3.63144 11.0201 3.38009 10.4134C3.12873 9.80667 2.99936 9.15638 2.99936 8.49966C2.99936 7.84294 3.12873 7.19265 3.38009 6.58594C3.63144 5.97922 3.99986 5.42797 4.46429 4.96366C4.55818 4.86977 4.68552 4.81703 4.81829 4.81703C4.95107 4.81703 5.0784 4.86977 5.17229 4.96366C5.26618 5.05755 5.31892 5.18488 5.31892 5.31766C5.31892 5.45043 5.26618 5.57777 5.17229 5.67166ZM10.8283 4.96366C10.8747 4.9171 10.9299 4.88015 10.9907 4.85495C11.0514 4.82974 11.1165 4.81677 11.1823 4.81677C11.2481 4.81677 11.3132 4.82974 11.3739 4.85495C11.4347 4.88015 11.4898 4.9171 11.5363 4.96366C12.0007 5.42797 12.3691 5.97922 12.6205 6.58594C12.8719 7.19265 13.0012 7.84294 13.0012 8.49966C13.0012 9.15638 12.8719 9.80667 12.6205 10.4134C12.3691 11.0201 12.0007 11.5713 11.5363 12.0357C11.4898 12.0821 11.4346 12.119 11.3739 12.1442C11.3131 12.1693 11.248 12.1823 11.1823 12.1823C11.1165 12.1823 11.0514 12.1693 10.9907 12.1442C10.93 12.119 10.8748 12.0821 10.8283 12.0357C10.7818 11.9892 10.7449 11.934 10.7198 11.8732C10.6946 11.8125 10.6817 11.7474 10.6817 11.6817C10.6817 11.6159 10.6946 11.5508 10.7198 11.4901C10.7449 11.4293 10.7818 11.3741 10.8283 11.3277C11.5782 10.5775 11.9994 9.56032 11.9994 8.49966C11.9994 7.439 11.5782 6.42177 10.8283 5.67166C10.7817 5.62521 10.7448 5.57004 10.7196 5.50929C10.6944 5.44855 10.6814 5.38343 10.6814 5.31766C10.6814 5.25189 10.6944 5.18677 10.7196 5.12602C10.7448 5.06528 10.7817 5.0101 10.8283 4.96366ZM12.9503 2.84366C13.0441 2.74992 13.1712 2.69727 13.3038 2.69727C13.4364 2.69727 13.5635 2.74992 13.6573 2.84366C15.1574 4.34392 16.0001 6.3786 16.0001 8.50016C16.0001 10.6217 15.1574 12.6564 13.6573 14.1567C13.563 14.2477 13.4367 14.2981 13.3056 14.297C13.1745 14.2959 13.0491 14.2433 12.9564 14.1506C12.8637 14.0579 12.8111 13.9325 12.81 13.8014C12.8088 13.6703 12.8592 13.544 12.9503 13.4497C13.6004 12.7996 14.1161 12.0279 14.4679 11.1786C14.8197 10.3293 15.0008 9.41897 15.0008 8.49966C15.0008 7.58035 14.8197 6.67004 14.4679 5.82071C14.1161 4.97138 13.6004 4.19968 12.9503 3.54966C12.8566 3.45589 12.8039 3.32874 12.8039 3.19616C12.8039 3.06358 12.8566 2.93642 12.9503 2.84266V2.84366ZM6.00029 8.49966C6.00039 8.12561 6.10537 7.75909 6.30333 7.44172C6.50128 7.12435 6.78427 6.86885 7.12015 6.70424C7.45603 6.53963 7.83134 6.47252 8.20345 6.51051C8.57556 6.54851 8.92956 6.69009 9.22524 6.91918C9.52092 7.14828 9.74643 7.4557 9.87615 7.80653C10.0059 8.15735 10.0346 8.53753 9.95912 8.90388C9.88362 9.27022 9.70689 9.60806 9.44902 9.879C9.19115 10.1499 8.86246 10.3431 8.50029 10.4367V15.9997C8.50029 16.1323 8.44761 16.2594 8.35385 16.3532C8.26008 16.447 8.1329 16.4997 8.00029 16.4997C7.86768 16.4997 7.74051 16.447 7.64674 16.3532C7.55297 16.2594 7.50029 16.1323 7.50029 15.9997V10.4367C7.0709 10.3258 6.69053 10.0753 6.419 9.72471C6.14747 9.37408 6.00018 8.94314 6.00029 8.49966Z" fill="#154BD8"/>
</g>
<defs>
<clipPath id="clip0_1193_4121">
<rect width="16" height="16" fill="white" transform="translate(0 0.5)"/>
</clipPath>
</defs>
</svg>
