<svg width="16" height="16" viewBox="0 0 16 16" fill="none" xmlns="http://www.w3.org/2000/svg">
<g clip-path="url(#clip0_1209_10467)">
<path fill-rule="evenodd" clip-rule="evenodd" d="M10.961 12.3659C11.2462 12.062 11.4288 11.6762 11.483 11.2629L14.593 12.6449C14.7452 12.7128 14.912 12.7415 15.0781 12.7285C15.2443 12.7154 15.4045 12.6611 15.5443 12.5704C15.6841 12.4797 15.7991 12.3554 15.8786 12.209C15.9582 12.0626 15.9999 11.8986 16 11.7319V4.26994C15.9999 4.10341 15.9581 3.93956 15.8786 3.79325C15.7991 3.64695 15.6843 3.52281 15.5446 3.43212C15.4049 3.34143 15.2449 3.28705 15.0788 3.27392C14.9128 3.26079 14.7462 3.28933 14.594 3.35694L11.483 4.73894C11.4195 4.25803 11.1833 3.8166 10.8185 3.49687C10.4537 3.17713 9.98509 3.00088 9.5 3.00094H4.272L4.986 4.00094H9.5C9.76522 4.00094 10.0196 4.10629 10.2071 4.29383C10.3946 4.48137 10.5 4.73572 10.5 5.00094V11.0009C10.5002 11.1835 10.4504 11.3627 10.356 11.5189L10.961 12.3659ZM1.428 4.18094C1.29584 4.27299 1.1879 4.39564 1.11338 4.53842C1.03885 4.6812 0.999957 4.83988 1 5.00094V11.0009C1 11.2662 1.10536 11.5205 1.29289 11.708C1.48043 11.8956 1.73478 12.0009 2 12.0009H7.014L7.728 13.0009H2C1.46957 13.0009 0.960859 12.7902 0.585786 12.4152C0.210714 12.0401 0 11.5314 0 11.0009V5.00094C0 4.32594 0.334 3.72894 0.847 3.36694L1.427 4.18094H1.428ZM15 11.7309L11.5 10.1759V5.82594L15 4.26994V11.7319V11.7309ZM10.593 15.2909L0.593 1.29094L1.407 0.710938L11.407 14.7109L10.593 15.2909Z" fill="#154BD8"/>
</g>
<defs>
<clipPath id="clip0_1209_10467">
<rect width="16" height="16" fill="white"/>
</clipPath>
</defs>
</svg>
