<svg width="16" height="17" viewBox="0 0 16 17" fill="none" xmlns="http://www.w3.org/2000/svg">
<g clip-path="url(#clip0_1306_4067)">
<path d="M8 15.5C6.14348 15.5 4.36301 14.7625 3.05025 13.4497C1.7375 12.137 1 10.3565 1 8.5C1 6.64348 1.7375 4.86301 3.05025 3.55025C4.36301 2.2375 6.14348 1.5 8 1.5C9.85652 1.5 11.637 2.2375 12.9497 3.55025C14.2625 4.86301 15 6.64348 15 8.5C15 10.3565 14.2625 12.137 12.9497 13.4497C11.637 14.7625 9.85652 15.5 8 15.5ZM8 16.5C10.1217 16.5 12.1566 15.6571 13.6569 14.1569C15.1571 12.6566 16 10.6217 16 8.5C16 6.37827 15.1571 4.34344 13.6569 2.84315C12.1566 1.34285 10.1217 0.5 8 0.5C5.87827 0.5 3.84344 1.34285 2.34315 2.84315C0.842855 4.34344 0 6.37827 0 8.5C0 10.6217 0.842855 12.6566 2.34315 14.1569C3.84344 15.6571 5.87827 16.5 8 16.5Z" fill="#1B9930"/>
<path d="M10.9703 5.4693C10.9632 5.47621 10.9565 5.48356 10.9503 5.4913L7.47734 9.9163L5.38434 7.8223C5.24216 7.68982 5.05412 7.6177 4.85982 7.62113C4.66551 7.62456 4.48013 7.70327 4.34272 7.84068C4.2053 7.9781 4.12659 8.16348 4.12316 8.35778C4.11974 8.55208 4.19186 8.74013 4.32434 8.8823L6.97034 11.5293C7.04162 11.6005 7.1265 11.6565 7.21992 11.6942C7.31334 11.7318 7.41339 11.7502 7.51408 11.7484C7.61478 11.7465 7.71407 11.7244 7.80604 11.6833C7.898 11.6422 7.98074 11.583 8.04934 11.5093L12.0413 6.5193C12.1773 6.37663 12.2516 6.1862 12.2482 5.98917C12.2449 5.79214 12.1641 5.60435 12.0234 5.4664C11.8827 5.32844 11.6933 5.25141 11.4963 5.25196C11.2992 5.2525 11.1103 5.33058 10.9703 5.4693Z" fill="#1B9930"/>
</g>
<defs>
<clipPath id="clip0_1306_4067">
<rect width="16" height="16" fill="white" transform="translate(0 0.5)"/>
</clipPath>
</defs>
</svg>
