<svg width="16" height="16" viewBox="0 0 16 16" fill="none" xmlns="http://www.w3.org/2000/svg">
<g clip-path="url(#clip0_1209_3552)">
<path d="M7.99991 4.75391C7.57364 4.75391 7.15154 4.83787 6.75772 5.00099C6.36389 5.16412 6.00606 5.40322 5.70464 5.70464C5.40322 6.00606 5.16412 6.36389 5.00099 6.75772C4.83787 7.15154 4.75391 7.57364 4.75391 7.99991C4.75391 8.42618 4.83787 8.84827 5.00099 9.2421C5.16412 9.63592 5.40322 9.99376 5.70464 10.2952C6.00606 10.5966 6.36389 10.8357 6.75772 10.9988C7.15154 11.1619 7.57364 11.2459 7.99991 11.2459C8.8608 11.2459 9.68643 10.9039 10.2952 10.2952C10.9039 9.68643 11.2459 8.8608 11.2459 7.99991C11.2459 7.13901 10.9039 6.31338 10.2952 5.70464C9.68643 5.09589 8.8608 4.75391 7.99991 4.75391ZM5.75391 7.99991C5.75391 7.40423 5.99054 6.83295 6.41174 6.41174C6.83295 5.99054 7.40423 5.75391 7.99991 5.75391C8.59558 5.75391 9.16686 5.99054 9.58807 6.41174C10.0093 6.83295 10.2459 7.40423 10.2459 7.99991C10.2459 8.59558 10.0093 9.16686 9.58807 9.58807C9.16686 10.0093 8.59558 10.2459 7.99991 10.2459C7.40423 10.2459 6.83295 10.0093 6.41174 9.58807C5.99054 9.16686 5.75391 8.59558 5.75391 7.99991Z" fill="#154BD8"/>
<path d="M9.79648 1.3425C9.26948 -0.4475 6.73148 -0.4475 6.20448 1.3425L6.11048 1.6615C6.07367 1.78645 6.00937 1.90158 5.92229 1.99846C5.83521 2.09533 5.72756 2.17149 5.60722 2.22135C5.48688 2.27121 5.35691 2.29351 5.22683 2.28662C5.09675 2.27972 4.96987 2.24381 4.85548 2.1815L4.56348 2.0215C2.92348 1.1295 1.13048 2.9235 2.02348 4.5625L2.18248 4.8545C2.24478 4.96889 2.2807 5.09578 2.28759 5.22585C2.29449 5.35593 2.27219 5.4859 2.22233 5.60624C2.17247 5.72658 2.09631 5.83424 1.99943 5.92132C1.90256 6.0084 1.78743 6.0727 1.66248 6.1095L1.34348 6.2035C-0.446523 6.7305 -0.446523 9.2685 1.34348 9.7955L1.66248 9.8895C1.78743 9.9263 1.90256 9.9906 1.99943 10.0777C2.09631 10.1648 2.17247 10.2724 2.22233 10.3928C2.27219 10.5131 2.29449 10.6431 2.28759 10.7731C2.2807 10.9032 2.24478 11.0301 2.18248 11.1445L2.02248 11.4365C1.13048 13.0765 2.92348 14.8705 4.56348 13.9765L4.85548 13.8175C4.96987 13.7552 5.09675 13.7193 5.22683 13.7124C5.35691 13.7055 5.48688 13.7278 5.60722 13.7776C5.72756 13.8275 5.83521 13.9037 5.92229 14.0005C6.00937 14.0974 6.07367 14.2125 6.11048 14.3375L6.20448 14.6565C6.73148 16.4465 9.26948 16.4465 9.79648 14.6565L9.89048 14.3375C9.92728 14.2125 9.99158 14.0974 10.0787 14.0005C10.1657 13.9037 10.2734 13.8275 10.3937 13.7776C10.5141 13.7278 10.644 13.7055 10.7741 13.7124C10.9042 13.7193 11.0311 13.7552 11.1455 13.8175L11.4375 13.9775C13.0775 14.8705 14.8715 13.0755 13.9775 11.4365L13.8185 11.1445C13.7562 11.0301 13.7203 10.9032 13.7134 10.7731C13.7065 10.6431 13.7288 10.5131 13.7786 10.3928C13.8285 10.2724 13.9046 10.1648 14.0015 10.0777C14.0984 9.9906 14.2135 9.9263 14.3385 9.8895L14.6575 9.7955C16.4475 9.2685 16.4475 6.7305 14.6575 6.2035L14.3385 6.1095C14.2135 6.0727 14.0984 6.0084 14.0015 5.92132C13.9046 5.83424 13.8285 5.72658 13.7786 5.60624C13.7288 5.4859 13.7065 5.35593 13.7134 5.22585C13.7203 5.09578 13.7562 4.96889 13.8185 4.8545L13.9785 4.5625C14.8715 2.9225 13.0765 1.1295 11.4375 2.0225L11.1455 2.1815C11.0311 2.24381 10.9042 2.27972 10.7741 2.28662C10.644 2.29351 10.5141 2.27121 10.3937 2.22135C10.2734 2.17149 10.1657 2.09533 10.0787 1.99846C9.99158 1.90158 9.92728 1.78645 9.89048 1.6615L9.79648 1.3425ZM7.16348 1.6255C7.40948 0.7905 8.59148 0.7905 8.83748 1.6255L8.93148 1.9445C9.0105 2.21259 9.14851 2.45959 9.3354 2.6674C9.52229 2.87521 9.75332 3.03856 10.0116 3.14548C10.2698 3.2524 10.5487 3.30017 10.8278 3.28529C11.1069 3.27041 11.3791 3.19326 11.6245 3.0595L11.9155 2.8995C12.6795 2.4845 13.5155 3.3195 13.0995 4.0845L12.9405 4.3765C12.8069 4.62193 12.73 4.89413 12.7152 5.17316C12.7005 5.45218 12.7484 5.73097 12.8554 5.98908C12.9624 6.2472 13.1258 6.4781 13.3336 6.66488C13.5415 6.85165 13.7884 6.98956 14.0565 7.0685L14.3745 7.1625C15.2095 7.4085 15.2095 8.5905 14.3745 8.8365L14.0555 8.9305C13.7874 9.00952 13.5404 9.14754 13.3326 9.33443C13.1248 9.52132 12.9614 9.75235 12.8545 10.0106C12.7476 10.2688 12.6998 10.5477 12.7147 10.8268C12.7296 11.1059 12.8067 11.3781 12.9405 11.6235L13.1005 11.9145C13.5155 12.6785 12.6805 13.5145 11.9155 13.0985L11.6245 12.9395C11.379 12.8057 11.1067 12.7286 10.8276 12.7138C10.5484 12.699 10.2695 12.7469 10.0113 12.8539C9.75301 12.9609 9.522 13.1244 9.33516 13.3323C9.14831 13.5402 9.01038 13.7873 8.93148 14.0555L8.83748 14.3735C8.59148 15.2085 7.40948 15.2085 7.16348 14.3735L7.06948 14.0545C6.99042 13.7866 6.85243 13.5397 6.66561 13.332C6.47879 13.1243 6.24787 12.961 5.98977 12.8541C5.73166 12.7472 5.45292 12.6994 5.17394 12.7141C4.89497 12.7289 4.62284 12.8059 4.37748 12.9395L4.08548 13.0995C3.32148 13.5145 2.48548 12.6795 2.90148 11.9145L3.06048 11.6235C3.19443 11.3781 3.27173 11.1057 3.2867 10.8265C3.30168 10.5473 3.25395 10.2683 3.14702 10.0099C3.04009 9.75158 2.87667 9.52044 2.66876 9.33348C2.46084 9.14652 2.2137 9.00849 1.94548 8.9295L1.62648 8.8355C0.791477 8.5895 0.791477 7.4075 1.62648 7.1615L1.94548 7.0675C2.21328 6.98841 2.46002 6.85044 2.66762 6.66369C2.87522 6.47694 3.03844 6.24613 3.14533 5.98816C3.25222 5.73018 3.30007 5.45157 3.28539 5.17272C3.27071 4.89387 3.19386 4.62182 3.06048 4.3765L2.90048 4.0845C2.48548 3.3205 3.32048 2.4845 4.08548 2.9005L4.37748 3.0595C4.62284 3.19308 4.89497 3.27007 5.17394 3.28485C5.45292 3.29963 5.73166 3.25182 5.98977 3.14492C6.24787 3.03801 6.47879 2.87473 6.66561 2.66702C6.85243 2.45931 6.99042 2.21245 7.06948 1.9445L7.16348 1.6255Z" fill="#154BD8"/>
</g>
<defs>
<clipPath id="clip0_1209_3552">
<rect width="16" height="16" fill="white"/>
</clipPath>
</defs>
</svg>
