<svg width="17" height="17" viewBox="0 0 17 17" fill="none" xmlns="http://www.w3.org/2000/svg">
<path d="M1.5 3C1.5 2.60218 1.65804 2.22064 1.93934 1.93934C2.22064 1.65804 2.60218 1.5 3 1.5H6C6.39782 1.5 6.77936 1.65804 7.06066 1.93934C7.34196 2.22064 7.5 2.60218 7.5 3V6C7.5 6.39782 7.34196 6.77936 7.06066 7.06066C6.77936 7.34196 6.39782 7.5 6 7.5H3C2.60218 7.5 2.22064 7.34196 1.93934 7.06066C1.65804 6.77936 1.5 6.39782 1.5 6V3ZM3 2.5C2.86739 2.5 2.74021 2.55268 2.64645 2.64645C2.55268 2.74021 2.5 2.86739 2.5 3V6C2.5 6.13261 2.55268 6.25979 2.64645 6.35355C2.74021 6.44732 2.86739 6.5 3 6.5H6C6.13261 6.5 6.25979 6.44732 6.35355 6.35355C6.44732 6.25979 6.5 6.13261 6.5 6V3C6.5 2.86739 6.44732 2.74021 6.35355 2.64645C6.25979 2.55268 6.13261 2.5 6 2.5H3ZM9.5 3C9.5 2.60218 9.65804 2.22064 9.93934 1.93934C10.2206 1.65804 10.6022 1.5 11 1.5H14C14.3978 1.5 14.7794 1.65804 15.0607 1.93934C15.342 2.22064 15.5 2.60218 15.5 3V6C15.5 6.39782 15.342 6.77936 15.0607 7.06066C14.7794 7.34196 14.3978 7.5 14 7.5H11C10.6022 7.5 10.2206 7.34196 9.93934 7.06066C9.65804 6.77936 9.5 6.39782 9.5 6V3ZM11 2.5C10.8674 2.5 10.7402 2.55268 10.6464 2.64645C10.5527 2.74021 10.5 2.86739 10.5 3V6C10.5 6.13261 10.5527 6.25979 10.6464 6.35355C10.7402 6.44732 10.8674 6.5 11 6.5H14C14.1326 6.5 14.2598 6.44732 14.3536 6.35355C14.4473 6.25979 14.5 6.13261 14.5 6V3C14.5 2.86739 14.4473 2.74021 14.3536 2.64645C14.2598 2.55268 14.1326 2.5 14 2.5H11ZM1.5 11C1.5 10.6022 1.65804 10.2206 1.93934 9.93934C2.22064 9.65804 2.60218 9.5 3 9.5H6C6.39782 9.5 6.77936 9.65804 7.06066 9.93934C7.34196 10.2206 7.5 10.6022 7.5 11V14C7.5 14.3978 7.34196 14.7794 7.06066 15.0607C6.77936 15.342 6.39782 15.5 6 15.5H3C2.60218 15.5 2.22064 15.342 1.93934 15.0607C1.65804 14.7794 1.5 14.3978 1.5 14V11ZM3 10.5C2.86739 10.5 2.74021 10.5527 2.64645 10.6464C2.55268 10.7402 2.5 10.8674 2.5 11V14C2.5 14.1326 2.55268 14.2598 2.64645 14.3536C2.74021 14.4473 2.86739 14.5 3 14.5H6C6.13261 14.5 6.25979 14.4473 6.35355 14.3536C6.44732 14.2598 6.5 14.1326 6.5 14V11C6.5 10.8674 6.44732 10.7402 6.35355 10.6464C6.25979 10.5527 6.13261 10.5 6 10.5H3ZM9.5 11C9.5 10.6022 9.65804 10.2206 9.93934 9.93934C10.2206 9.65804 10.6022 9.5 11 9.5H14C14.3978 9.5 14.7794 9.65804 15.0607 9.93934C15.342 10.2206 15.5 10.6022 15.5 11V14C15.5 14.3978 15.342 14.7794 15.0607 15.0607C14.7794 15.342 14.3978 15.5 14 15.5H11C10.6022 15.5 10.2206 15.342 9.93934 15.0607C9.65804 14.7794 9.5 14.3978 9.5 14V11ZM11 10.5C10.8674 10.5 10.7402 10.5527 10.6464 10.6464C10.5527 10.7402 10.5 10.8674 10.5 11V14C10.5 14.1326 10.5527 14.2598 10.6464 14.3536C10.7402 14.4473 10.8674 14.5 11 14.5H14C14.1326 14.5 14.2598 14.4473 14.3536 14.3536C14.4473 14.2598 14.5 14.1326 14.5 14V11C14.5 10.8674 14.4473 10.7402 14.3536 10.6464C14.2598 10.5527 14.1326 10.5 14 10.5H11Z" fill="#154BD8"/>
</svg>
