<svg width="16" height="16" viewBox="0 0 16 16" fill="none" xmlns="http://www.w3.org/2000/svg">
<path fill-rule="evenodd" clip-rule="evenodd" d="M8.70665 1.49982C8.51913 1.31235 8.26482 1.20703 7.99966 1.20703C7.73449 1.20703 7.48018 1.31235 7.29266 1.49982L0.645655 8.14582C0.599167 8.19231 0.562291 8.24749 0.537132 8.30823C0.511973 8.36897 0.499023 8.43407 0.499023 8.49982C0.499023 8.56556 0.511973 8.63066 0.537132 8.6914C0.562291 8.75214 0.599167 8.80733 0.645655 8.85382C0.739542 8.9477 0.866879 9.00045 0.999655 9.00045C1.0654 9.00045 1.1305 8.9875 1.19124 8.96234C1.25198 8.93718 1.30717 8.90031 1.35365 8.85382L1.99966 8.20682V13.4998C1.99966 13.8976 2.15769 14.2792 2.43899 14.5605C2.7203 14.8418 3.10183 14.9998 3.49966 14.9998H12.4997C12.8975 14.9998 13.279 14.8418 13.5603 14.5605C13.8416 14.2792 13.9997 13.8976 13.9997 13.4998V8.20682L14.6457 8.85382C14.7395 8.9477 14.8669 9.00045 14.9997 9.00045C15.1324 9.00045 15.2598 8.9477 15.3537 8.85382C15.4475 8.75993 15.5003 8.63259 15.5003 8.49982C15.5003 8.36704 15.4475 8.2397 15.3537 8.14582L12.9997 5.79282V2.49982C12.9997 2.36721 12.947 2.24003 12.8532 2.14626C12.7594 2.0525 12.6323 1.99982 12.4997 1.99982H11.4997C11.367 1.99982 11.2399 2.0525 11.1461 2.14626C11.0523 2.24003 10.9997 2.36721 10.9997 2.49982V3.79282L8.70665 1.49982ZM12.9997 7.20682L7.99966 2.20682L2.99966 7.20682V13.4998C2.99966 13.6324 3.05233 13.7596 3.1461 13.8534C3.23987 13.9471 3.36705 13.9998 3.49966 13.9998H12.4997C12.6323 13.9998 12.7594 13.9471 12.8532 13.8534C12.947 13.7596 12.9997 13.6324 12.9997 13.4998V7.20682Z" fill="#154BD8"/>
</svg>
