<svg width="24" height="24" viewBox="0 0 24 24" fill="none" xmlns="http://www.w3.org/2000/svg">
<path fill-rule="evenodd" clip-rule="evenodd" d="M7.104 2.95235L5.766 7.85585L5.745 7.94285C3.1695 8.35235 1.5 9.00935 1.5 9.75035C1.5 10.9923 6.201 12.0003 12 12.0003C17.799 12.0003 22.5 10.9923 22.5 9.75035C22.5 9.00935 20.8305 8.35235 18.255 7.94285C18.2488 7.91365 18.2418 7.88464 18.234 7.85585L16.896 2.95085C16.677 2.15135 15.849 1.67735 15.0375 1.84985C14.1165 2.04485 12.93 2.25035 12 2.25035C11.07 2.25035 9.8835 2.04635 8.9625 1.84985C8.151 1.67735 7.323 2.14985 7.104 2.95235ZM7.1265 8.75285C7.13138 8.70378 7.14588 8.65615 7.16919 8.6127C7.19249 8.56924 7.22414 8.53081 7.26231 8.4996C7.30049 8.46839 7.34444 8.44502 7.39166 8.43082C7.43888 8.41662 7.48844 8.41187 7.5375 8.41685C8.8875 8.55485 10.4025 8.63135 12 8.63135C13.4902 8.63483 14.9795 8.56324 16.4625 8.41685C16.5616 8.4069 16.6605 8.43671 16.7376 8.49972C16.8147 8.56274 16.8636 8.65379 16.8735 8.75285C16.8834 8.8519 16.8536 8.95086 16.7906 9.02793C16.7276 9.10501 16.6366 9.1539 16.5375 9.16385C15.1605 9.30335 13.6215 9.38135 12 9.38135C10.3785 9.38135 8.8395 9.30335 7.4625 9.16385C7.41343 9.15897 7.36581 9.14446 7.32235 9.12116C7.2789 9.09785 7.24047 9.06621 7.20926 9.02803C7.17805 8.98986 7.15467 8.9459 7.14047 8.89868C7.12627 8.85146 7.12152 8.8019 7.1265 8.75285ZM5.25 15.0003H8.25C8.44891 15.0003 8.63968 15.0794 8.78033 15.22C8.92098 15.3607 9 15.5514 9 15.7503V17.2503C9 17.8471 8.76295 18.4194 8.34099 18.8413C7.91903 19.2633 7.34674 19.5003 6.75 19.5003C6.15326 19.5003 5.58097 19.2633 5.15901 18.8413C4.73705 18.4194 4.5 17.8471 4.5 17.2503V15.7503C4.5 15.5514 4.57902 15.3607 4.71967 15.22C4.86032 15.0794 5.05109 15.0003 5.25 15.0003ZM3 15.7503C3 15.4878 3.045 15.2343 3.1275 15.0003H3C2.80109 15.0003 2.61032 14.9213 2.46967 14.7807C2.32902 14.64 2.25 14.4493 2.25 14.2503C2.25 14.0514 2.32902 13.8607 2.46967 13.72C2.61032 13.5794 2.80109 13.5003 3 13.5003H8.25C8.79785 13.5004 9.32686 13.7004 9.73779 14.0627C10.1487 14.425 10.4133 14.9248 10.482 15.4683C11.4719 15.1693 12.5281 15.1693 13.518 15.4683C13.5867 14.9248 13.8513 14.425 14.2622 14.0627C14.6731 13.7004 15.2021 13.5004 15.75 13.5003H21C21.1989 13.5003 21.3897 13.5794 21.5303 13.72C21.671 13.8607 21.75 14.0514 21.75 14.2503C21.75 14.4493 21.671 14.64 21.5303 14.7807C21.3897 14.9213 21.1989 15.0003 21 15.0003H20.8725C20.955 15.2343 21 15.4878 21 15.7503V17.2503C21 18.2449 20.6049 19.1987 19.9016 19.902C19.1984 20.6053 18.2446 21.0003 17.25 21.0003C16.2554 21.0003 15.3016 20.6053 14.5983 19.902C13.8951 19.1987 13.5 18.2449 13.5 17.2503V17.0403L13.185 16.9353C12.4158 16.6791 11.5842 16.6791 10.815 16.9353L10.5 17.0403V17.2503C10.5 18.2449 10.1049 19.1987 9.40165 19.902C8.69839 20.6053 7.74456 21.0003 6.75 21.0003C5.75544 21.0003 4.80161 20.6053 4.09835 19.902C3.39509 19.1987 3 18.2449 3 17.2503V15.7503ZM15.75 15.0003H18.75C18.9489 15.0003 19.1397 15.0794 19.2803 15.22C19.421 15.3607 19.5 15.5514 19.5 15.7503V17.2503C19.5 17.8471 19.2629 18.4194 18.841 18.8413C18.419 19.2633 17.8467 19.5003 17.25 19.5003C16.6533 19.5003 16.081 19.2633 15.659 18.8413C15.2371 18.4194 15 17.8471 15 17.2503V15.7503C15 15.5514 15.079 15.3607 15.2197 15.22C15.3603 15.0794 15.5511 15.0003 15.75 15.0003Z" fill="#154BD8"/>
</svg>
