<svg width="16" height="16" viewBox="0 0 16 16" fill="none" xmlns="http://www.w3.org/2000/svg">
<g clip-path="url(#clip0_1209_10695)">
<path d="M8.21052 2.0467C8.14443 2.01594 8.07242 2 7.99952 2C7.92663 2 7.85461 2.01594 7.78852 2.0467L0.288523 5.5467C0.200205 5.58793 0.125861 5.65406 0.0746336 5.73698C0.0234063 5.81989 -0.0024704 5.91597 0.000185773 6.0134C0.00284195 6.11083 0.0339152 6.20536 0.0895841 6.28536C0.145253 6.36536 0.22309 6.42735 0.313523 6.4637L7.81352 9.4637C7.93291 9.51155 8.06614 9.51155 8.18552 9.4637L13.9995 7.1397V12.9997C13.7343 12.9997 13.48 13.1051 13.2924 13.2926C13.1049 13.4801 12.9995 13.7345 12.9995 13.9997V15.9997H15.9995V13.9997C15.9995 13.7345 15.8942 13.4801 15.7066 13.2926C15.5191 13.1051 15.2647 12.9997 14.9995 12.9997V6.7387L15.6855 6.4637C15.776 6.42735 15.8538 6.36536 15.9095 6.28536C15.9651 6.20536 15.9962 6.11083 15.9989 6.0134C16.0015 5.91597 15.9756 5.81989 15.9244 5.73698C15.8732 5.65406 15.7988 5.58793 15.7105 5.5467L8.21052 2.0467ZM7.99952 8.4597L1.75752 5.9647L7.99952 3.0517L14.2415 5.9647L7.99952 8.4597Z" fill="#154BD8"/>
<path d="M4.17623 9.0321C4.11185 9.00784 4.04315 8.99714 3.97444 9.00065C3.90573 9.00416 3.83848 9.02182 3.77691 9.05251C3.71533 9.08321 3.66075 9.12628 3.61659 9.17903C3.57242 9.23179 3.53962 9.29309 3.52023 9.3591L3.02023 11.0591C2.98521 11.1784 2.99593 11.3066 3.05029 11.4184C3.10465 11.5303 3.19876 11.6179 3.31423 11.6641L7.81423 13.4641C7.93362 13.5119 8.06685 13.5119 8.18623 13.4641L12.6862 11.6641C12.8017 11.6179 12.8958 11.5303 12.9502 11.4184C13.0045 11.3066 13.0153 11.1784 12.9802 11.0591L12.4802 9.3591C12.4608 9.29309 12.428 9.23179 12.3839 9.17903C12.3397 9.12628 12.2851 9.08321 12.2236 9.05251C12.162 9.02182 12.0947 9.00416 12.026 9.00065C11.9573 8.99714 11.8886 9.00784 11.8242 9.0321L8.00023 10.4661L4.17623 9.0321ZM4.10823 10.9051L4.32823 10.1571L7.82423 11.4681C7.93769 11.5108 8.06278 11.5108 8.17623 11.4681L11.6722 10.1571L11.8922 10.9051L8.00023 12.4601L4.10823 10.9041V10.9051Z" fill="#154BD8"/>
</g>
<defs>
<clipPath id="clip0_1209_10695">
<rect width="16" height="16" fill="white"/>
</clipPath>
</defs>
</svg>
