<svg width="24" height="24" viewBox="0 0 24 24" fill="none" xmlns="http://www.w3.org/2000/svg">
<path d="M2.78195 22.2819L22.2819 2.78195C22.3517 2.71222 22.407 2.62943 22.4447 2.53832C22.4825 2.44721 22.5019 2.34956 22.5019 2.25095C22.5019 2.15233 22.4825 2.05468 22.4447 1.96357C22.407 1.87246 22.3517 1.78968 22.2819 1.71995C22.2122 1.65022 22.1294 1.5949 22.0383 1.55716C21.9472 1.51942 21.8496 1.5 21.7509 1.5C21.6523 1.5 21.5547 1.51942 21.4636 1.55716C21.3725 1.5949 21.2897 1.65022 21.2199 1.71995L1.71995 21.2199C1.65022 21.2897 1.5949 21.3725 1.55716 21.4636C1.51942 21.5547 1.5 21.6523 1.5 21.7509C1.5 21.8496 1.51942 21.9472 1.55716 22.0383C1.5949 22.1294 1.65022 22.2122 1.71995 22.2819C1.86078 22.4228 2.05178 22.5019 2.25095 22.5019C2.34956 22.5019 2.44721 22.4825 2.53832 22.4447C2.62943 22.407 2.71222 22.3517 2.78195 22.2819ZM6.00095 1.50095C6.19986 1.50095 6.39062 1.57997 6.53128 1.72062C6.67193 1.86127 6.75095 2.05204 6.75095 2.25095V5.25095H9.75095C9.94986 5.25095 10.1406 5.32997 10.2813 5.47062C10.4219 5.61127 10.5009 5.80203 10.5009 6.00095C10.5009 6.19986 10.4219 6.39062 10.2813 6.53128C10.1406 6.67193 9.94986 6.75095 9.75095 6.75095H6.75095V9.75095C6.75095 9.94986 6.67193 10.1406 6.53128 10.2813C6.39062 10.4219 6.19986 10.5009 6.00095 10.5009C5.80203 10.5009 5.61127 10.4219 5.47062 10.2813C5.32997 10.1406 5.25095 9.94986 5.25095 9.75095V6.75095H2.25095C2.05204 6.75095 1.86127 6.67193 1.72062 6.53128C1.57997 6.39062 1.50095 6.19986 1.50095 6.00095C1.50095 5.80203 1.57997 5.61127 1.72062 5.47062C1.86127 5.32997 2.05204 5.25095 2.25095 5.25095H5.25095V2.25095C5.25095 2.05204 5.32997 1.86127 5.47062 1.72062C5.61127 1.57997 5.80203 1.50095 6.00095 1.50095ZM13.5009 18.0009C13.5009 17.802 13.58 17.6113 13.7206 17.4706C13.8613 17.33 14.052 17.2509 14.2509 17.2509H21.7509C21.9499 17.2509 22.1406 17.33 22.2813 17.4706C22.4219 17.6113 22.5009 17.802 22.5009 18.0009C22.5009 18.1999 22.4219 18.3906 22.2813 18.5313C22.1406 18.6719 21.9499 18.7509 21.7509 18.7509H14.2509C14.052 18.7509 13.8613 18.6719 13.7206 18.5313C13.58 18.3906 13.5009 18.1999 13.5009 18.0009Z" fill="#154BD8"/>
</svg>
