<svg width="17" height="17" viewBox="0 0 17 17" fill="none" xmlns="http://www.w3.org/2000/svg">
<g clip-path="url(#clip0_1209_1828)">
<path d="M8.5 15.5C6.64348 15.5 4.86301 14.7625 3.55025 13.4497C2.2375 12.137 1.5 10.3565 1.5 8.5C1.5 6.64348 2.2375 4.86301 3.55025 3.55025C4.86301 2.2375 6.64348 1.5 8.5 1.5C10.3565 1.5 12.137 2.2375 13.4497 3.55025C14.7625 4.86301 15.5 6.64348 15.5 8.5C15.5 10.3565 14.7625 12.137 13.4497 13.4497C12.137 14.7625 10.3565 15.5 8.5 15.5ZM8.5 16.5C10.6217 16.5 12.6566 15.6571 14.1569 14.1569C15.6571 12.6566 16.5 10.6217 16.5 8.5C16.5 6.37827 15.6571 4.34344 14.1569 2.84315C12.6566 1.34285 10.6217 0.5 8.5 0.5C6.37827 0.5 4.34344 1.34285 2.84315 2.84315C1.34285 4.34344 0.5 6.37827 0.5 8.5C0.5 10.6217 1.34285 12.6566 2.84315 14.1569C4.34344 15.6571 6.37827 16.5 8.5 16.5Z" fill="#154BD8"/>
<path d="M8.5 4.5C8.63261 4.5 8.75979 4.55268 8.85355 4.64645C8.94732 4.74021 9 4.86739 9 5V8L12 8C12.1326 8 12.2598 8.05268 12.3536 8.14645C12.4473 8.24021 12.5 8.36739 12.5 8.5C12.5 8.63261 12.4473 8.75979 12.3536 8.85355C12.2598 8.94732 12.1326 9 12 9H9V12C9 12.1326 8.94732 12.2598 8.85355 12.3536C8.75979 12.4473 8.63261 12.5 8.5 12.5C8.36739 12.5 8.24021 12.4473 8.14645 12.3536C8.05268 12.2598 8 12.1326 8 12L8 9H5C4.86739 9 4.74021 8.94732 4.64645 8.85355C4.55268 8.75979 4.5 8.63261 4.5 8.5C4.5 8.36739 4.55268 8.24021 4.64645 8.14645C4.74021 8.05268 4.86739 8 5 8H8V5C8 4.86739 8.05268 4.74021 8.14645 4.64645C8.24021 4.55268 8.36739 4.5 8.5 4.5Z" fill="#154BD8"/>
</g>
<defs>
<clipPath id="clip0_1209_1828">
<rect width="16" height="16" fill="white" transform="translate(0.5 0.5)"/>
</clipPath>
</defs>
</svg>
