<svg width="16" height="17" viewBox="0 0 16 17" fill="none" xmlns="http://www.w3.org/2000/svg">
<g clip-path="url(#clip0_1209_9249)">
<path d="M11.7419 10.8441C12.7102 9.52279 13.1439 7.88459 12.9562 6.25725C12.7685 4.62991 11.9733 3.13344 10.7297 2.06723C9.48604 1.00102 7.88567 0.443704 6.24876 0.506777C4.61184 0.56985 3.05911 1.24866 1.90119 2.40741C0.743273 3.56615 0.0655718 5.11938 0.00366997 6.75633C-0.0582319 8.39329 0.500231 9.99326 1.56733 11.2361C2.63443 12.479 4.13147 13.2732 5.75894 13.4597C7.38641 13.6462 9.0243 13.2113 10.3449 12.2421H10.3439C10.3739 12.2821 10.4059 12.3201 10.4419 12.3571L14.2919 16.2071C14.4794 16.3947 14.7338 16.5002 14.9991 16.5003C15.2643 16.5004 15.5188 16.3951 15.7064 16.2076C15.8941 16.0201 15.9995 15.7657 15.9996 15.5005C15.9997 15.2352 15.8944 14.9807 15.7069 14.7931L11.8569 10.9431C11.8212 10.9069 11.7827 10.8735 11.7419 10.8431V10.8441ZM11.9999 7.0001C11.9999 7.72237 11.8577 8.43757 11.5813 9.10486C11.3049 9.77215 10.8997 10.3785 10.389 10.8892C9.87829 11.3999 9.27197 11.805 8.60468 12.0814C7.93739 12.3578 7.22219 12.5001 6.49992 12.5001C5.77765 12.5001 5.06245 12.3578 4.39516 12.0814C3.72787 11.805 3.12156 11.3999 2.61083 10.8892C2.10011 10.3785 1.69498 9.77215 1.41858 9.10486C1.14218 8.43757 0.999921 7.72237 0.999921 7.0001C0.999921 5.54141 1.57938 4.14246 2.61083 3.11101C3.64228 2.07956 5.04123 1.5001 6.49992 1.5001C7.95861 1.5001 9.35756 2.07956 10.389 3.11101C11.4205 4.14246 11.9999 5.54141 11.9999 7.0001Z" fill="#154BD8"/>
</g>
<defs>
<clipPath id="clip0_1209_9249">
<rect width="16" height="16" fill="white" transform="translate(0 0.5)"/>
</clipPath>
</defs>
</svg>
