<svg width="16" height="16" viewBox="0 0 16 16" fill="none" xmlns="http://www.w3.org/2000/svg">
<g clip-path="url(#clip0_1209_6652)">
<path d="M2.86563 14.8492C2.78763 15.2932 3.22563 15.6402 3.61163 15.4422L8.00163 13.1862L12.3906 15.4422C12.7766 15.6402 13.2146 15.2932 13.1366 14.8502L12.3066 10.1202L15.8286 6.76419C16.1586 6.45019 15.9886 5.87619 15.5466 5.81419L10.6486 5.11819L8.46463 0.791191C8.42303 0.703479 8.35739 0.629374 8.27534 0.577483C8.19329 0.525592 8.09821 0.498047 8.00113 0.498047C7.90405 0.498047 7.80897 0.525592 7.72692 0.577483C7.64487 0.629374 7.57924 0.703479 7.53763 0.791191L5.35363 5.11919L0.45563 5.81519C0.01463 5.87719 -0.15637 6.45119 0.17263 6.76519L3.69563 10.1212L2.86563 14.8512V14.8492ZM7.77063 12.0822L4.08463 13.9762L4.77863 10.0192C4.79489 9.9281 4.78853 9.83442 4.76011 9.74636C4.73168 9.65831 4.68207 9.57858 4.61563 9.51419L1.70963 6.74419L5.76163 6.16819C5.84553 6.15552 5.92512 6.1227 5.99356 6.07254C6.06201 6.02238 6.11728 5.95638 6.15463 5.88019L7.99963 2.22219L9.84663 5.88019C9.88399 5.95638 9.93925 6.02238 10.0077 6.07254C10.0761 6.1227 10.1557 6.15552 10.2396 6.16819L14.2916 6.74319L11.3856 9.51319C11.319 9.57769 11.2693 9.65758 11.2409 9.74582C11.2125 9.83407 11.2062 9.92795 11.2226 10.0192L11.9166 13.9762L8.23063 12.0822C8.15935 12.0454 8.08032 12.0263 8.00013 12.0263C7.91994 12.0263 7.84091 12.0454 7.76963 12.0822H7.77063Z" fill="#676A6C"/>
</g>
<defs>
<clipPath id="clip0_1209_6652">
<rect width="16" height="16" fill="white"/>
</clipPath>
</defs>
</svg>
