<svg width="24" height="24" viewBox="0 0 24 24" fill="none" xmlns="http://www.w3.org/2000/svg">
<g clip-path="url(#clip0_1302_10628)">
<path fill-rule="evenodd" clip-rule="evenodd" d="M12 0C11.6022 0 11.2206 0.158035 10.9393 0.43934C10.658 0.720644 10.5 1.10218 10.5 1.5V3.2145C10.5 4.05 9.8895 4.752 9.1185 5.0745C8.3475 5.3955 7.4385 5.3175 6.849 4.728L5.6355 3.5145C5.49713 3.37123 5.33161 3.25696 5.14861 3.17835C4.9656 3.09973 4.76877 3.05836 4.5696 3.05662C4.37043 3.05489 4.17291 3.09285 3.98857 3.16827C3.80422 3.24369 3.63675 3.35507 3.49591 3.49591C3.35507 3.63675 3.24369 3.80422 3.16827 3.98857C3.09285 4.17291 3.05489 4.37043 3.05662 4.5696C3.05836 4.76877 3.09973 4.9656 3.17835 5.14861C3.25696 5.33161 3.37123 5.49713 3.5145 5.6355L4.728 6.849C5.3175 7.44 5.3955 8.3475 5.073 9.1185C4.752 9.8895 4.05 10.5 3.213 10.5H1.5C1.10218 10.5 0.720644 10.658 0.43934 10.9393C0.158035 11.2206 0 11.6022 0 12C0 12.3978 0.158035 12.7794 0.43934 13.0607C0.720644 13.342 1.10218 13.5 1.5 13.5H3.2145C4.05 13.5 4.752 14.1105 5.0745 14.8815C5.3955 15.6525 5.3175 16.5615 4.728 17.151L3.5145 18.3645C3.24126 18.6474 3.09007 19.0263 3.09349 19.4196C3.09691 19.8129 3.25466 20.1891 3.53277 20.4672C3.81088 20.7453 4.1871 20.9031 4.5804 20.9065C4.97369 20.9099 5.3526 20.7587 5.6355 20.4855L6.849 19.272C7.44 18.681 8.3475 18.6045 9.1185 18.927C9.8895 19.248 10.5 19.95 10.5 20.787V22.5C10.5 22.8978 10.658 23.2794 10.9393 23.5607C11.2206 23.842 11.6022 24 12 24C12.3978 24 12.7794 23.842 13.0607 23.5607C13.342 23.2794 13.5 22.8978 13.5 22.5V20.7855C13.5 19.95 14.1105 19.248 14.8815 18.9255C15.6525 18.6045 16.5615 18.6825 17.151 19.272L18.3645 20.4855C18.6474 20.7587 19.0263 20.9099 19.4196 20.9065C19.8129 20.9031 20.1891 20.7453 20.4672 20.4672C20.7453 20.1891 20.9031 19.8129 20.9065 19.4196C20.9099 19.0263 20.7587 18.6474 20.4855 18.3645L19.272 17.151C18.681 16.56 18.6045 15.6525 18.927 14.8815C19.248 14.1105 19.95 13.5 20.787 13.5H22.5C22.8978 13.5 23.2794 13.342 23.5607 13.0607C23.842 12.7794 24 12.3978 24 12C24 11.6022 23.842 11.2206 23.5607 10.9393C23.2794 10.658 22.8978 10.5 22.5 10.5H20.7855C19.95 10.5 19.248 9.8895 18.9255 9.1185C18.6045 8.3475 18.681 7.4385 19.272 6.849L20.4855 5.6355C20.6248 5.49613 20.7352 5.3307 20.8106 5.14865C20.8859 4.9666 20.9246 4.77149 20.9246 4.57447C20.9245 4.37745 20.8856 4.18237 20.8101 4.00037C20.7347 3.81837 20.6241 3.65302 20.4847 3.51375C20.3454 3.37448 20.18 3.26403 19.9979 3.1887C19.8158 3.11336 19.6207 3.07463 19.4237 3.0747C19.2267 3.07477 19.0316 3.11364 18.8496 3.1891C18.6676 3.26456 18.5023 3.37513 18.363 3.5145L17.151 4.728C16.56 5.3175 15.6525 5.3955 14.8815 5.073C14.1105 4.752 13.5 4.05 13.5 3.213V1.5C13.5 1.10218 13.342 0.720644 13.0607 0.43934C12.7794 0.158035 12.3978 0 12 0V0ZM15 7.5C15 7.89782 14.842 8.27936 14.5607 8.56066C14.2794 8.84196 13.8978 9 13.5 9C13.1022 9 12.7206 8.84196 12.4393 8.56066C12.158 8.27936 12 7.89782 12 7.5C12 7.10218 12.158 6.72064 12.4393 6.43934C12.7206 6.15804 13.1022 6 13.5 6C13.8978 6 14.2794 6.15804 14.5607 6.43934C14.842 6.72064 15 7.10218 15 7.5ZM10.5 10.5C10.5 10.8978 10.342 11.2794 10.0607 11.5607C9.77936 11.842 9.39782 12 9 12C8.60218 12 8.22064 11.842 7.93934 11.5607C7.65804 11.2794 7.5 10.8978 7.5 10.5C7.5 10.1022 7.65804 9.72064 7.93934 9.43934C8.22064 9.15804 8.60218 9 9 9C9.39782 9 9.77936 9.15804 10.0607 9.43934C10.342 9.72064 10.5 10.1022 10.5 10.5ZM12 18C12.3978 18 12.7794 17.842 13.0607 17.5607C13.342 17.2794 13.5 16.8978 13.5 16.5C13.5 16.1022 13.342 15.7206 13.0607 15.4393C12.7794 15.158 12.3978 15 12 15C11.6022 15 11.2206 15.158 10.9393 15.4393C10.658 15.7206 10.5 16.1022 10.5 16.5C10.5 16.8978 10.658 17.2794 10.9393 17.5607C11.2206 17.842 11.6022 18 12 18ZM18 12C18 12.3978 17.842 12.7794 17.5607 13.0607C17.2794 13.342 16.8978 13.5 16.5 13.5C16.1022 13.5 15.7206 13.342 15.4393 13.0607C15.158 12.7794 15 12.3978 15 12C15 11.6022 15.158 11.2206 15.4393 10.9393C15.7206 10.658 16.1022 10.5 16.5 10.5C16.8978 10.5 17.2794 10.658 17.5607 10.9393C17.842 11.2206 18 11.6022 18 12Z" fill="#154BD8"/>
</g>
<defs>
<clipPath id="clip0_1302_10628">
<rect width="24" height="24" fill="white"/>
</clipPath>
</defs>
</svg>
