<svg width="17" height="16" viewBox="0 0 17 16" fill="none" xmlns="http://www.w3.org/2000/svg">
<path fill-rule="evenodd" clip-rule="evenodd" d="M4.5 7.9999C4.5 7.86729 4.55268 7.74011 4.64645 7.64635C4.74021 7.55258 4.86739 7.4999 5 7.4999H10.793L8.646 5.3539C8.55211 5.26001 8.49937 5.13268 8.49937 4.9999C8.49937 4.86712 8.55211 4.73979 8.646 4.6459C8.73989 4.55201 8.86722 4.49927 9 4.49927C9.13278 4.49927 9.26011 4.55201 9.354 4.6459L12.354 7.6459C12.4006 7.69234 12.4375 7.74752 12.4627 7.80827C12.4879 7.86901 12.5009 7.93413 12.5009 7.9999C12.5009 8.06567 12.4879 8.13079 12.4627 8.19153C12.4375 8.25228 12.4006 8.30745 12.354 8.3539L9.354 11.3539C9.26011 11.4478 9.13278 11.5005 9 11.5005C8.86722 11.5005 8.73989 11.4478 8.646 11.3539C8.55211 11.26 8.49937 11.1327 8.49937 10.9999C8.49937 10.8671 8.55211 10.7398 8.646 10.6459L10.793 8.4999H5C4.86739 8.4999 4.74021 8.44722 4.64645 8.35345C4.55268 8.25969 4.5 8.13251 4.5 7.9999Z" fill="black"/>
</svg>
