<svg width="12" height="13" viewBox="0 0 12 13" fill="none" xmlns="http://www.w3.org/2000/svg">
<path fill-rule="evenodd" clip-rule="evenodd" d="M1.23419 3.98444C1.26903 3.94952 1.31041 3.92181 1.35597 3.9029C1.40153 3.884 1.45037 3.87427 1.49969 3.87427C1.54902 3.87427 1.59786 3.884 1.64342 3.9029C1.68898 3.92181 1.73036 3.94952 1.76519 3.98444L5.99969 8.21969L10.2342 3.98444C10.2691 3.94957 10.3105 3.92191 10.356 3.90305C10.4016 3.88418 10.4504 3.87446 10.4997 3.87446C10.549 3.87446 10.5978 3.88418 10.6434 3.90305C10.6889 3.92191 10.7303 3.94957 10.7652 3.98444C10.8001 4.0193 10.8277 4.0607 10.8466 4.10625C10.8655 4.1518 10.8752 4.20063 10.8752 4.24994C10.8752 4.29925 10.8655 4.34807 10.8466 4.39363C10.8277 4.43918 10.8001 4.48057 10.7652 4.51544L6.26519 9.01544C6.23036 9.05036 6.18898 9.07807 6.14342 9.09697C6.09786 9.11588 6.04902 9.12561 5.99969 9.12561C5.95037 9.12561 5.90153 9.11588 5.85597 9.09697C5.81041 9.07807 5.76903 9.05036 5.73419 9.01544L1.23419 4.51544C1.19927 4.4806 1.17156 4.43922 1.15266 4.39366C1.13375 4.3481 1.12402 4.29926 1.12402 4.24994C1.12402 4.20061 1.13375 4.15177 1.15266 4.10621C1.17156 4.06065 1.19927 4.01927 1.23419 3.98444Z" fill="black"/>
</svg>
