<svg width="15" height="15" viewBox="0 0 15 15" fill="none" xmlns="http://www.w3.org/2000/svg">
    <path d="M7.50078 1.8998C8.51038 1.89962 9.5007 2.17632 10.364 2.6998H9.90078C9.68861 2.6998 9.48513 2.78409 9.3351 2.93412C9.18507 3.08415 9.10078 3.28763 9.10078 3.4998C9.10078 3.71198 9.18507 3.91546 9.3351 4.06549C9.48513 4.21552 9.68861 4.2998 9.90078 4.2998H12.3008C12.513 4.2998 12.7164 4.21552 12.8665 4.06549C13.0165 3.91546 13.1008 3.71198 13.1008 3.4998V1.0998C13.1008 0.887631 13.0165 0.684148 12.8665 0.534119C12.7164 0.38409 12.513 0.299805 12.3008 0.299805C12.0886 0.299805 11.8851 0.38409 11.7351 0.534119C11.5851 0.684148 11.5008 0.887631 11.5008 1.0998V1.5134C10.4167 0.789069 9.15627 0.372696 7.85404 0.308728C6.5518 0.244759 5.25664 0.535595 4.10678 1.15019C2.95692 1.76479 1.99553 2.68009 1.32522 3.79838C0.654902 4.91668 0.300827 6.196 0.300781 7.4998C0.300781 7.71198 0.385067 7.91546 0.535096 8.06549C0.685125 8.21552 0.888608 8.2998 1.10078 8.2998C1.31295 8.2998 1.51644 8.21552 1.66647 8.06549C1.8165 7.91546 1.90078 7.71198 1.90078 7.4998C1.90248 6.01511 2.49302 4.59171 3.54285 3.54188C4.59269 2.49204 6.01609 1.9015 7.50078 1.8998ZM13.9008 6.6998C13.6886 6.6998 13.4851 6.78409 13.3351 6.93412C13.1851 7.08415 13.1008 7.28763 13.1008 7.4998C13.0991 8.9845 12.5085 10.4079 11.4587 11.4577C10.4089 12.5076 8.98547 13.0981 7.50078 13.0998C6.49118 13.1 5.50086 12.8233 4.63758 12.2998H5.10078C5.31295 12.2998 5.51644 12.2155 5.66647 12.0655C5.8165 11.9155 5.90078 11.712 5.90078 11.4998C5.90078 11.2876 5.8165 11.0841 5.66647 10.9341C5.51644 10.7841 5.31295 10.6998 5.10078 10.6998H2.70078C2.48861 10.6998 2.28512 10.7841 2.1351 10.9341C1.98507 11.0841 1.90078 11.2876 1.90078 11.4998V13.8998C1.90078 14.112 1.98507 14.3155 2.1351 14.4655C2.28512 14.6155 2.48861 14.6998 2.70078 14.6998C2.91295 14.6998 3.11644 14.6155 3.26647 14.4655C3.4165 14.3155 3.50078 14.112 3.50078 13.8998V13.4862C4.58487 14.2105 5.84529 14.6269 7.14753 14.6909C8.44976 14.7549 9.74493 14.464 10.8948 13.8494C12.0446 13.2348 13.006 12.3195 13.6763 11.2012C14.3467 10.0829 14.7007 8.80361 14.7008 7.4998C14.7008 7.28763 14.6165 7.08415 14.4665 6.93412C14.3164 6.78409 14.113 6.6998 13.9008 6.6998Z" fill="black"/>
</svg>
