<svg width="16" height="17" viewBox="0 0 16 17" fill="none" xmlns="http://www.w3.org/2000/svg">
<path fill-rule="evenodd" clip-rule="evenodd" d="M1.64592 5.14604C1.69236 5.09948 1.74754 5.06253 1.80828 5.03733C1.86903 5.01212 1.93415 4.99915 1.99992 4.99915C2.06568 4.99915 2.13081 5.01212 2.19155 5.03733C2.2523 5.06253 2.30747 5.09948 2.35392 5.14604L7.99992 10.793L13.6459 5.14604C13.6924 5.09955 13.7476 5.06267 13.8083 5.03752C13.8691 5.01236 13.9342 4.99941 13.9999 4.99941C14.0657 4.99941 14.1308 5.01236 14.1915 5.03752C14.2522 5.06267 14.3074 5.09955 14.3539 5.14604C14.4004 5.19253 14.4373 5.24772 14.4624 5.30846C14.4876 5.36919 14.5005 5.4343 14.5005 5.50004C14.5005 5.56578 14.4876 5.63088 14.4624 5.69162C14.4373 5.75236 14.4004 5.80755 14.3539 5.85404L8.35392 11.854C8.30747 11.9006 8.2523 11.9375 8.19155 11.9628C8.13081 11.988 8.06568 12.0009 7.99992 12.0009C7.93415 12.0009 7.86903 11.988 7.80828 11.9628C7.74754 11.9375 7.69236 11.9006 7.64592 11.854L1.64592 5.85404C1.59935 5.80759 1.56241 5.75242 1.5372 5.69167C1.512 5.63093 1.49902 5.56581 1.49902 5.50004C1.49902 5.43427 1.512 5.36915 1.5372 5.30841C1.56241 5.24766 1.59935 5.19248 1.64592 5.14604Z" fill="#154BD8"/>
</svg>
