<svg width="16" height="17" viewBox="0 0 16 17" fill="none" xmlns="http://www.w3.org/2000/svg">
<path fill-rule="evenodd" clip-rule="evenodd" d="M5 12C5 11.8674 5.05268 11.7402 5.14645 11.6464C5.24021 11.5527 5.36739 11.5 5.5 11.5H14.5C14.6326 11.5 14.7598 11.5527 14.8536 11.6464C14.9473 11.7402 15 11.8674 15 12C15 12.1326 14.9473 12.2598 14.8536 12.3536C14.7598 12.4473 14.6326 12.5 14.5 12.5H5.5C5.36739 12.5 5.24021 12.4473 5.14645 12.3536C5.05268 12.2598 5 12.1326 5 12ZM5 8C5 7.86739 5.05268 7.74021 5.14645 7.64645C5.24021 7.55268 5.36739 7.5 5.5 7.5H14.5C14.6326 7.5 14.7598 7.55268 14.8536 7.64645C14.9473 7.74021 15 7.86739 15 8C15 8.13261 14.9473 8.25979 14.8536 8.35355C14.7598 8.44732 14.6326 8.5 14.5 8.5H5.5C5.36739 8.5 5.24021 8.44732 5.14645 8.35355C5.05268 8.25979 5 8.13261 5 8ZM5 4C5 3.86739 5.05268 3.74021 5.14645 3.64645C5.24021 3.55268 5.36739 3.5 5.5 3.5H14.5C14.6326 3.5 14.7598 3.55268 14.8536 3.64645C14.9473 3.74021 15 3.86739 15 4C15 4.13261 14.9473 4.25979 14.8536 4.35355C14.7598 4.44732 14.6326 4.5 14.5 4.5H5.5C5.36739 4.5 5.24021 4.44732 5.14645 4.35355C5.05268 4.25979 5 4.13261 5 4Z" fill="#676A6C"/>
<path d="M1.713 12.365V11.891H2C2.217 11.891 2.363 11.754 2.363 11.574C2.363 11.389 2.205 11.264 2.002 11.264C1.779 11.264 1.635 11.416 1.629 11.574H1.039C1.055 11.107 1.412 10.787 2.025 10.787C2.613 10.785 2.979 11.078 2.982 11.49C2.98389 11.6313 2.93543 11.7687 2.84528 11.8775C2.75513 11.9863 2.62919 12.0595 2.49 12.084V12.117C2.64781 12.1288 2.79501 12.2009 2.90098 12.3184C3.00696 12.436 3.06356 12.5898 3.059 12.748C3.062 13.281 2.557 13.548 2.008 13.548C1.352 13.548 1.008 13.178 1 12.754H1.582C1.59 12.932 1.768 13.06 2.004 13.063C2.258 13.063 2.428 12.918 2.426 12.713C2.424 12.518 2.271 12.365 2.012 12.365H1.712H1.713ZM1.709 7.66598H1.105V7.63098C1.105 7.22298 1.4 6.78698 2.063 6.78698C2.646 6.78698 3.023 7.11298 3.023 7.54298C3.023 7.93198 2.766 8.15998 2.547 8.39098L2.01 8.96298V8.99298H3.064V9.49998H1.143V9.10498L2.1 8.11498C2.238 7.97298 2.393 7.81098 2.393 7.60698C2.393 7.42698 2.246 7.28698 2.051 7.28698C2.00598 7.28533 1.9611 7.29291 1.91913 7.30926C1.87715 7.32561 1.83897 7.35038 1.80693 7.38205C1.77489 7.41371 1.74967 7.4516 1.73283 7.49338C1.71599 7.53516 1.70788 7.57995 1.709 7.62498V7.66598ZM2.564 5.49998H1.929V3.42398H1.898L1.3 3.84398V3.27698L1.929 2.83398H2.564V5.49998Z" fill="#676A6C"/>
</svg>
