<svg width="16" height="16" viewBox="0 0 16 16" fill="none" xmlns="http://www.w3.org/2000/svg">
<path fill-rule="evenodd" clip-rule="evenodd" d="M5 11.5C5 11.3674 5.05268 11.2402 5.14645 11.1464C5.24021 11.0527 5.36739 11 5.5 11H14.5C14.6326 11 14.7598 11.0527 14.8536 11.1464C14.9473 11.2402 15 11.3674 15 11.5C15 11.6326 14.9473 11.7598 14.8536 11.8536C14.7598 11.9473 14.6326 12 14.5 12H5.5C5.36739 12 5.24021 11.9473 5.14645 11.8536C5.05268 11.7598 5 11.6326 5 11.5ZM5 7.5C5 7.36739 5.05268 7.24021 5.14645 7.14645C5.24021 7.05268 5.36739 7 5.5 7H14.5C14.6326 7 14.7598 7.05268 14.8536 7.14645C14.9473 7.24021 15 7.36739 15 7.5C15 7.63261 14.9473 7.75979 14.8536 7.85355C14.7598 7.94732 14.6326 8 14.5 8H5.5C5.36739 8 5.24021 7.94732 5.14645 7.85355C5.05268 7.75979 5 7.63261 5 7.5ZM5 3.5C5 3.36739 5.05268 3.24021 5.14645 3.14645C5.24021 3.05268 5.36739 3 5.5 3H14.5C14.6326 3 14.7598 3.05268 14.8536 3.14645C14.9473 3.24021 15 3.36739 15 3.5C15 3.63261 14.9473 3.75979 14.8536 3.85355C14.7598 3.94732 14.6326 4 14.5 4H5.5C5.36739 4 5.24021 3.94732 5.14645 3.85355C5.05268 3.75979 5 3.63261 5 3.5Z" fill="black"/>
<path d="M2.24212 2.19406C2.25913 2.13892 2.29336 2.09068 2.33979 2.05642C2.38622 2.02215 2.44241 2.00366 2.50012 2.00366C2.55782 2.00366 2.61401 2.02215 2.66044 2.05642C2.70687 2.09068 2.7411 2.13892 2.75812 2.19406L2.92012 2.72406C2.95512 2.83906 3.06012 2.91806 3.17812 2.91806H3.72912C3.98812 2.91806 4.09912 3.25106 3.89312 3.41106L3.42512 3.77406C3.38089 3.80865 3.34822 3.85586 3.33143 3.90944C3.31465 3.96301 3.31454 4.02042 3.33112 4.07406L3.50412 4.64306C3.58212 4.89906 3.29112 5.10506 3.08112 4.94306L2.66412 4.61906C2.61724 4.58257 2.55952 4.56276 2.50012 4.56276C2.44071 4.56276 2.383 4.58257 2.33612 4.61906L1.91912 4.94206C1.70912 5.10506 1.41912 4.89906 1.49612 4.64306L1.66912 4.07306C1.68548 4.01956 1.68525 3.96236 1.66847 3.90899C1.65169 3.85562 1.61915 3.80858 1.57512 3.77406L1.10712 3.41106C0.901116 3.25106 1.01212 2.91806 1.27112 2.91806H1.82112C1.87941 2.91788 1.93609 2.89891 1.98275 2.86396C2.02941 2.82902 2.06355 2.77996 2.08012 2.72406L2.24212 2.19406ZM2.24212 6.19406C2.25913 6.13892 2.29336 6.09068 2.33979 6.05642C2.38622 6.02215 2.44241 6.00366 2.50012 6.00366C2.55782 6.00366 2.61401 6.02215 2.66044 6.05642C2.70687 6.09068 2.7411 6.13892 2.75812 6.19406L2.92012 6.72406C2.95512 6.83906 3.06012 6.91806 3.17812 6.91806H3.72912C3.98812 6.91806 4.09912 7.25106 3.89312 7.41106L3.42512 7.77406C3.38089 7.80865 3.34822 7.85586 3.33143 7.90944C3.31465 7.96301 3.31454 8.02042 3.33112 8.07406L3.50412 8.64306C3.58212 8.89806 3.29112 9.10506 3.08112 8.94306L2.66412 8.61906C2.61724 8.58257 2.55952 8.56276 2.50012 8.56276C2.44071 8.56276 2.383 8.58257 2.33612 8.61906L1.91912 8.94206C1.70912 9.10506 1.41912 8.89906 1.49612 8.64306L1.66912 8.07306C1.68548 8.01956 1.68525 7.96236 1.66847 7.90899C1.65169 7.85562 1.61915 7.80858 1.57512 7.77406L1.10712 7.41106C0.901116 7.25106 1.01212 6.91806 1.27112 6.91806H1.82112C1.87941 6.91788 1.93609 6.89891 1.98275 6.86397C2.02941 6.82902 2.06355 6.77995 2.08012 6.72406L2.24212 6.19406ZM2.24212 10.1941C2.25913 10.1389 2.29336 10.0907 2.33979 10.0564C2.38622 10.0222 2.44241 10.0037 2.50012 10.0037C2.55782 10.0037 2.61401 10.0222 2.66044 10.0564C2.70687 10.0907 2.7411 10.1389 2.75812 10.1941L2.92012 10.7241C2.95512 10.8391 3.06012 10.9181 3.17812 10.9181H3.72912C3.98812 10.9181 4.09912 11.2511 3.89312 11.4111L3.42512 11.7741C3.38089 11.8087 3.34822 11.8559 3.33143 11.9094C3.31465 11.963 3.31454 12.0204 3.33112 12.0741L3.50412 12.6431C3.58212 12.8981 3.29112 13.1051 3.08112 12.9431L2.66412 12.6191C2.61724 12.5826 2.55952 12.5628 2.50012 12.5628C2.44071 12.5628 2.383 12.5826 2.33612 12.6191L1.91912 12.9421C1.70912 13.1051 1.41912 12.8991 1.49612 12.6431L1.66912 12.0731C1.68548 12.0196 1.68525 11.9624 1.66847 11.909C1.65169 11.8556 1.61915 11.8086 1.57512 11.7741L1.10712 11.4111C0.901116 11.2511 1.01212 10.9181 1.27112 10.9181H1.82112C1.87941 10.9179 1.93609 10.8989 1.98275 10.864C2.02941 10.829 2.06355 10.78 2.08012 10.7241L2.24212 10.1941Z" fill="#212529"/>
</svg>
