<svg width="16" height="17" viewBox="0 0 16 17" fill="none" xmlns="http://www.w3.org/2000/svg">
<path d="M6.79 5.593C6.71524 5.53977 6.62726 5.50814 6.53572 5.50158C6.44418 5.49503 6.35259 5.51379 6.27101 5.55582C6.18942 5.59786 6.12098 5.66154 6.07317 5.73988C6.02537 5.81823 6.00006 5.90822 6 6V11C6.00006 11.0918 6.02537 11.1818 6.07317 11.2601C6.12098 11.3385 6.18942 11.4021 6.27101 11.4442C6.35259 11.4862 6.44418 11.505 6.53572 11.4984C6.62726 11.4919 6.71524 11.4602 6.79 11.407L10.29 8.907C10.3548 8.86074 10.4076 8.79968 10.4441 8.72889C10.4805 8.6581 10.4996 8.57962 10.4996 8.5C10.4996 8.42037 10.4805 8.3419 10.4441 8.2711C10.4076 8.20031 10.3548 8.13925 10.29 8.093L6.79 5.593Z" fill="#676A6C"/>
<path d="M0 4.5C0 3.96957 0.210714 3.46086 0.585786 3.08579C0.960859 2.71071 1.46957 2.5 2 2.5H14C14.5304 2.5 15.0391 2.71071 15.4142 3.08579C15.7893 3.46086 16 3.96957 16 4.5V12.5C16 13.0304 15.7893 13.5391 15.4142 13.9142C15.0391 14.2893 14.5304 14.5 14 14.5H2C1.46957 14.5 0.960859 14.2893 0.585786 13.9142C0.210714 13.5391 0 13.0304 0 12.5V4.5ZM15 4.5C15 4.23478 14.8946 3.98043 14.7071 3.79289C14.5196 3.60536 14.2652 3.5 14 3.5H2C1.73478 3.5 1.48043 3.60536 1.29289 3.79289C1.10536 3.98043 1 4.23478 1 4.5V12.5C1 12.7652 1.10536 13.0196 1.29289 13.2071C1.48043 13.3946 1.73478 13.5 2 13.5H14C14.2652 13.5 14.5196 13.3946 14.7071 13.2071C14.8946 13.0196 15 12.7652 15 12.5V4.5Z" fill="#676A6C"/>
</svg>
