<svg width="16" height="17" viewBox="0 0 16 17" fill="none" xmlns="http://www.w3.org/2000/svg">
<g clip-path="url(#clip0_913_5431)">
<path d="M2.86563 15.35C2.78763 15.794 3.22563 16.141 3.61163 15.943L8.00163 13.687L12.3906 15.943C12.7766 16.141 13.2146 15.794 13.1366 15.351L12.3066 10.621L15.8286 7.26501C16.1586 6.95101 15.9886 6.37701 15.5466 6.31501L10.6486 5.61901L8.46463 1.29201C8.42303 1.2043 8.35739 1.1302 8.27534 1.07831C8.19329 1.02642 8.09821 0.998871 8.00113 0.998871C7.90405 0.998871 7.80897 1.02642 7.72692 1.07831C7.64487 1.1302 7.57924 1.2043 7.53763 1.29201L5.35363 5.62001L0.45563 6.31601C0.01463 6.37801 -0.15637 6.95201 0.17263 7.26601L3.69563 10.622L2.86563 15.352V15.35ZM7.77063 12.583L4.08463 14.477L4.77863 10.52C4.79489 10.4289 4.78853 10.3352 4.76011 10.2472C4.73168 10.1591 4.68207 10.0794 4.61563 10.015L1.70963 7.24501L5.76163 6.66901C5.84553 6.65634 5.92512 6.62352 5.99356 6.57337C6.06201 6.52321 6.11728 6.45721 6.15463 6.38101L7.99963 2.72301L9.84663 6.38101C9.88399 6.45721 9.93925 6.52321 10.0077 6.57337C10.0761 6.62352 10.1557 6.65634 10.2396 6.66901L14.2916 7.24401L11.3856 10.014C11.319 10.0785 11.2693 10.1584 11.2409 10.2466C11.2125 10.3349 11.2062 10.4288 11.2226 10.52L11.9166 14.477L8.23063 12.583C8.15935 12.5463 8.08032 12.5271 8.00013 12.5271C7.91994 12.5271 7.84091 12.5463 7.76963 12.583H7.77063Z" fill="#676A6C"/>
</g>
<defs>
<clipPath id="clip0_913_5431">
<rect width="16" height="16" fill="white" transform="translate(0 0.5)"/>
</clipPath>
</defs>
</svg>
