<svg width="102" height="40" viewBox="0 0 102 40" fill="none" xmlns="http://www.w3.org/2000/svg">
<g clip-path="url(#clip0_920_17202)">
<path d="M1.26172 27.3058H5.62648V11.8145H1.26172V27.3058Z" fill="black"/>
<path d="M24.766 19.5136L12.8387 4.43848H9.26758V27.3055H13.749V12.6234L25.5129 27.3055H29.2474V4.48472H24.766V19.5136Z" fill="black"/>
<path d="M66.8501 22.4964V10.5889H62.4853V20.9704C62.1585 21.6332 61.7617 22.1881 61.2949 22.6351C60.8281 23.0821 60.3224 23.4135 59.7778 23.6293C59.2176 23.8451 58.6574 23.953 58.0972 23.953C57.1636 23.953 56.4556 23.6293 55.9732 22.9819C55.5064 22.3345 55.273 21.3788 55.273 20.1149V10.5889H50.9082V21.0629C50.9082 23.2054 51.3672 24.8393 52.2853 25.9646C53.1878 27.0744 54.5183 27.6293 56.2766 27.6293C57.7082 27.6293 59.0231 27.3365 60.2212 26.7507C61.4039 26.165 62.3764 25.3095 63.1389 24.1842L63.2322 25.5253C63.3256 26.1419 63.6135 26.6274 64.0958 26.9819C64.5782 27.321 65.2084 27.4906 65.9865 27.4906C66.2354 27.4906 66.5077 27.4752 66.8034 27.4444C67.0835 27.4135 67.4414 27.3673 67.8771 27.3056V23.7912C67.5036 23.7449 67.2391 23.6293 67.0835 23.4444C66.9279 23.2594 66.8501 22.9434 66.8501 22.4964Z" fill="black"/>
<path fill-rule="evenodd" clip-rule="evenodd" d="M101.137 23.7906V27.3051C100.748 27.3667 100.398 27.4207 100.087 27.4669C99.7603 27.5132 99.488 27.5363 99.2701 27.5363C98.4143 27.5363 97.7608 27.3436 97.3095 26.9583C96.8583 26.5729 96.5782 26.0951 96.4692 25.5247L96.3759 24.6692C95.6445 25.6095 94.7264 26.3417 93.6216 26.8658C92.5168 27.3745 91.3887 27.6288 90.2372 27.6288C89.1013 27.6288 88.0898 27.3976 87.2029 26.9351C86.3003 26.4881 85.5923 25.8638 85.0788 25.0623C84.5653 24.2762 84.3086 23.3822 84.3086 22.3802C84.3086 21.3012 84.6198 20.3533 85.2422 19.5363C85.8647 18.7193 86.7283 18.0874 87.8331 17.6403C88.9379 17.1933 90.2061 16.9698 91.6376 16.9698C92.3534 16.9698 93.077 17.0238 93.8084 17.1317C94.5397 17.2396 95.1777 17.4091 95.7223 17.6403V16.7386C95.7223 15.6904 95.4033 14.8812 94.7653 14.3109C94.1274 13.7405 93.1782 13.4554 91.9177 13.4554C90.9841 13.4554 90.0972 13.6172 89.2569 13.9409C88.4166 14.2646 87.5296 14.7348 86.596 15.3513L85.1955 12.5305C86.3159 11.7906 87.4674 11.2434 88.65 10.8889C89.8326 10.519 91.0775 10.334 92.3846 10.334C94.812 10.334 96.7026 10.9274 98.0564 12.1143C99.4102 13.3012 100.087 14.9968 100.087 17.201V22.4958C100.087 22.9428 100.173 23.2588 100.344 23.4438C100.499 23.6288 100.764 23.7444 101.137 23.7906ZM95.7223 20.1143C95.2088 19.8985 94.6486 19.7367 94.0418 19.6288C93.4349 19.5055 92.8592 19.4438 92.3145 19.4438C91.1942 19.4438 90.2683 19.6827 89.537 20.1606C88.8056 20.623 88.4399 21.2473 88.4399 22.0334C88.4399 22.4496 88.5644 22.8427 88.8134 23.2126C89.0468 23.598 89.3891 23.9062 89.8404 24.1375C90.2917 24.3533 90.8363 24.4611 91.4743 24.4611C92.1278 24.4611 92.7658 24.3455 93.3882 24.1143C94.0106 23.8677 94.5164 23.5671 94.9054 23.2126C95.1544 22.966 95.3566 22.7193 95.5123 22.4727C95.6523 22.2107 95.7223 21.9795 95.7223 21.7791V20.1143Z" fill="black"/>
<path d="M9.22091 1.68749C9.22091 0.831998 8.52068 0.115234 7.63373 0.115234C6.74677 0.115234 6.04654 0.831998 6.04654 1.68749C6.04654 1.84934 6.06988 2.01119 6.11656 2.17304C6.1399 2.35801 6.25661 3.97651 3.89917 4.09211C3.85249 4.09211 3.80581 4.06899 3.73579 4.06899C2.10192 4.06899 0.771484 5.38691 0.771484 7.02853C0.771484 8.64702 2.10192 9.96495 3.73579 9.96495C5.39299 9.96495 6.72343 8.64702 6.72343 7.02853C6.72343 6.5661 6.60672 6.14991 6.42 5.75685L6.44334 5.77997C6.44334 5.77997 5.97652 3.88402 7.91382 3.23662C8.66073 3.12101 9.22091 2.47362 9.22091 1.68749Z" fill="#DEB3E0"/>
<path d="M21.6149 37.7571C21.366 37.9575 21.0937 38.104 20.798 38.1964C20.5024 38.2889 20.2145 38.3352 19.9344 38.3352C19.5298 38.3352 19.1564 38.2504 18.814 38.0808C18.4873 37.9267 18.2072 37.7032 17.9738 37.4103C17.7248 37.1174 17.5381 36.786 17.4136 36.4161C17.2891 36.0461 17.2268 35.6608 17.2268 35.26C17.2268 34.8901 17.2813 34.5278 17.3902 34.1733C17.4992 33.8034 17.6625 33.472 17.8804 33.1791C18.1138 32.9016 18.3939 32.6704 18.7207 32.4855C19.0474 32.3005 19.4365 32.208 19.8877 32.208C20.1678 32.208 20.4557 32.2465 20.7513 32.3236C21.0314 32.4161 21.2959 32.5625 21.5449 32.7629C21.7939 32.9633 21.9962 33.233 22.1518 33.5722L23.5289 32.6473C23.2332 32.0461 22.7742 31.5606 22.1518 31.1907C21.5294 30.8207 20.798 30.6357 19.9577 30.6357C19.2264 30.6357 18.5806 30.7668 18.0204 31.0288C17.4603 31.2909 16.9857 31.6454 16.5966 32.0924C16.2076 32.5394 15.912 33.025 15.7097 33.549C15.5074 34.0885 15.4062 34.6357 15.4062 35.1907C15.4062 35.7764 15.5152 36.3467 15.733 36.9016C15.9509 37.472 16.2543 37.9806 16.6433 38.4277C17.0479 38.8747 17.5225 39.2369 18.0671 39.5144C18.6117 39.7764 19.2108 39.9074 19.8644 39.9074C20.3779 39.9074 20.8914 39.8303 21.4049 39.6762C21.9028 39.5066 22.3619 39.26 22.782 38.9363C23.1866 38.628 23.4822 38.2427 23.6689 37.7802L22.1985 36.9479C22.0584 37.2716 21.8639 37.5413 21.6149 37.7571Z" fill="black"/>
<path fill-rule="evenodd" clip-rule="evenodd" d="M53.8952 32.971C54.2375 33.6646 54.4087 34.4276 54.4087 35.26C54.4087 36.1848 54.222 36.9941 53.8485 37.6877C53.475 38.366 52.946 38.8978 52.2613 39.2831C51.5766 39.6531 50.7753 39.838 49.8572 39.838H46.4961V30.7051H49.8572C50.8531 30.7051 51.6933 30.9055 52.378 31.3062C53.0471 31.7224 53.5528 32.2773 53.8952 32.971ZM52.5881 35.26C52.5881 34.6743 52.4792 34.1579 52.2613 33.7109C52.0435 33.2484 51.7322 32.8939 51.3277 32.6473C50.9231 32.3852 50.4329 32.2542 49.8572 32.2542H48.2933V38.2889H49.8572C50.4329 38.2889 50.9309 38.1579 51.351 37.8958C51.7556 37.6338 52.0668 37.2716 52.2846 36.8091C52.4869 36.3467 52.5881 35.8303 52.5881 35.26Z" fill="black"/>
<path d="M64.0941 35.9074H67.9921V34.4739H64.0941V32.2542H68.5989V30.7051H62.2969V39.838H68.7156V38.2889H64.0941V35.9074Z" fill="black"/>
<path d="M81.2738 35.9074L78.5429 30.7051H76.6289V39.838H78.4262V33.8496L80.7836 38.312H81.7873L84.1447 33.8496V39.838H85.942V30.7051H84.028L81.2738 35.9074Z" fill="black"/>
<path d="M100.016 30.7051L97.6817 35.0057L95.4177 30.7051H93.457L96.8181 36.6242V39.838H98.592V36.6473L101.953 30.7051H100.016Z" fill="black"/>
<path fill-rule="evenodd" clip-rule="evenodd" d="M5.39244 30.7051L8.80022 39.838H6.95628L6.18603 37.5721H2.77825L2.008 39.838H0.164062L3.57184 30.7051H5.39244ZM5.76589 36.3236L4.48214 32.5548L3.19839 36.3236H5.76589Z" fill="black"/>
<path fill-rule="evenodd" clip-rule="evenodd" d="M35.5018 30.7051L38.8863 39.838H37.0423L36.2721 37.5721H32.8876L32.1174 39.838H30.2734L33.6812 30.7051H35.5018ZM35.8519 36.3236L34.5915 32.5548L33.3078 36.3236H35.8519Z" fill="black"/>
<path fill-rule="evenodd" clip-rule="evenodd" d="M49.2969 16.7397L49.2269 18.8668C49.2269 18.9824 49.1569 19.0749 49.0635 19.0749L47.2429 19.468C47.0328 20.2772 46.6827 21.0402 46.2159 21.7339L47.1729 23.3293C47.2196 23.3986 47.1962 23.5142 47.1262 23.5836L45.5624 25.0634C45.4923 25.1327 45.3756 25.1558 45.2823 25.0865L43.7184 24.0691C42.9948 24.5084 42.2246 24.809 41.3843 24.9709L40.9175 26.7512C40.8942 26.8437 40.8008 26.9131 40.7074 26.9131C40.7074 26.9131 40.6996 26.9131 40.6841 26.9131L38.5367 26.8668C38.4434 26.8668 38.35 26.7975 38.3267 26.6819L37.9532 24.8784C37.1129 24.6703 36.366 24.3235 35.6658 23.8842L34.0553 24.809C33.9619 24.8553 33.8452 24.8321 33.7752 24.7628L32.2813 23.2136C32.2113 23.1443 32.2113 23.0287 32.258 22.9362L33.285 21.4102C32.8649 20.6934 32.5614 19.9073 32.398 19.098L30.5775 18.6125C30.4841 18.5894 30.4141 18.4969 30.4141 18.4044L30.4841 16.2541C30.4841 16.1616 30.5541 16.0691 30.6475 16.046L32.4681 15.6761C32.6781 14.8668 33.0283 14.1038 33.4951 13.4102L32.5381 11.8148C32.4914 11.7223 32.5148 11.6298 32.5848 11.5605L34.1486 10.0807C34.2186 10.0113 34.3353 9.98822 34.4287 10.0576L35.9926 11.0518C36.6928 10.6356 37.4864 10.335 38.3267 10.1732L38.7935 8.39284C38.8168 8.27723 38.9102 8.20787 39.0035 8.23099L41.1742 8.27723C41.2676 8.27723 41.361 8.3466 41.3843 8.46221L41.7578 10.2657C42.598 10.4738 43.345 10.7975 44.0452 11.2599L45.6557 10.335C45.7491 10.2888 45.8658 10.2888 45.9358 10.3813L47.4296 11.9304C47.4996 11.9998 47.4996 12.1154 47.453 12.1847L46.426 13.7339C46.8461 14.4506 47.1495 15.2136 47.3129 16.046L49.1335 16.5084C49.2269 16.5547 49.2969 16.6241 49.2969 16.7397ZM42.9015 14.6819C42.1079 13.8495 41.0109 13.3871 39.8438 13.3871C38.7701 13.3871 37.7431 13.8032 36.9495 14.5431C35.269 16.1385 35.199 18.7743 36.7861 20.4391C37.6031 21.2946 38.6768 21.757 39.8438 21.757C40.9408 21.757 41.9678 21.3408 42.7614 20.6009C44.442 19.0056 44.512 16.3697 42.9015 14.6819Z" fill="#9BB8ED"/>
<path d="M81.6243 10.2656C81.4998 10.2656 81.3209 10.2656 81.0875 10.2656C80.076 10.3273 79.1112 10.6818 78.1932 11.3292C77.2751 11.992 76.5204 12.8861 75.9291 14.0113V10.6356H72.0078V25.7338L73.5717 26.8899V22.15H74.7154V26.913L76.2792 25.7338V17.0171C76.7305 16.0922 77.4618 15.3832 78.4733 14.8899C79.5003 14.3966 80.6595 14.15 81.9511 14.15V10.2887C81.8733 10.2733 81.7643 10.2656 81.6243 10.2656Z" fill="#E8CB66"/>
</g>
<defs>
<clipPath id="clip0_920_17202">
<rect width="102" height="40" fill="white"/>
</clipPath>
</defs>
</svg>
